<svg width="949" height="584" viewBox="0 0 949 584" fill="none" xmlns="http://www.w3.org/2000/svg">
<path d="M898.775 224.548C883.361 175.263 837.331 139.493 782.939 139.493C782.474 139.493 782.052 139.493 781.587 139.493C771.621 60.8565 704.476 0 623.057 0C566.174 0 516.258 29.7314 487.922 74.4975C465.54 58.1959 438.007 48.567 408.192 48.567C356.883 48.567 312.246 77.0737 289.231 119.095C278.378 111.746 265.287 107.439 251.182 107.439C248.311 107.439 245.523 107.692 242.736 108.03C217.018 82.2682 181.419 66.3045 142.145 66.3045C63.6402 66.2623 0 129.906 0 208.416C0 263.909 31.799 311.927 78.1672 335.366C64.0625 345.924 54.9408 362.69 54.9408 381.652C54.9408 413.622 80.8699 439.51 112.796 439.51C119.679 439.51 126.267 438.243 132.432 436.005C146.157 468.059 177.956 490.484 214.991 490.484C232.939 490.484 249.578 485.163 263.598 476.125C284.544 493.272 311.275 503.576 340.414 503.576C343.792 503.576 347.128 503.407 350.464 503.112C383.319 551.552 438.809 583.353 501.731 583.353C545.819 583.353 586.233 567.727 617.778 541.754C630.532 554.297 648.057 562.068 667.398 562.068C706.503 562.068 738.175 530.394 738.175 491.287C738.175 490.104 738.049 489.006 738.006 487.866C745.059 478.237 749.239 466.412 749.239 453.573C749.239 435.92 741.342 420.126 728.927 409.441C734.544 398.672 737.795 386.509 738.091 373.628C751.984 379.16 767.103 382.243 782.981 382.243C812.331 382.243 839.231 371.812 860.219 354.497C866.722 356.566 873.606 357.706 880.785 357.706C918.243 357.706 948.564 327.341 948.564 289.924C948.564 258.714 927.491 232.53 898.817 224.633L898.775 224.548Z" fill="#EF4156"/>
<path d="M768.484 359.071L770.07 265.269L791.917 261.808C816.392 257.932 830.607 273.399 829.995 303.545C829.37 335.395 817.849 351.253 793.927 355.042L768.484 359.071ZM790.446 335.749L793.627 335.245C802.476 333.843 807.713 326.635 808.111 305.878C808.451 286.546 803.833 279.765 794.431 281.255L791.25 281.758L790.446 335.749Z" fill="#FFF685"/>
<path d="M717.306 367.177L718.892 273.375L740.324 269.98L738.991 343.899L762.222 340.219L761.969 360.103L717.306 367.177Z" fill="#FFF685"/>
<path d="M708.363 302.683C710.531 316.372 706.017 328.143 696.705 335.571L711.357 368.12L690.062 371.493L677.996 343.637L677.581 343.703L670.253 344.864L669.736 374.712L648.303 378.107L649.888 284.304L675.884 280.186C693.998 277.317 705.626 285.398 708.363 302.683ZM670.908 300.677L670.527 325.118L676.611 324.154C683.94 322.993 687.882 316.557 686.502 307.846C685.538 301.762 682.247 298.881 676.993 299.713L670.908 300.677Z" fill="#FFF685"/>
<path d="M611.594 385.622C590.299 388.994 578.756 373.388 579.425 341.815C580.042 308.123 589.009 292.245 609.059 289.069C630.768 285.631 641.926 300.59 641.417 332.28C640.821 366.109 631.644 382.446 611.594 385.622ZM610.398 365.541C617.174 364.468 619.419 357.167 619.685 335.58C619.894 315.419 617.307 308.033 610.255 309.15C603.617 310.201 601.633 316.468 601.178 338.653C600.787 358.559 603.484 366.637 610.398 365.541Z" fill="#FFF685"/>
<path d="M555.894 299.191L579.263 295.49L551.681 393.41L540.619 395.162L529.696 353.943L517.388 398.841L506.326 400.593L482.054 310.886L504.04 307.404L513.027 348.929L524.643 304.141L535.291 302.454L545.427 344.081L555.894 299.191Z" fill="#FFF685"/>
<path d="M443.012 317.07L454.074 315.318L452.488 409.121L431.056 412.515L431.673 378.824L423.092 395.35L415.625 396.532L406.025 379.768L405.336 416.589L383.903 419.983L385.489 326.18L396.551 324.428L418.987 364.958L443.012 317.07Z" fill="#FFF685"/>
<path d="M359.029 423.923L357.35 415.117L338.13 418.162L336.075 427.559L313.674 431.107L343.053 332.902L354.115 331.15L380.185 420.572L359.029 423.923ZM354.147 398.473L348.421 372.165L341.979 400.401L354.147 398.473Z" fill="#FFF685"/>
<path d="M263.182 439.104L264.767 345.301L310.951 337.986L310.677 357.732L285.926 361.652L285.613 377.577L303.865 374.686L303.532 393.166L285.28 396.057L284.867 415.825L311.001 411.686L310.749 431.57L263.182 439.104Z" fill="#FFF685"/>
<path d="M254.239 374.609C256.407 388.298 251.893 400.069 242.58 407.498L257.232 440.046L235.938 443.419L223.872 415.563L223.457 415.629L216.128 416.79L215.611 446.638L194.178 450.033L195.764 356.23L221.76 352.113C239.874 349.244 251.501 357.324 254.239 374.609ZM216.784 372.603L216.403 397.044L222.487 396.08C229.816 394.919 233.757 388.484 232.378 379.772C231.414 373.688 228.123 370.807 222.868 371.64L216.784 372.603Z" fill="#FFF685"/>
<path d="M125.851 460.855L127.436 367.052L149.284 363.592C173.759 359.715 187.973 375.182 187.362 405.329C186.736 437.179 175.215 453.036 151.293 456.825L125.851 460.855ZM147.812 437.532L150.993 437.028C159.842 435.627 165.079 428.419 165.477 407.661C165.817 388.33 161.2 381.549 151.797 383.038L148.616 383.542L147.812 437.532Z" fill="#FFF685"/>
<path d="M776.517 236.304L778.103 142.501L824.287 135.186L824.012 154.932L799.261 158.852L798.948 174.777L817.201 171.886L816.868 190.366L798.615 193.257L798.202 213.025L824.337 208.885L824.084 228.77L776.517 236.304Z" fill="#FFF685"/>
<path d="M706.434 247.404L708.019 153.601L729.452 150.206L728.894 185.164L745.902 182.47L746.46 147.512L767.893 144.118L766.307 237.921L744.874 241.315L745.533 202.515L728.525 205.208L727.866 244.009L706.434 247.404Z" fill="#FFF685"/>
<path d="M661.244 254.561L662.461 180.802L644.9 183.584L645.268 163.539L701.823 154.582L701.455 174.626L683.894 177.408L682.677 251.166L661.244 254.561Z" fill="#FFF685"/>
<path d="M554.654 271.443L556.239 177.64L578.087 174.18C602.562 170.304 616.776 185.77 616.165 215.917C615.54 247.767 604.018 263.625 580.097 267.414L554.654 271.443ZM576.616 248.121L579.796 247.617C588.646 246.215 593.883 239.007 594.28 218.249C594.62 198.918 590.003 192.137 580.6 193.626L577.42 194.13L576.616 248.121Z" fill="#FFF685"/>
<path d="M497.938 280.426L499.524 186.623L545.708 179.308L545.434 199.054L520.682 202.974L520.37 218.899L538.622 216.009L538.289 234.488L520.037 237.379L519.624 257.147L545.758 253.008L545.505 272.892L497.938 280.426Z" fill="#FFF685"/>
<path d="M472.161 190.957L495.529 187.256L466.288 285.439L455.226 287.191L429.018 197.79L450.866 194.33L460.74 234.297L472.161 190.957Z" fill="#FFF685"/>
<path d="M416.754 293.285L415.076 284.479L395.856 287.523L393.8 296.92L371.4 300.468L400.779 202.263L411.841 200.511L437.911 289.934L416.754 293.285ZM411.873 267.835L406.147 241.527L399.705 269.762L411.873 267.835Z" fill="#FFF685"/>
<path d="M345.883 306.21C328.461 308.97 317.059 301.42 312.575 283.845L331.116 276.515C333.304 284.956 336.435 287.721 342.657 286.735C346.667 286.1 349.431 282.969 348.884 279.512C348.402 276.47 346.989 274.709 341.091 269.69L334.873 264.438C323.602 255.026 319.116 249.074 317.977 241.884C315.393 225.567 325.096 212.549 341.551 209.943C357.591 207.402 367.732 214.159 372.617 230.678L354.643 238.911C351.947 230.834 349.617 228.651 344.5 229.462C341.043 230.009 338.832 233.052 339.336 236.233C339.796 239.137 341.617 241.683 346.211 245.633L352.451 251.023C364.749 261.549 369.053 267.246 370.192 274.436C372.733 290.476 362.753 303.538 345.883 306.21Z" fill="#FFF685"/>
<path d="M253.234 320.884C235.811 323.644 222.371 314.858 219.853 298.956C219.524 296.882 219.428 294.488 219.478 291.22L220.541 230.81L241.974 227.415L240.912 290.518C240.848 292.796 240.884 293.924 241.038 294.892C241.761 299.455 245.124 301.899 249.826 301.155C254.665 300.388 257.64 296.799 257.776 291.391L258.843 224.743L280.414 221.327L279.18 288.709C278.926 305.901 268.583 318.453 253.234 320.884Z" fill="#FFF685"/>
<path d="M182.246 332.128C160.952 335.5 149.408 319.894 150.077 288.321C150.694 254.629 159.661 238.751 179.711 235.576C201.42 232.137 212.578 247.096 212.069 278.786C211.474 312.615 202.296 328.952 182.246 332.128ZM181.05 312.048C187.826 310.974 190.071 303.673 190.338 282.086C190.546 261.925 187.959 254.539 180.907 255.656C174.27 256.707 172.286 262.974 171.831 285.159C171.44 305.065 174.137 313.143 181.05 312.048Z" fill="#FFF685"/>
<path d="M151.963 241.671L129.096 305.818L128.53 338.935L107.097 342.329L107.613 309.788L86.6968 252.009L109.098 248.461L118.239 279.331L128.456 245.394L151.963 241.671Z" fill="#FFF685"/>
<path d="M703.919 92.429L700.921 33.2291L725.12 29.3965L720.374 89.8228L703.919 92.429ZM714.533 126.326C707.204 127.487 700.957 122.948 699.774 115.481C698.614 108.153 703.152 101.906 710.481 100.745C717.81 99.5842 724.056 104.123 725.217 111.451C726.4 118.918 721.861 125.165 714.533 126.326Z" fill="white"/>
<path d="M663.28 134.444C640.602 138.035 628.848 122.888 629.473 91.0378C630.09 57.3465 639.035 41.33 658.809 38.1982C676.231 35.4387 686.476 43.7383 689.382 62.9806L670.389 69.249C669.147 60.5157 666.227 57.2928 660.419 58.2126C653.644 59.2858 651.66 65.5533 651.183 87.5994C650.691 108.656 653.372 115.743 661.254 114.495C664.296 114.013 666.632 112.651 668.145 110.569L668.452 98.1883L660.432 99.4585L660.677 80.4258L689.854 75.8047L689.319 113.594C685.408 124.702 675.586 132.495 663.28 134.444Z" fill="white"/>
<path d="M601.156 49.0304L622.727 45.6139L621.142 139.417L609.941 141.191L583.473 101.158L582.839 145.483L561.268 148.9L562.854 55.097L573.916 53.3449L600.544 93.4936L601.156 49.0304Z" fill="white"/>
<path d="M529.67 153.904L531.255 60.1016L552.688 56.707L551.103 150.51L529.67 153.904Z" fill="white"/>
<path d="M523.378 61.3493L523.28 70.5782L496.74 139.276L523.013 135.115L522.76 154.999L468.418 163.606L468.515 154.377L496.278 85.3441L471.941 89.1986L472.216 69.4526L523.378 61.3493Z" fill="white"/>
<path d="M465.583 70.5031L465.485 79.732L438.945 148.43L465.218 144.268L464.965 164.153L410.623 172.76L410.72 163.531L438.483 94.4979L414.146 98.3524L414.42 78.6064L465.583 70.5031Z" fill="white"/>
<path d="M407.787 79.6571L407.69 88.886L381.15 157.584L407.422 153.422L407.17 173.307L352.827 181.914L352.925 172.685L380.687 103.652L356.351 107.506L356.625 87.7605L407.787 79.6571Z" fill="white"/>
<path d="M331.41 185.306L329.731 176.5L310.511 179.544L308.456 188.942L286.055 192.489L315.434 94.2845L326.496 92.5324L352.566 181.955L331.41 185.306ZM326.528 159.856L320.802 133.548L314.36 161.784L326.528 159.856Z" fill="white"/>
<path d="M272.525 101.08L283.587 99.3284L282.002 193.131L260.569 196.526L261.186 162.835L252.606 179.36L245.139 180.543L235.538 163.778L234.85 200.599L213.417 203.994L215.002 110.191L226.064 108.439L248.501 148.968L272.525 101.08Z" fill="white"/>
<path d="M188.542 207.934L186.864 199.128L167.643 202.172L165.588 211.569L143.187 215.117L172.566 116.912L183.628 115.16L209.698 204.583L188.542 207.934ZM183.661 182.484L177.935 156.176L171.492 184.411L183.661 182.484Z" fill="white"/>
<path fill-rule="evenodd" clip-rule="evenodd" d="M754.621 361.267L754.384 375.301L796.09 368.696C810.864 366.356 823.427 359.911 831.988 347.794C840.192 336.182 843.477 321.083 843.817 303.826C844.16 286.912 840.445 271.396 830.567 260.591C820.155 249.201 805.375 245.681 789.755 248.155L756.444 253.431L754.958 341.37L762.222 340.219L761.969 360.104L754.621 361.267ZM829.996 303.546C830.607 273.399 816.393 257.932 791.918 261.808L770.07 265.269L768.484 359.072L793.927 355.042C817.849 351.253 829.37 335.395 829.996 303.546ZM793.627 335.245L790.446 335.749L791.25 281.758L794.431 281.255C796.932 280.859 799.094 281.048 800.915 281.902C802.562 282.675 803.929 283.993 805.014 285.915C807.24 289.856 808.279 296.339 808.111 305.878C807.922 315.737 806.641 322.54 804.4 327.115C801.923 332.173 798.273 334.509 793.627 335.245Z" fill="#EF4156"/>
<path fill-rule="evenodd" clip-rule="evenodd" d="M704.157 327.106C708.235 320.347 709.832 311.955 708.363 302.682C707.689 298.424 706.475 294.725 704.757 291.61L705.265 261.536L754.443 253.747L753.11 327.666L769.058 325.14L768.484 359.072L775.822 357.91L775.644 371.934L703.205 383.407L703.443 369.373L711.357 368.12L703.749 351.221L704.157 327.106ZM738.991 343.899L740.324 269.98L718.891 273.375L717.306 367.178L761.969 360.104L762.222 340.219L738.991 343.899Z" fill="#EF4156"/>
<path fill-rule="evenodd" clip-rule="evenodd" d="M634.633 368.875L634.202 394.336L731.389 378.943L725.508 365.878L717.306 367.178L717.624 348.365L713.15 338.425C715.004 336.01 716.597 333.429 717.922 330.711L718.635 288.567C715.89 282.186 711.69 276.623 705.766 272.516C696.469 266.071 685.109 264.729 673.722 266.532L636.262 272.465L635.78 300.978C639.726 308.279 641.634 318.756 641.417 332.28C641.136 348.203 638.955 360.251 634.633 368.875ZM696.705 335.571C706.017 328.143 710.531 316.372 708.363 302.682C705.626 285.398 693.999 277.317 675.884 280.186L649.888 284.304L648.303 378.107L669.736 374.712L670.253 344.864L677.996 343.637L690.062 371.492L711.357 368.12L696.705 335.571ZM670.908 300.677L676.993 299.713C679.405 299.331 681.403 299.732 682.952 300.865C683.62 301.353 684.204 301.978 684.702 302.734C685.566 304.047 686.171 305.758 686.502 307.846C687.24 312.508 686.455 316.518 684.442 319.417C682.693 321.935 680.018 323.614 676.611 324.154L670.527 325.118L670.908 300.677Z" fill="#EF4156"/>
<path fill-rule="evenodd" clip-rule="evenodd" d="M565.573 344.088C565.538 360.062 568.426 374.533 576.138 385.015C585.162 397.28 598.888 401.63 613.756 399.276C627.719 397.064 638.801 389.815 645.864 377.198C646.79 375.543 647.635 373.817 648.405 372.021L649.075 332.414L649.075 332.403L649.658 297.924C648.284 294.789 646.623 291.873 644.639 289.221C635.474 276.971 621.642 273.08 606.896 275.416C593.473 277.542 582.655 284.234 575.571 296.074L579.262 295.49L565.573 344.088ZM579.425 341.815C578.756 373.388 590.299 388.994 611.594 385.622C631.644 382.446 640.821 366.109 641.416 332.28C641.925 300.59 630.768 285.631 609.058 289.07C589.008 292.245 580.042 308.123 579.425 341.815ZM619.685 335.58C619.419 357.167 617.173 364.468 610.398 365.542C603.484 366.637 600.787 358.559 601.178 338.653C601.633 316.469 603.617 310.201 610.254 309.15C617.306 308.033 619.894 315.419 619.685 335.58ZM616.745 319.663C616.745 319.663 616.742 319.671 616.735 319.687C616.742 319.67 616.745 319.662 616.745 319.663ZM604.611 318.872C604.611 318.871 604.619 318.888 604.633 318.924C604.617 318.891 604.61 318.873 604.611 318.872ZM604.071 354.732C604.071 354.732 604.075 354.725 604.081 354.712C604.075 354.726 604.071 354.733 604.071 354.732ZM616.194 355.679C616.215 355.723 616.225 355.748 616.225 355.751C616.225 355.754 616.214 355.731 616.194 355.679Z" fill="#EF4156"/>
<path fill-rule="evenodd" clip-rule="evenodd" d="M555.894 299.191L545.427 344.081L535.291 302.454L524.643 304.141L513.027 348.929L504.04 307.404L482.054 310.886L506.326 400.593L517.388 398.841L529.696 353.943L540.619 395.162L551.681 393.41L579.262 295.49L555.894 299.191ZM529.47 407.058L528.362 411.1L496.225 416.19L464.69 299.64L598.421 278.459L593.527 295.837C592.511 296.708 591.555 297.662 590.655 298.699C583.336 307.135 579.804 321.112 579.425 341.815C579.395 343.229 579.389 344.611 579.408 345.96L562.587 405.679L530.453 410.768L529.47 407.058Z" fill="#EF4156"/>
<path fill-rule="evenodd" clip-rule="evenodd" d="M370.04 422.179L369.803 436.213L466.114 420.959L468.174 299.088L433.838 304.526L418.386 335.328L403.954 309.26L371.863 314.342L370.622 387.77L380.185 420.572L370.04 422.179ZM418.987 364.958L396.551 324.429L385.489 326.181L383.903 419.984L405.336 416.589L406.024 379.768L415.625 396.532L423.092 395.35L431.673 378.824L431.055 412.515L452.488 409.121L454.074 315.318L443.012 317.07L418.987 364.958Z" fill="#EF4156"/>
<path fill-rule="evenodd" clip-rule="evenodd" d="M298.527 433.506L294.131 448.198L347.562 439.736L347.78 438.741L347.957 439.673L397.849 431.771L393.949 418.392L383.903 419.983L384.479 385.91L363.979 315.591L332.301 320.608L304.759 412.674L311.001 411.686L310.749 431.57L298.527 433.506ZM357.35 415.117L359.029 423.923L380.185 420.572L354.115 331.15L343.053 332.902L313.674 431.107L336.075 427.559L338.13 418.162L357.35 415.117ZM348.421 372.165L341.979 400.401L354.147 398.473L348.421 372.165Z" fill="#EF4156"/>
<path fill-rule="evenodd" clip-rule="evenodd" d="M250.033 399.032C254.11 392.273 255.707 383.881 254.239 374.609C253.564 370.35 252.35 366.651 250.633 363.536L251.141 333.463L325.002 321.764L324.338 369.565L317.765 370.606L317.295 396.693L324.301 395.583L313.674 431.107L324.602 429.376L324.423 443.4L249.081 455.333L249.318 441.3L257.232 440.046L249.625 423.147L250.033 399.032ZM285.28 396.057L303.532 393.166L303.865 374.686L285.613 377.577L285.925 361.652L310.677 357.732L310.951 337.986L264.767 345.301L263.181 439.104L310.749 431.57L311.001 411.686L284.867 415.825L285.28 396.057Z" fill="#EF4156"/>
<path fill-rule="evenodd" clip-rule="evenodd" d="M180.563 437.537L180.078 466.262L277.265 450.87L271.383 437.805L263.181 439.104L263.499 420.291L259.025 410.351C260.879 407.937 262.473 405.355 263.798 402.638L264.51 360.493C261.766 354.112 257.566 348.549 251.642 344.442C242.345 337.997 230.984 336.655 219.597 338.459L182.138 344.392L181.586 377.038C185.585 384.053 187.6 393.575 187.361 405.329C187.096 418.845 184.868 429.481 180.563 437.537ZM242.58 407.497C251.893 400.069 256.407 388.298 254.239 374.609C251.501 357.324 239.874 349.244 221.76 352.113L195.764 356.23L194.178 450.033L215.611 446.638L216.128 416.79L223.872 415.563L235.938 443.419L257.232 440.046L242.58 407.497ZM216.784 372.603L222.868 371.64C225.28 371.258 227.278 371.658 228.828 372.791C229.495 373.279 230.079 373.904 230.578 374.661C231.442 375.973 232.047 377.684 232.377 379.772C233.116 384.434 232.33 388.444 230.317 391.343C228.569 393.861 225.894 395.541 222.487 396.08L216.403 397.044L216.784 372.603Z" fill="#EF4156"/>
<path fill-rule="evenodd" clip-rule="evenodd" d="M125.85 460.855L151.293 456.825C175.215 453.036 186.736 437.179 187.361 405.329C187.973 375.182 173.758 359.715 149.283 363.592L127.436 367.052L125.85 460.855ZM194.333 440.864C192.926 443.948 191.275 446.858 189.354 449.577C180.792 461.694 168.23 468.139 153.456 470.479L111.75 477.085L113.81 355.214L147.121 349.938C162.74 347.464 177.521 350.984 187.933 362.374C191.027 365.759 193.517 369.607 195.466 373.815L194.333 440.864ZM150.992 437.029L147.812 437.532L148.616 383.542L151.796 383.038C154.297 382.642 156.46 382.831 158.281 383.686C159.927 384.459 161.295 385.776 162.38 387.698C164.605 391.64 165.645 398.123 165.477 407.661C165.288 417.521 164.007 424.323 161.766 428.899C159.289 433.956 155.639 436.293 150.992 437.029Z" fill="#EF4156"/>
<path fill-rule="evenodd" clip-rule="evenodd" d="M762.654 238.499L762.416 252.533L837.759 240.6L838.367 192.667L830.63 193.892L831.1 167.805L837.673 166.764L838.337 118.964L764.476 130.662L764.239 144.696L767.892 144.118L766.307 237.921L762.654 238.499ZM799.261 158.852L824.012 154.932L824.286 135.186L778.102 142.501L776.517 236.304L824.084 228.77L824.336 208.885L798.202 213.025L798.615 193.257L816.867 190.366L817.2 171.886L798.948 174.777L799.261 158.852Z" fill="#EF4156"/>
<path fill-rule="evenodd" clip-rule="evenodd" d="M693.817 175.836L692.333 263.633L779.933 249.759L780.17 235.725L776.517 236.304L778.102 142.501L781.755 141.922L781.993 127.888L694.393 141.763L694.156 155.796L701.823 154.582L701.454 174.627L693.817 175.836ZM729.452 150.206L708.019 153.601L706.433 247.404L727.866 244.009L728.524 205.208L745.532 202.515L744.874 241.315L766.307 237.921L767.892 144.118L746.46 147.512L745.901 182.47L728.893 185.164L729.452 150.206Z" fill="#EF4156"/>
<path fill-rule="evenodd" clip-rule="evenodd" d="M661.244 254.561L682.677 251.166L683.894 177.408L701.455 174.627L701.823 154.582L645.268 163.54L644.9 183.584L662.461 180.803L661.244 254.561ZM648.367 197.031L647.15 270.79L696.308 263.004L697.524 189.245L707.443 187.674L708.019 153.601L715.69 152.386L715.949 138.349L631.66 151.699L630.774 199.818L648.367 197.031Z" fill="#EF4156"/>
<path fill-rule="evenodd" clip-rule="evenodd" d="M485.095 222.29L483.838 296.656L559.181 284.723L559.359 270.698L554.653 271.443L555.227 237.512L552.052 238.015L552.522 211.928L555.668 211.43L556.239 177.64L559.564 177.114L559.759 163.087L485.898 174.785L485.661 188.819L495.529 187.256L485.095 222.29ZM520.682 202.975L545.434 199.054L545.708 179.308L499.524 186.623L497.939 280.426L545.506 272.892L545.758 253.008L519.624 257.147L520.037 237.379L538.289 234.488L538.622 216.009L520.37 218.9L520.682 202.975Z" fill="#EF4156"/>
<path fill-rule="evenodd" clip-rule="evenodd" d="M472.16 190.957L460.74 234.297L450.866 194.33L429.018 197.79L455.226 287.191L466.288 285.439L495.529 187.256L472.16 190.957ZM515.042 170.169L510.667 184.858L499.524 186.623L498.885 224.42L477.052 297.731L445.381 302.747L411.331 186.595L515.042 170.169Z" fill="#EF4156"/>
<path fill-rule="evenodd" clip-rule="evenodd" d="M356.253 302.865L351.857 317.56L405.288 309.097L405.505 308.103L405.683 309.034L455.574 301.132L421.704 184.952L390.027 189.97L367.165 266.389C368.836 269.092 369.751 271.652 370.192 274.436C370.886 278.816 370.646 282.974 369.587 286.759C369.513 287.024 369.435 287.287 369.353 287.548C368.108 291.511 365.948 295.041 363.011 297.959C361.081 299.876 358.815 301.528 356.253 302.865ZM371.399 300.468L400.778 202.263L411.84 200.511L437.91 289.934L416.754 293.285L415.076 284.479L395.855 287.523L393.8 296.92L371.399 300.468ZM406.147 241.527L399.704 269.762L411.873 267.835L406.147 241.527Z" fill="#EF4156"/>
<path fill-rule="evenodd" clip-rule="evenodd" d="M318.137 296.512C324.113 304.909 333.47 308.176 345.883 306.21C362.753 303.538 372.733 290.476 370.192 274.436C369.154 267.882 365.486 262.569 355.532 253.709C354.566 252.849 353.54 251.955 352.451 251.023L346.211 245.633C344.995 244.588 343.973 243.64 343.119 242.759C342.853 242.484 342.603 242.215 342.368 241.951C340.516 239.871 339.636 238.128 339.336 236.233C338.832 233.053 341.043 230.009 344.5 229.462C347.62 228.968 349.704 229.586 351.466 231.976C351.907 232.573 352.328 233.281 352.739 234.11C352.852 234.337 352.964 234.572 353.075 234.817C353.341 235.401 353.604 236.036 353.867 236.728C353.871 236.737 353.875 236.747 353.878 236.757C354.132 237.423 354.386 238.14 354.643 238.911L372.617 230.678C371.275 226.142 369.538 222.342 367.39 219.268C367.139 218.909 366.882 218.559 366.62 218.22C360.956 210.889 352.671 208.182 341.55 209.943C325.096 212.549 315.393 225.567 317.977 241.884C318.993 248.3 322.675 253.73 331.464 261.512C332.524 262.451 333.659 263.425 334.873 264.438L341.091 269.69C342.393 270.798 343.476 271.747 344.379 272.586C347.567 275.549 348.508 277.141 348.884 279.512C349.431 282.969 346.667 286.1 342.657 286.735C338.573 287.382 335.82 286.414 333.793 283.284C333.267 282.473 332.789 281.516 332.35 280.404C332.318 280.322 332.285 280.238 332.253 280.154C332.246 280.136 332.239 280.118 332.233 280.1C331.831 279.042 331.462 277.849 331.116 276.515L312.575 283.846C313.596 287.848 314.976 291.33 316.704 294.289C317.157 295.066 317.635 295.807 318.137 296.512ZM317.254 267.13C310.406 260.229 305.761 253.124 304.323 244.046C302.508 232.585 304.939 221.429 311.512 212.548C318.068 203.691 328.001 198.093 339.388 196.289C349.706 194.655 360.066 195.744 368.939 201.664C377.684 207.498 382.878 216.627 385.873 226.759L389.272 238.254L369.154 247.47C375.084 253.204 379.461 258.73 381.953 265.192L371.399 300.468L379.279 299.22C378.397 300.781 377.403 302.289 376.298 303.734C369.595 312.498 359.539 318.044 348.046 319.864C336.984 321.616 325.973 320.354 316.69 314.143C307.443 307.956 301.982 298.243 299.18 287.264L296.17 275.466L317.254 267.13Z" fill="#EF4156"/>
<path fill-rule="evenodd" clip-rule="evenodd" d="M208.039 308.549C210.871 316.788 216.109 323.713 223.372 328.478C232.595 334.528 243.924 336.355 255.396 334.538C278.137 330.937 292.65 312.041 293.002 288.94C293.002 288.931 293.002 288.922 293.003 288.914L294.538 205.094L206.923 218.97L206.421 247.464C210.375 254.765 212.286 265.249 212.069 278.786C211.992 283.174 211.77 287.269 211.399 291.078C211.398 291.085 211.398 291.091 211.397 291.098C211.07 294.453 210.626 297.588 210.063 300.507C209.506 303.396 208.833 306.074 208.039 308.549ZM279.18 288.71L280.414 221.327L258.843 224.743L257.776 291.391C257.64 296.799 254.665 300.388 249.825 301.155C245.124 301.9 241.76 299.456 241.038 294.892C240.884 293.925 240.847 292.796 240.912 290.518L241.973 227.415L220.541 230.81L219.478 291.22C219.428 294.488 219.524 296.882 219.853 298.957C222.371 314.858 235.811 323.644 253.234 320.885C268.583 318.454 278.926 305.901 279.18 288.71Z" fill="#EF4156"/>
<path fill-rule="evenodd" clip-rule="evenodd" d="M136.317 285.564L151.963 241.671L146.224 242.581C153.308 230.74 164.126 224.048 177.548 221.922C192.295 219.586 206.127 223.477 215.291 235.727C217.271 238.373 218.929 241.282 220.301 244.41L219.478 291.22C219.428 294.488 219.524 296.882 219.853 298.956C220.36 302.157 221.309 305.07 222.645 307.658C221.19 313.556 219.188 318.93 216.516 323.704C209.454 336.321 198.372 343.57 184.409 345.782C169.541 348.136 155.814 343.786 146.79 331.522C138.671 320.485 135.899 305.027 136.256 288.049C136.271 287.215 136.291 286.387 136.317 285.564ZM150.077 288.321C149.408 319.894 160.952 335.501 182.246 332.128C202.296 328.952 211.474 312.615 212.069 278.786C212.578 247.096 201.42 232.137 179.711 235.576C159.661 238.751 150.694 254.629 150.077 288.321ZM190.338 282.086C190.071 303.673 187.826 310.975 181.05 312.048C174.136 313.143 171.44 305.065 171.83 285.159C172.286 262.975 174.27 256.707 180.907 255.656C187.959 254.539 190.546 261.925 190.338 282.086ZM186.878 302.257C186.877 302.258 186.866 302.235 186.846 302.185C186.868 302.231 186.878 302.256 186.878 302.257ZM175.263 265.378C175.264 265.378 175.271 265.394 175.285 265.43C175.27 265.397 175.263 265.379 175.263 265.378Z" fill="#EF4156"/>
<path fill-rule="evenodd" clip-rule="evenodd" d="M151.963 241.672L128.456 245.395L118.239 279.331L109.097 248.461L86.6966 252.009L107.613 309.788L107.097 342.329L128.53 338.935L129.096 305.818L151.963 241.672ZM142.88 308.323L142.153 350.773L93.0141 358.556L93.7503 312.107L68 240.974L172.805 224.374L167.2 240.097C165.071 241.459 163.154 243.105 161.442 245.051C154.055 253.443 150.482 267.402 150.081 288.121L142.88 308.323Z" fill="#EF4156"/>
<path fill-rule="evenodd" clip-rule="evenodd" d="M690.371 98.2253L689.718 85.3408L689.853 75.8048L689.24 75.9019L688.599 63.2389L689.381 62.9808C689.097 61.0946 688.741 59.3135 688.315 57.6377L686.486 21.5191L740.274 13.0001L733.677 96.9996C736.3 100.439 738.129 104.607 738.871 109.289C741.232 124.199 731.662 137.609 716.695 139.98C702.369 142.249 689.62 133.371 686.483 119.532C686.911 118.839 687.313 118.126 687.686 117.396C688.309 116.178 688.855 114.909 689.318 113.594L689.517 99.5518C689.788 99.1009 690.073 98.6585 690.371 98.2253ZM703.919 92.4291L700.921 33.2292L725.12 29.3966L720.374 89.8229L703.919 92.4291ZM701.264 106.846C699.845 109.298 699.268 112.287 699.774 115.481C700.957 122.948 707.204 127.487 714.532 126.326C721.861 125.165 726.4 118.919 725.217 111.452C724.711 108.257 723.239 105.593 721.131 103.699C718.405 101.249 714.615 100.09 710.481 100.745C708.634 101.038 706.964 101.653 705.518 102.527C703.728 103.61 702.28 105.09 701.264 106.846Z" fill="#EF4156"/>
<path fill-rule="evenodd" clip-rule="evenodd" d="M651.183 87.5995C651.076 92.1456 651.118 96.0406 651.328 99.3411C651.875 107.942 653.566 112.506 656.76 114.036C658.018 114.639 659.508 114.772 661.254 114.495C663.191 114.188 664.842 113.525 666.176 112.545C666.937 111.986 667.595 111.325 668.145 110.569L668.452 98.1884L660.432 99.4586L660.677 80.4259L689.854 75.8048L689.319 113.594C685.408 124.702 675.586 132.495 663.28 134.444C640.602 138.036 628.848 122.888 629.473 91.0379C630.09 57.3466 639.035 41.3301 658.808 38.1983C675.905 35.4905 686.089 43.4312 689.211 61.9103C689.27 62.2633 689.327 62.6201 689.382 62.9807L670.388 69.2491C670.163 67.6622 669.882 66.2573 669.538 65.0261C669.023 63.1792 668.366 61.7232 667.544 60.6304C665.898 58.4426 663.589 57.7108 660.419 58.2127C656.427 58.845 654.099 61.2803 652.761 67.6833C652.102 70.8401 651.684 74.9614 651.426 80.3065C651.319 82.5212 651.24 84.9461 651.183 87.5995ZM703.548 85.0885L703.276 104.26C700.829 106.649 699.465 110.001 699.604 113.739C699.625 114.312 699.681 114.893 699.774 115.481C699.881 116.155 700.029 116.805 700.215 117.43C700.537 118.506 700.972 119.505 701.506 120.416C695.286 135.49 681.535 145.549 665.442 148.098C650.405 150.479 636.233 146.738 626.728 134.521C624.605 131.792 622.834 128.784 621.376 125.543L622.637 50.964C623.323 49.4015 624.068 47.8932 624.875 46.4412C631.852 33.8918 642.827 26.7332 656.646 24.5445C667.846 22.7707 679.155 24.2335 688.243 31.5992C695.693 37.6376 699.893 46.2419 702.057 55.6609L703.548 85.0885Z" fill="#EF4156"/>
<path fill-rule="evenodd" clip-rule="evenodd" d="M587.494 37.1982L636.828 29.3844L636.409 54.1825C631.989 62.7411 629.77 74.8491 629.473 91.038C629.208 104.555 631.172 115.064 635.255 122.409L634.768 151.255L603.317 156.236L596.655 146.161L596.495 157.317L547.168 165.13L547.405 151.096L551.103 150.51L552.688 56.7072L548.991 57.2928L549.228 43.2589L580.527 38.3017L587.337 48.5704L587.494 37.1982ZM600.544 93.4937L573.916 53.345L562.854 55.0971L561.268 148.9L582.839 145.483L583.473 101.159L609.941 141.191L621.142 139.417L622.727 45.614L601.156 49.0306L600.544 93.4937Z" fill="#EF4156"/>
<path fill-rule="evenodd" clip-rule="evenodd" d="M516.143 136.203L523.013 135.115L522.76 154.999L515.806 156.1L515.569 170.134L564.728 162.348L564.965 148.314L561.268 148.9L562.853 55.097L566.551 54.5114L566.788 40.4775L517.629 48.2635L517.392 62.2974L523.378 61.3494L523.28 70.5783L516.976 86.8957L516.143 136.203ZM529.669 153.905L551.102 150.51L552.688 56.7071L531.255 60.1017L529.669 153.905Z" fill="#EF4156"/>
<path fill-rule="evenodd" clip-rule="evenodd" d="M530.757 89.5857L531.255 60.1017L537.226 59.156L537.374 45.1363L458.555 57.62L458.36 71.6472L465.583 70.5032L465.485 79.7321L457.977 99.1657L457.89 105.42L474.352 102.813L457.168 145.543L465.217 144.269L464.965 164.153L454.57 165.799L454.421 179.819L536.435 166.829L536.613 152.805L529.67 153.905L530.243 119.973L518.285 121.867L530.757 89.5857ZM496.74 139.276L523.28 70.5782L523.378 61.3493L472.215 69.4527L471.941 89.1987L496.278 85.3441L468.515 154.377L468.417 163.606L522.76 154.999L523.013 135.115L496.74 139.276Z" fill="#EF4156"/>
<path fill-rule="evenodd" clip-rule="evenodd" d="M476.954 88.4046L471.941 89.1986L472.215 69.4526L479.43 68.3099L479.579 54.2901L400.759 66.7738L400.564 80.801L407.787 79.657L407.69 88.8859L400.182 108.32L400.095 114.574L416.557 111.967L399.372 154.697L407.422 153.422L407.17 173.307L396.774 174.953L396.626 188.973L478.64 175.983L478.818 161.959L468.418 163.606L468.515 154.377L479.093 128.074L460.49 131.021L476.954 88.4046ZM438.945 148.43L465.485 79.732L465.583 70.5031L414.42 78.6065L414.146 98.3525L438.483 94.498L410.72 163.531L410.622 172.76L464.965 164.153L465.217 144.268L438.945 148.43Z" fill="#EF4156"/>
<path fill-rule="evenodd" clip-rule="evenodd" d="M419.159 97.5584L414.146 98.3524L414.42 78.6064L421.635 77.4637L421.783 63.4439L342.964 75.9276L342.3 123.728L358.762 121.121L344.888 155.619L352.566 181.955L338.979 184.107L338.831 198.127L420.845 185.137L421.023 171.112L410.622 172.76L410.72 163.531L421.298 137.228L402.695 140.175L419.159 97.5584ZM381.15 157.583L407.69 88.8858L407.787 79.657L356.625 87.7603L356.351 107.506L380.687 103.652L352.925 172.685L352.827 181.914L407.17 173.307L407.422 153.422L381.15 157.583Z" fill="#EF4156"/>
<path fill-rule="evenodd" clip-rule="evenodd" d="M320.161 200.124L319.943 201.118L266.512 209.581L270.908 194.889L282.002 193.131L282.634 155.69L304.682 81.9911L336.36 76.9738L359.498 156.341L352.925 172.685L352.827 181.914L366.33 179.775L370.23 193.154L320.338 201.056L320.161 200.124ZM352.566 181.955L331.409 185.306L329.731 176.5L310.511 179.544L308.456 188.942L286.055 192.489L315.434 94.2845L326.496 92.5324L352.566 181.955ZM320.802 133.548L314.36 161.784L326.528 159.856L320.802 133.548Z" fill="#EF4156"/>
<path fill-rule="evenodd" clip-rule="evenodd" d="M263.351 88.5372L297.687 83.0989L296.424 157.828L286.055 192.489L295.865 190.936L295.627 204.97L199.316 220.224L199.553 206.19L209.698 204.583L200.135 171.78L201.376 98.3531L233.468 93.2703L247.899 119.339L263.351 88.5372ZM248.5 148.968L226.064 108.439L215.002 110.191L213.416 203.994L234.849 200.6L235.538 163.779L245.138 180.543L252.605 179.36L261.186 162.835L260.569 196.526L282.001 193.131L283.587 99.3285L272.525 101.081L248.5 148.968Z" fill="#EF4156"/>
<path fill-rule="evenodd" clip-rule="evenodd" d="M177.293 222.752L177.075 223.746L123.645 232.209L161.815 104.619L193.492 99.6018L213.992 169.921L213.416 203.994L223.462 202.403L227.362 215.782L177.471 223.684L177.293 222.752ZM209.698 204.583L188.542 207.934L186.864 199.128L167.643 202.172L165.588 211.569L143.187 215.117L172.566 116.912L183.628 115.16L209.698 204.583ZM177.934 156.176L171.492 184.411L183.66 182.484L177.934 156.176Z" fill="#EF4156"/>
<path d="M647.289 424.769L654.993 423.549L654.427 457.05L650.427 457.684L640.974 443.386L640.748 459.217L633.044 460.437L633.61 426.936L637.561 426.31L647.071 440.649L647.289 424.769Z" fill="white"/>
<path d="M621.759 462.224L622.325 428.723L629.979 427.511L629.413 461.012L621.759 462.224Z" fill="white"/>
<path d="M612.875 463.631L612.276 460.487L605.411 461.574L604.677 464.93L596.677 466.197L607.17 431.124L611.12 430.498L620.431 462.435L612.875 463.631ZM611.132 454.542L609.087 445.147L606.786 455.231L611.132 454.542Z" fill="white"/>
<path d="M587.298 468.29C579.199 469.573 575.001 464.163 575.224 452.788C575.444 440.755 578.639 435.035 585.701 433.916C591.923 432.931 595.582 435.895 596.62 442.767L589.837 445.006C589.393 441.887 588.35 440.736 586.276 441.064C583.856 441.448 583.148 443.686 582.977 451.56C582.802 459.08 583.759 461.611 586.574 461.165C587.661 460.993 588.495 460.507 589.035 459.763L589.145 455.341L586.281 455.795L586.368 448.998L596.789 447.347L596.597 460.843C595.201 464.811 591.693 467.594 587.298 468.29Z" fill="white"/>
<path d="M567.879 470.758L567.28 467.613L560.415 468.7L559.681 472.056L551.681 473.323L562.173 438.25L566.124 437.625L575.435 469.561L567.879 470.758ZM566.136 461.669L564.091 452.273L561.79 462.357L566.136 461.669Z" fill="white"/>
<path d="M546.471 440.737L538.304 463.647L538.102 475.474L530.447 476.687L530.632 465.065L523.162 444.429L531.162 443.162L534.427 454.187L538.076 442.067L546.471 440.737Z" fill="white"/>
<path d="M519.025 478.496L518.426 475.351L511.561 476.438L510.827 479.794L502.827 481.061L513.319 445.988L517.27 445.362L526.581 477.299L519.025 478.496ZM517.282 469.407L515.237 460.011L512.936 470.095L517.282 469.407Z" fill="white"/>
<path d="M486.771 483.604L487.337 450.103L494.992 448.891L494.516 475.29L502.813 473.976L502.722 481.078L486.771 483.604Z" fill="white"/>
<path d="M463.188 487.339L463.755 453.838L473.039 452.368C479.508 451.343 483.661 454.229 484.639 460.402C485.828 467.909 481.398 473.824 473.645 475.052L471.028 475.467L470.843 486.127L463.188 487.339ZM471.126 468.415L473.299 468.071C475.916 467.656 477.324 465.357 476.831 462.246C476.487 460.073 475.311 459.045 473.435 459.342L471.262 459.686L471.126 468.415Z" fill="white"/>
<path d="M450.144 476.446L438.144 478.346L432.87 478.929L441.344 485.129L437.396 490.564L420.97 478.586L420.743 477.154L432.614 460.694L438.098 464.635L432.196 472.758L437.096 471.729L449.104 469.878L450.144 476.446Z" fill="white"/>
</svg>
