<svg width="880" height="160" viewBox="0 0 880 160" fill="none" xmlns="http://www.w3.org/2000/svg">
<rect width="880" height="160" rx="30" fill="#009CDD"/>
<path d="M140.795 53.5H153.47L130.67 103H124.67L122.345 80.275L112.07 103H106.07L100.745 53.5H112.67L113.945 76.225L123.845 53.5H129.62L131.495 76.375L140.795 53.5ZM164.312 103L164.162 98.2H153.737L151.862 103H139.712L163.487 53.5H169.487L175.787 103H164.312ZM163.862 89.125L163.037 74.725L157.262 89.125H163.862ZM181.198 103L188.023 64.075H178.498L180.373 53.5H211.048L209.173 64.075H199.648L192.823 103H181.198ZM221.984 103.9C210.434 103.9 205.634 94.675 208.634 78.025C211.784 60.325 217.859 52.6 228.509 52.6C237.584 52.6 242.084 58.15 242.009 69.1L231.509 70.75C231.584 65.5 230.459 63.325 227.684 63.325C224.084 63.325 222.509 66.475 220.409 78.175C218.534 88.675 219.284 93.175 223.034 93.175C225.434 93.175 227.159 91.225 228.734 86.65L238.484 90.1C235.184 99.625 230.009 103.9 221.984 103.9ZM239.693 103L248.393 53.5H260.018L256.793 71.95H266.018L269.243 53.5H280.868L272.168 103H260.543L264.143 82.525H254.918L251.318 103H239.693ZM292.72 103L301.42 53.5H313.045L306.145 92.5H318.745L316.945 103H292.72ZM320.479 103L329.179 53.5H354.229L352.429 63.925H339.004L337.504 72.325H347.404L345.679 82.075H335.779L333.904 92.5H348.079L346.279 103H320.479ZM367.61 103.9C355.31 103.9 350.36 94.9 353.36 78.1C356.51 60.325 362.585 52.6 373.31 52.6C382.76 52.6 387.485 57.85 387.41 68.275L376.835 70C376.91 65.275 375.635 63.325 372.485 63.325C368.81 63.325 367.235 66.475 365.135 78.1C363.11 89.2 363.935 93.175 368.21 93.175C369.86 93.175 371.21 92.65 372.185 91.675L373.385 85.15H369.035L370.76 75.1H386.585L383.135 95.05C380.135 100.6 374.285 103.9 367.61 103.9ZM402.159 103.9C390.609 103.9 385.809 94.675 388.809 78.025C391.959 60.25 398.034 52.6 408.909 52.6C420.684 52.6 425.334 61.45 422.409 78.175C419.259 96.025 413.034 103.9 402.159 103.9ZM403.209 93.175C406.884 93.175 408.684 89.5 410.634 78.1C412.434 67.45 411.684 63.325 407.859 63.325C404.259 63.325 402.684 66.475 400.584 78.175C398.709 88.675 399.459 93.175 403.209 93.175ZM437.227 103L445.927 53.5H457.777C471.052 53.5 477.277 62.875 474.427 78.775C471.427 95.575 464.002 103 451.027 103H437.227ZM450.802 92.5H452.527C457.327 92.5 460.702 89.125 462.652 78.175C464.452 67.975 462.577 64 457.477 64H455.752L450.802 92.5ZM512.388 68.125C512.388 75.55 509.013 81.4 503.463 84.55L508.488 103H496.938L492.888 87.25H492.663H488.688L485.913 103H474.288L482.988 53.5H497.088C506.913 53.5 512.388 58.75 512.388 68.125ZM492.738 63.925L490.488 76.825H493.788C497.763 76.825 500.388 73.75 500.388 69.025C500.388 65.725 498.888 63.925 496.038 63.925H492.738ZM511.714 103L520.414 53.5H545.464L543.664 63.925H530.239L528.739 72.325H538.639L536.914 82.075H527.014L525.139 92.5H539.314L537.514 103H511.714ZM563.701 103L563.551 98.2H553.126L551.251 103H539.101L562.876 53.5H568.876L575.176 103H563.701ZM563.251 89.125L562.426 74.725L556.651 89.125H563.251ZM617.093 53.5H623.093L614.393 103H602.768L605.918 85.225L599.993 93.25H595.943L592.268 83.575L588.818 103H577.193L585.893 53.5H591.893L600.368 76.825L617.093 53.5ZM655.741 53.5L654.916 58.375L635.116 92.5H649.366L647.566 103H618.091L618.916 98.125L639.391 63.925H626.191L627.991 53.5H655.741ZM680.189 65.5L679.289 70.375L663.614 93.775H675.389L673.814 103H648.764L649.589 98.2L665.264 74.725H654.689L656.339 65.5H680.189ZM705.751 65.5L704.851 70.375L689.176 93.775H700.951L699.376 103H674.326L675.151 98.2L690.826 74.725H680.251L681.901 65.5H705.751ZM733.127 103.9C723.677 103.9 718.277 98.95 717.377 89.275L727.802 86.95C728.252 91.6 729.677 93.325 733.052 93.325C735.227 93.325 736.952 91.9 736.952 90.025C736.952 88.375 736.352 87.325 733.652 84.175L730.802 80.875C725.627 74.95 723.752 71.425 723.752 67.525C723.752 58.675 729.977 52.6 738.902 52.6C747.602 52.6 752.402 57.025 753.602 66.175L743.402 69.025C742.652 64.525 741.602 63.175 738.827 63.175C736.952 63.175 735.527 64.6 735.527 66.325C735.527 67.9 736.277 69.4 738.377 71.875L741.227 75.25C746.852 81.85 748.652 85.225 748.652 89.125C748.652 97.825 742.277 103.9 733.127 103.9ZM771.559 88.6L767.434 93.775H778.609L777.034 103H749.734L750.559 98.2L764.284 81.025C770.359 73.375 772.084 70 772.084 65.575C772.084 63.85 771.184 62.8 769.684 62.8C767.884 62.8 766.609 65.275 766.609 68.8V70.975H755.959V69.25C755.959 59.275 761.659 52.6 770.134 52.6C778.084 52.6 783.559 57.475 783.559 64.6C783.559 71.05 780.184 77.8 771.559 88.6Z" fill="white"/>
</svg>
