<svg width="915" height="263" viewBox="0 0 915 263" fill="none" xmlns="http://www.w3.org/2000/svg">
<rect x="914.76" y="262.994" width="914.76" height="262.993" rx="30" transform="rotate(-180 914.76 262.994)" fill="#009CDD"/>
<path d="M306.838 56.285H321.676L294.985 114.233H287.961L285.239 87.6298L273.21 114.233H266.186L259.952 56.285H273.913L275.405 82.8886L286.995 56.285H293.756L295.951 83.0642L306.838 56.285ZM337.325 70.3331H349.09L341.364 114.233H329.598L330.213 110.809C327.93 113.882 325.208 115.287 321.784 115.287C313.531 115.287 310.37 107.122 312.916 92.4588C315.726 76.6547 320.906 69.2795 329.423 69.2795C333.11 69.2795 335.481 70.6843 336.71 73.7573L337.325 70.3331ZM327.491 103.346C329.774 103.346 330.915 100.712 332.408 92.1954C333.9 83.591 333.549 81.2204 331.003 81.2204C328.808 81.2204 327.667 83.8544 326.174 92.2832C324.594 101.063 324.857 103.346 327.491 103.346ZM368.23 81.1326L365.157 98.5171C364.981 99.5707 364.893 100.097 364.893 100.976C364.893 102.907 366.474 103.961 369.371 103.961C370.074 103.961 370.952 103.873 371.742 103.785L369.898 114.672C368.844 115.024 366.913 115.287 364.542 115.287C357.079 115.287 351.548 110.458 351.548 104.049C351.548 103.171 351.723 101.327 351.987 99.8341L355.323 81.1326H350.143L352.075 70.3331H357.255L359.099 59.797H372.005L370.161 70.3331H377.273L375.342 81.1326H368.23ZM390.851 115.287C379.437 115.287 373.905 106.244 376.539 91.932C379.437 76.0401 385.056 69.2795 395.504 69.2795C404.548 69.2795 408.938 74.2841 409.026 84.7324L397.611 86.4006C397.524 82.3618 396.909 81.1326 395.065 81.1326C392.519 81.1326 391.29 83.7666 389.797 92.2832C388.305 100.888 388.568 103.434 391.202 103.434C393.046 103.434 394.012 102.38 395.153 99.0439L405.953 102.117C402.704 111.512 398.402 115.287 390.851 115.287ZM434.641 69.2795C440.962 69.2795 445.352 74.0207 445.352 80.7814C445.352 82.8008 445.177 83.591 444.826 85.6104L439.733 114.233H426.826L431.655 86.4006C431.831 85.4348 431.919 84.5568 431.919 84.1178C431.919 82.4496 430.777 81.3082 429.021 81.3082C427.617 81.3082 426.036 82.5374 425.685 84.5568L420.505 114.233H407.598L419.188 48.3829H432.094L427.88 72.0013C429.812 70.1575 432.007 69.2795 434.641 69.2795ZM463.172 114.233L473.357 56.285H486.966L478.888 101.941H493.639L491.531 114.233H463.172ZM495.668 114.233L505.853 56.285H535.179L533.071 68.4893H517.355L515.599 78.3229H527.189L525.169 89.737H513.58L511.385 101.941H527.979L525.872 114.233H495.668ZM550.843 115.287C536.444 115.287 530.649 104.751 534.161 85.0836C537.849 64.2749 544.961 55.2314 557.516 55.2314C568.579 55.2314 574.111 61.3774 574.023 73.5817L561.643 75.6011C561.731 70.0697 560.238 67.7869 556.55 67.7869C552.248 67.7869 550.404 71.4745 547.946 85.0836C545.575 98.0781 546.541 102.732 551.546 102.732C553.477 102.732 555.058 102.117 556.199 100.976L557.604 93.3369H552.512L554.531 81.5716H573.057L569.018 104.927C565.506 111.424 558.658 115.287 550.843 115.287ZM591.289 115.287C577.768 115.287 572.149 104.488 575.661 84.9958C579.348 64.187 586.46 55.2314 599.191 55.2314C612.976 55.2314 618.42 65.5919 614.995 85.1714C611.308 106.068 604.02 115.287 591.289 115.287ZM592.519 102.732C596.821 102.732 598.928 98.4293 601.211 85.0836C603.318 72.6159 602.44 67.7869 597.962 67.7869C593.748 67.7869 591.904 71.4745 589.446 85.1714C587.25 97.4635 588.129 102.732 592.519 102.732ZM644.266 53.212C655.768 53.212 663.846 61.3774 663.846 73.1427C663.846 87.542 653.485 98.7805 640.227 98.7805C628.55 98.7805 620.384 90.5272 620.384 78.762C620.384 64.4505 630.92 53.212 644.266 53.212ZM640.754 92.81C650.149 92.81 657.261 84.3812 657.261 73.2305C657.261 64.6261 651.992 59.1824 643.739 59.1824C634.169 59.1824 626.969 67.6113 626.969 78.6742C626.969 87.2786 632.325 92.81 640.754 92.81ZM650.588 71.9135C650.588 75.0743 649.358 77.6205 647.163 79.201L649.71 87.0152H643.564L641.632 80.957H641.105H639.613L638.559 87.0152H632.589L636.452 64.9773H643.3C647.954 64.9773 650.588 67.5235 650.588 71.9135ZM641.456 70.4209L640.578 75.4255H641.808C643.3 75.4255 644.354 74.1963 644.354 72.4403C644.354 71.1233 643.827 70.4209 642.686 70.4209H641.456ZM131.519 202.233L141.704 144.285H155.576C171.117 144.285 178.404 155.26 175.068 173.874C171.556 193.541 162.864 202.233 147.674 202.233H131.519ZM147.411 189.941H149.43C155.049 189.941 159 185.99 161.283 173.171C163.39 161.231 161.195 156.577 155.225 156.577H153.205L147.411 189.941ZM219.507 161.406C219.507 170.098 215.556 176.947 209.059 180.634L214.942 202.233H201.42L196.679 183.795H196.416H191.762L188.514 202.233H174.905L185.089 144.285H201.596C213.098 144.285 219.507 150.431 219.507 161.406ZM196.503 156.489L193.869 171.591H197.733C202.386 171.591 205.459 167.991 205.459 162.46C205.459 158.596 203.703 156.489 200.367 156.489H196.503ZM218.719 202.233L228.904 144.285H258.229L256.122 156.489H240.406L238.65 166.323H250.24L248.22 177.737H236.63L234.435 189.941H251.03L248.923 202.233H218.719ZM279.579 202.233L279.403 196.614H267.199L265.004 202.233H250.78L278.613 144.285H285.637L293.012 202.233H279.579ZM279.052 185.99L278.086 169.133L271.325 185.99H279.052ZM342.083 144.285H349.107L338.922 202.233H325.313L329.001 181.425L322.065 190.819H317.323L313.021 179.493L308.982 202.233H295.373L305.558 144.285H312.582L322.504 171.591L342.083 144.285ZM387.328 144.285L386.362 149.992L363.183 189.941H379.865L377.758 202.233H343.252L344.218 196.526L368.187 156.489H352.734L354.842 144.285H387.328ZM415.948 158.333L414.894 164.04L396.544 191.434H410.329L408.485 202.233H379.16L380.125 196.614L398.476 169.133H386.096L388.027 158.333H415.948ZM445.872 158.333L444.819 164.04L426.468 191.434H440.253L438.409 202.233H409.084L410.05 196.614L428.4 169.133H416.02L417.952 158.333H445.872ZM470.529 144.197L469.036 152.802H463.592L459.378 176.508H449.193L453.407 152.802H447.964L449.456 144.197H470.529ZM494.41 144.285H500.205L494.498 176.508H485.016L486.859 166.06L483.523 170.537H481.152L478.957 164.743L476.85 176.508H467.28L472.987 144.285H478.957L484.225 158.157L494.41 144.285ZM531.51 203.287C520.447 203.287 514.126 197.492 513.072 186.166L525.276 183.444C525.803 188.888 527.471 190.907 531.422 190.907C533.969 190.907 535.988 189.239 535.988 187.044C535.988 185.112 535.286 183.883 532.125 180.195L528.788 176.332C522.73 169.396 520.535 165.269 520.535 160.704C520.535 150.343 527.823 143.231 538.271 143.231C548.456 143.231 554.075 148.412 555.48 159.123L543.539 162.46C542.661 157.192 541.432 155.611 538.183 155.611C535.988 155.611 534.32 157.279 534.32 159.299C534.32 161.143 535.198 162.899 537.656 165.796L540.993 169.747C547.578 177.474 549.685 181.425 549.685 185.99C549.685 196.175 542.222 203.287 531.51 203.287ZM584.228 185.024H565.966C565.702 190.205 566.844 192.049 570.005 192.049C572.375 192.049 573.956 191.171 575.887 188.712L582.56 196.351C578.521 201.092 574.043 203.287 568.161 203.287C557.098 203.287 551.654 194.244 554.113 180.02C556.922 164.128 562.541 157.279 572.726 157.279C581.506 157.279 585.896 162.548 585.896 173.171C585.896 176.859 585.37 180.283 584.228 185.024ZM572.112 167.903C569.653 167.903 568.6 169.659 567.283 176.332H574.219C574.658 174.313 574.834 172.732 574.834 171.328C574.834 169.045 573.956 167.903 572.112 167.903ZM613.073 158.333H624.839L617.112 202.233H605.347L605.962 198.809C603.679 201.882 600.957 203.287 597.533 203.287C589.28 203.287 586.119 195.122 588.665 180.459C591.475 164.655 596.655 157.279 605.171 157.279C608.859 157.279 611.23 158.684 612.459 161.757L613.073 158.333ZM603.24 191.346C605.523 191.346 606.664 188.712 608.157 180.195C609.649 171.591 609.298 169.22 606.752 169.22C604.557 169.22 603.415 171.854 601.923 180.283C600.342 189.063 600.606 191.346 603.24 191.346ZM637.569 203.375C629.579 203.375 623.697 199.248 621.853 192.312L631.248 187.132C632.565 190.468 634.496 192.136 636.955 192.224C639.062 192.312 640.642 191.083 640.642 189.415C640.642 188.361 639.94 187.395 638.359 186.078L635.199 183.532C629.843 179.23 627.735 175.718 627.735 171.152C627.735 163.074 634.057 157.279 642.925 157.279C650.476 157.279 655.919 160.967 657.851 167.464L648.369 172.645C647.315 169.484 645.735 167.991 643.54 167.991C641.784 167.991 640.467 169.22 640.467 170.801C640.467 171.679 641.257 172.996 642.486 173.962L645.208 176.157C651.178 180.986 653.373 184.41 653.373 189.063C653.373 197.317 646.7 203.375 637.569 203.375ZM671.74 203.287C660.589 203.287 655.058 194.156 657.692 179.844C660.502 164.304 666.296 157.279 676.393 157.279C687.544 157.279 693.076 166.411 690.442 180.547C687.456 196.439 681.837 203.287 671.74 203.287ZM672.355 191.434C674.462 191.434 675.691 188.624 677.184 180.371C678.764 171.679 678.413 169.133 675.779 169.133C673.584 169.133 672.442 171.767 670.95 180.283C669.457 188.976 669.721 191.434 672.355 191.434ZM718.106 157.279C724.428 157.279 728.818 162.021 728.818 168.781C728.818 170.713 728.642 171.503 728.291 173.61L723.199 202.233H710.292L715.121 174.401C715.297 173.435 715.385 172.557 715.385 172.118C715.385 170.45 714.243 169.308 712.487 169.308C710.994 169.308 709.502 170.537 709.151 172.557L703.97 202.233H691.064L698.79 158.333H710.555L710.029 161.494C712.224 158.509 714.77 157.279 718.106 157.279ZM771.309 185.376L766.48 191.434H779.563L777.719 202.233H745.759L746.725 196.614L762.793 176.508C769.905 167.552 771.924 163.601 771.924 158.421C771.924 156.401 770.87 155.172 769.114 155.172C767.007 155.172 765.515 158.07 765.515 162.196V164.743H753.047V162.723C753.047 151.046 759.72 143.231 769.641 143.231C778.948 143.231 785.357 148.938 785.357 157.279C785.357 164.83 781.406 172.732 771.309 185.376Z" fill="white"/>
</svg>
