<svg width="697" height="435" viewBox="0 0 697 435" fill="none" xmlns="http://www.w3.org/2000/svg">
<path d="M696.423 177.922L690.272 163.314L688.35 150.821C681.815 137.944 671.629 126.604 658.367 118.723C627.23 100.08 588.405 105.077 563.034 128.526C557.46 120.645 541.7 99.8875 528.053 92.1994C525.939 90.6618 524.017 89.1242 521.903 87.5866C504.989 76.0544 486.153 68.9429 467.125 66.0599L467.894 65.0989C468.471 64.3301 468.471 63.3691 467.894 62.7925C465.588 59.3329 448.289 34.731 433.49 26.4663C431.568 24.9287 429.646 23.5832 427.724 22.2378C371.408 -16.2027 294.335 -1.59527 255.895 54.72C250.705 62.4081 247.822 71.0572 244.363 79.5141C244.17 80.2829 242.633 76.8233 242.248 77.3999C241.672 78.7453 237.828 92.3917 236.482 99.5032C233.215 98.9266 226.872 98.5422 226.872 98.5422C226.872 98.5422 224.566 97.0045 221.875 96.4279C194.006 92.0073 166.136 95.8514 141.342 106.23L118.278 125.066L96.7513 135.061C76.9544 153.512 61.9627 177.537 54.4668 205.599C50.0461 222.128 48.7008 238.85 49.854 254.995C34.2856 261.338 20.6393 272.485 11.4135 287.861C-7.03788 318.614 -2.42506 356.67 20.2548 382.233L23.5223 383.194L35.0544 395.303C36.2076 396.071 37.553 396.84 38.7062 397.609C72.3416 417.79 115.203 410.294 140.189 381.656C146.724 384.347 153.451 386.846 160.37 388.575C188.816 396.071 217.454 395.11 243.594 386.846C251.282 396.648 260.508 405.489 271.271 412.793C305.867 436.434 348.344 439.893 384.863 426.055C388.13 426.247 392.551 424.325 396.395 422.403C403.698 418.559 410.618 413.946 417.153 408.757C419.459 407.027 419.267 404.913 422.919 401.453C426.571 397.993 428.3 398.762 430.607 396.456C442.139 384.155 451.172 370.316 457.131 355.132C463.089 361.475 469.816 367.241 477.312 372.238C511.908 395.879 554.385 399.339 590.904 385.5C594.171 385.692 598.592 383.77 602.436 381.848C609.739 378.004 616.659 373.391 623.194 368.202C625.5 366.472 625.308 364.358 628.96 360.898C632.612 357.439 634.341 358.207 636.648 355.901C654.907 336.489 666.824 312.848 670.668 287.477C670.86 286.516 670.283 285.747 669.514 285.171C671.052 272.87 670.668 260.569 668.361 248.46C674.896 242.886 680.854 236.159 685.467 228.471C686.236 227.318 687.773 223.089 687.773 223.089C687.773 223.089 688.927 222.128 689.503 220.783C696.038 206.944 698.152 192.145 696.423 177.922Z" fill="#E74250"/>
<path d="M510.924 316.094C500.47 317.749 493.629 313.22 490.938 302.675L502.063 298.276C503.376 303.341 505.254 305 508.988 304.409C511.394 304.027 513.052 302.149 512.724 300.075C512.435 298.25 511.587 297.193 508.048 294.182L504.318 291.03C497.555 285.383 494.863 281.812 494.18 277.498C492.629 267.708 498.451 259.897 508.324 258.333C517.948 256.809 524.033 260.863 526.964 270.774L516.18 275.714C514.562 270.868 513.163 269.558 510.094 270.044C508.02 270.373 506.693 272.199 506.995 274.107C507.271 275.85 508.364 277.377 511.12 279.747L514.864 282.981C522.243 289.297 524.826 292.715 525.509 297.029C527.033 306.653 521.045 314.49 510.924 316.094Z" fill="white"/>
<path d="M459.397 323.234L460.348 266.953L488.059 262.564L487.894 274.411L473.043 276.764L472.856 286.319L483.807 284.584L483.607 295.672L472.656 297.406L472.408 309.267L488.089 306.784L487.937 318.714L459.397 323.234Z" fill="white"/>
<path d="M454.032 284.537C455.332 292.751 452.624 299.813 447.036 304.27L455.828 323.8L443.051 325.823L435.811 309.11L435.562 309.149L431.165 309.846L430.855 327.755L417.995 329.792L418.947 273.51L434.544 271.039C445.413 269.318 452.389 274.166 454.032 284.537ZM431.559 283.334L431.33 297.998L434.98 297.42C439.378 296.724 441.743 292.862 440.915 287.635C440.337 283.985 438.362 282.256 435.209 282.756L431.559 283.334Z" fill="white"/>
<path d="M396.512 334.215C386.059 335.87 377.995 330.599 376.484 321.058C376.286 319.813 376.229 318.377 376.259 316.416L376.896 280.17L389.756 278.133L389.119 315.995C389.08 317.362 389.103 318.039 389.195 318.62C389.628 321.357 391.646 322.824 394.467 322.377C397.371 321.917 399.156 319.763 399.238 316.519L399.878 276.53L412.821 274.48L412.08 314.91C411.928 325.225 405.722 332.756 396.512 334.215Z" fill="white"/>
<path d="M348.832 340.746L349.561 296.491L339.025 298.16L339.246 286.133L373.179 280.759L372.958 292.786L362.421 294.454L361.691 338.71L348.832 340.746Z" fill="white"/>
<path d="M330.151 343.705L329.144 338.421L317.612 340.248L316.379 345.886L302.938 348.015L320.566 289.092L327.203 288.041L342.845 341.694L330.151 343.705ZM327.222 328.435L323.787 312.65L319.921 329.591L327.222 328.435Z" fill="white"/>
<path d="M272.643 352.813L273.594 296.531L301.305 292.142L301.14 303.99L286.289 306.342L286.102 315.897L297.053 314.163L296.853 325.25L285.902 326.985L285.654 338.846L301.335 336.362L301.183 348.293L272.643 352.813Z" fill="white"/>
<path d="M267.277 314.116C268.578 322.33 265.87 329.393 260.282 333.849L269.074 353.379L256.297 355.402L249.057 338.689L248.808 338.728L244.411 339.425L244.101 357.334L231.241 359.371L232.192 303.089L247.79 300.619C258.658 298.897 265.635 303.746 267.277 314.116ZM244.804 312.913L244.576 327.577L248.226 326.999C252.623 326.303 254.988 322.441 254.161 317.214C253.582 313.564 251.608 311.835 248.455 312.335L244.804 312.913Z" fill="white"/>
<path d="M211.808 363.469C199.032 365.493 192.106 356.129 192.507 337.185C192.89 317.053 198.257 307.443 210.038 305.577C220.077 303.987 226.028 309.338 227.863 321.464L216.537 325.129C215.7 319.309 214.075 317.1 211.005 317.586C207.022 318.217 205.832 321.977 205.559 335.288C205.324 347.231 206.943 352.078 211.091 351.421C213.746 351 215.312 348.541 216.253 343.204L227.643 345.312C225.661 356.427 220.686 362.063 211.808 363.469Z" fill="white"/>
<path d="M617.641 223.248L618.593 166.967L646.303 162.578L646.139 174.425L631.288 176.778L631.1 186.332L642.052 184.598L641.852 195.686L630.9 197.42L630.653 209.281L646.333 206.797L646.182 218.728L617.641 223.248Z" fill="white"/>
<path d="M612.276 184.551C613.577 192.765 610.868 199.828 605.281 204.285L614.072 223.814L601.295 225.837L594.056 209.124L593.807 209.164L589.41 209.86L589.099 227.769L576.24 229.806L577.191 173.524L592.789 171.054C603.657 169.332 610.633 174.181 612.276 184.551ZM589.803 183.348L589.574 198.012L593.225 197.434C597.622 196.738 599.987 192.876 599.159 187.649C598.581 183.999 596.606 182.271 593.453 182.77L589.803 183.348Z" fill="white"/>
<path d="M561.315 232.17L560.308 226.886L548.776 228.713L547.543 234.351L534.102 236.48L551.73 177.557L558.367 176.505L574.009 230.159L561.315 232.17ZM558.386 216.9L554.951 201.115L551.085 218.056L558.386 216.9Z" fill="white"/>
<path d="M525.984 181.634L532.622 180.583L531.67 236.865L518.811 238.902L519.181 218.687L514.033 228.602L509.552 229.312L503.792 219.253L503.379 241.346L490.519 243.383L491.47 187.101L498.108 186.05L511.57 210.367L525.984 181.634Z" fill="white"/>
<path d="M463.406 247.677L464.136 203.422L453.599 205.091L453.82 193.064L487.753 187.69L487.532 199.716L476.995 201.385L476.265 245.64L463.406 247.677Z" fill="white"/>
<path d="M413.225 255.625L414.176 199.343L427.036 197.306L426.701 218.281L436.906 216.664L437.241 195.69L450.1 193.653L449.149 249.935L436.289 251.972L436.684 228.691L426.479 230.307L426.084 253.588L413.225 255.625Z" fill="white"/>
<path d="M393.167 259.822C379.561 261.977 372.508 252.889 372.884 233.779C373.254 213.564 378.621 203.954 390.485 202.075C400.938 200.419 407.085 205.399 408.829 216.944L397.433 220.705C396.688 215.465 394.936 213.532 391.451 214.084C387.386 214.727 386.195 218.488 385.909 231.716C385.614 244.349 387.223 248.602 391.952 247.853C393.777 247.564 395.179 246.747 396.086 245.497L396.271 238.069L391.459 238.831L391.606 227.411L409.112 224.639L408.791 247.312C406.445 253.977 400.551 258.653 393.167 259.822Z" fill="white"/>
<path d="M355.052 264.838L356.003 208.557L368.863 206.52L367.911 262.802L355.052 264.838Z" fill="white"/>
<path d="M336.934 211.577L349.877 209.527L348.926 265.809L342.205 266.873L326.324 242.854L325.944 269.449L313.001 271.499L313.953 215.217L320.59 214.166L336.567 238.255L336.934 211.577Z" fill="white"/>
<path d="M262.363 279.519L263.314 223.237L291.025 218.848L290.86 230.696L276.01 233.048L275.822 242.603L286.773 240.869L286.573 251.956L275.622 253.691L275.374 265.552L291.055 263.068L290.903 274.999L262.363 279.519Z" fill="white"/>
<path d="M220.313 286.179L221.264 229.897L234.124 227.86L233.789 248.835L243.994 247.219L244.329 226.244L257.189 224.207L256.237 280.489L243.378 282.526L243.773 259.245L233.568 260.862L233.173 284.142L220.313 286.179Z" fill="white"/>
<path d="M193.199 290.473L193.929 246.218L183.393 247.887L183.614 235.86L217.547 230.486L217.326 242.513L206.789 244.182L206.059 288.437L193.199 290.473Z" fill="white"/>
<path d="M129.245 300.603L130.196 244.321L143.305 242.245C157.99 239.919 166.519 249.199 166.152 267.287C165.777 286.397 158.864 295.912 144.511 298.185L129.245 300.603ZM142.422 286.609L144.33 286.307C149.64 285.466 152.782 281.141 153.021 268.686C153.225 257.088 150.455 253.019 144.813 253.912L142.905 254.215L142.422 286.609Z" fill="white"/>
<path d="M111.128 247.341L124.071 245.291L123.119 301.573L116.399 302.637L100.518 278.618L100.138 305.213L87.1951 307.263L88.1464 250.981L94.7836 249.93L110.761 274.019L111.128 247.341Z" fill="white"/>
<path d="M72.2703 309.627L71.2634 304.343L59.7311 306.17L58.498 311.808L45.0575 313.937L62.6849 255.014L69.3222 253.962L84.9641 307.616L72.2703 309.627ZM69.3415 294.357L65.9059 278.572L62.0405 295.513L69.3415 294.357Z" fill="white"/>
<path d="M621.522 108.164C622.823 116.378 620.115 123.441 614.527 127.898L623.318 147.427L610.542 149.45L603.302 132.737L603.053 132.777L598.656 133.473L598.346 151.382L585.486 153.419L586.437 97.1371L602.035 94.6667C612.903 92.9453 619.88 97.7936 621.522 108.164ZM599.049 106.961L598.821 121.625L602.471 121.047C606.868 120.351 609.233 116.489 608.405 111.262C607.827 107.612 605.853 105.884 602.7 106.383L599.049 106.961Z" fill="#FFF685"/>
<path d="M551.457 158.808L552.408 102.527L580.119 98.1378L579.954 109.985L565.103 112.338L564.916 121.893L575.867 120.158L575.667 131.246L564.716 132.98L564.468 144.841L580.149 142.358L579.997 154.288L551.457 158.808Z" fill="#FFF685"/>
<path d="M509.407 165.469L510.358 109.187L523.218 107.15L522.883 128.125L533.088 126.508L533.423 105.534L546.283 103.497L545.331 159.779L532.472 161.816L532.867 138.535L522.662 140.151L522.267 163.432L509.407 165.469Z" fill="#FFF685"/>
<path d="M450.748 174.759L451.699 118.478L464.559 116.441L464.224 137.416L474.428 135.799L474.763 114.825L487.623 112.788L486.672 169.07L473.812 171.106L474.207 147.826L464.002 149.442L463.607 172.723L450.748 174.759Z" fill="#FFF685"/>
<path d="M431.315 178.858C418.538 180.881 411.612 171.518 412.014 152.574C412.397 132.442 417.764 122.832 429.545 120.966C439.584 119.376 445.534 124.727 447.37 136.853L436.044 140.518C435.207 134.697 433.581 132.488 430.511 132.975C426.529 133.605 425.339 137.366 425.066 150.676C424.831 162.62 426.449 167.467 430.597 166.81C433.252 166.389 434.819 163.93 435.76 158.593L447.15 160.701C445.168 171.816 440.192 177.452 431.315 178.858Z" fill="#FFF685"/>
<path d="M386.04 185.008L386.77 140.753L376.233 142.422L376.455 130.395L410.388 125.021L410.166 137.047L399.63 138.716L398.9 182.971L386.04 185.008Z" fill="#FFF685"/>
<path d="M367.36 187.967L366.353 182.683L354.821 184.51L353.587 190.148L340.147 192.277L357.774 133.354L364.412 132.303L380.054 185.956L367.36 187.967ZM364.431 172.697L360.995 156.912L357.13 173.853L364.431 172.697Z" fill="#FFF685"/>
<path d="M325.015 195.694C312.238 197.718 305.312 188.354 305.714 169.41C306.097 149.278 311.464 139.668 323.245 137.802C333.284 136.212 339.234 141.563 341.07 153.689L329.744 157.354C328.907 151.533 327.281 149.325 324.211 149.811C320.229 150.441 319.039 154.202 318.765 167.513C318.531 179.456 320.149 184.303 324.297 183.646C326.952 183.225 328.519 180.766 329.46 175.429L340.85 177.537C338.868 188.652 333.892 194.288 325.015 195.694Z" fill="#FFF685"/>
<path d="M271.201 204.217C260.748 205.873 253.907 201.343 251.216 190.799L262.341 186.4C263.654 191.465 265.532 193.124 269.266 192.532C271.672 192.151 273.33 190.273 273.002 188.199C272.712 186.373 271.865 185.317 268.326 182.305L264.595 179.154C257.833 173.507 255.141 169.936 254.457 165.622C252.907 155.832 258.729 148.021 268.602 146.457C278.226 144.933 284.311 148.987 287.241 158.898L276.457 163.838C274.839 158.991 273.441 157.682 270.371 158.168C268.297 158.497 266.971 160.323 267.273 162.231C267.549 163.973 268.641 165.501 271.398 167.871L275.142 171.105C282.521 177.421 285.103 180.839 285.787 185.153C287.311 194.777 281.323 202.614 271.201 204.217Z" fill="#FFF685"/>
<path d="M232.221 210.391C221.767 212.047 213.703 206.775 212.192 197.234C211.995 195.99 211.938 194.553 211.967 192.592L212.605 156.346L225.465 154.309L224.828 192.171C224.789 193.538 224.811 194.215 224.903 194.796C225.337 197.534 227.355 199 230.176 198.553C233.08 198.093 234.865 195.94 234.946 192.695L235.587 152.706L248.529 150.656L247.789 191.086C247.636 201.401 241.43 208.932 232.221 210.391Z" fill="#FFF685"/>
<path d="M157.207 221.252L158.159 164.97L173.756 162.499C184.625 160.778 191.601 165.626 193.244 175.997C195.241 188.608 187.8 198.546 174.775 200.609L170.377 201.306L170.067 219.215L157.207 221.252ZM170.542 189.458L174.192 188.88C178.59 188.184 180.955 184.322 180.127 179.095C179.549 175.445 177.574 173.716 174.421 174.216L170.771 174.794L170.542 189.458Z" fill="#FFF685"/>
<path d="M126.5 226.115L127.452 169.833L140.311 167.797L139.511 212.148L153.45 209.94L153.298 221.871L126.5 226.115Z" fill="#FFF685"/>
<path d="M92.4713 231.505L93.4226 175.223L121.133 170.834L120.969 182.682L106.118 185.034L105.93 194.589L116.882 192.854L116.682 203.942L105.73 205.677L105.483 217.537L121.163 215.054L121.012 226.984L92.4713 231.505Z" fill="#FFF685"/>
<path d="M50.4213 238.165L51.3726 181.883L64.2323 179.846L63.8973 200.821L74.1021 199.205L74.4371 178.23L87.2968 176.193L86.3455 232.475L73.4858 234.512L73.8808 211.231L63.676 212.848L63.281 236.128L50.4213 238.165Z" fill="#FFF685"/>
<path fill-rule="evenodd" clip-rule="evenodd" d="M487.965 316.518C489.415 318.328 491.125 319.934 493.126 321.273C498.832 325.091 505.577 325.85 512.3 324.785C519.308 323.676 525.464 320.289 529.574 314.915C533.71 309.507 535.313 302.674 534.2 295.653C533.285 289.873 530.295 285.486 525.766 281.002L537.566 275.597L535.402 268.279C533.585 262.132 530.416 256.533 525.038 252.945C519.578 249.302 513.222 248.648 506.947 249.642C499.999 250.742 493.916 254.163 489.895 259.595C489.19 260.547 488.564 261.541 488.015 262.57L488.059 262.564L487.894 274.411L485.136 274.848C485.157 276.178 485.274 277.523 485.488 278.875C486.334 284.219 488.99 288.437 492.853 292.455L480.495 297.341L482.412 304.851C482.645 305.767 482.91 306.671 483.208 307.556L488.089 306.783L487.965 316.518ZM501.85 288.898C502.605 289.577 503.426 290.286 504.318 291.031L508.048 294.182C508.951 294.95 509.679 295.591 510.267 296.151C510.432 296.307 510.585 296.457 510.729 296.602C512.081 297.965 512.529 298.846 512.724 300.075C513.052 302.149 511.394 304.028 508.988 304.409C506.537 304.797 504.886 304.216 503.669 302.338C503.543 302.143 503.421 301.934 503.304 301.711C503.106 301.335 502.921 300.919 502.746 300.46C502.741 300.449 502.737 300.438 502.733 300.427C502.492 299.793 502.271 299.077 502.063 298.276L490.938 302.675C491.551 305.076 492.379 307.165 493.416 308.941C493.78 309.565 494.17 310.15 494.586 310.696C498.181 315.422 503.687 317.24 510.924 316.094C521.045 314.491 527.033 306.653 525.509 297.029C524.9 293.189 522.787 290.058 517.124 284.961C516.426 284.333 515.674 283.675 514.864 282.982L511.12 279.748C510.612 279.31 510.16 278.902 509.759 278.515C509.585 278.347 509.42 278.183 509.265 278.023C507.842 276.554 507.198 275.388 506.995 274.107C506.693 272.199 508.02 270.373 510.094 270.045C511.965 269.748 513.216 270.119 514.273 271.553C514.538 271.911 514.79 272.336 515.037 272.834C515.261 273.285 515.481 273.796 515.702 274.372C515.706 274.383 515.71 274.393 515.714 274.404C515.716 274.41 515.718 274.416 515.721 274.422C515.873 274.821 516.025 275.252 516.18 275.714L526.964 270.775C526.159 268.053 525.116 265.773 523.828 263.928C523.575 263.566 523.312 263.221 523.04 262.893C519.653 258.801 514.786 257.31 508.324 258.333C498.451 259.897 492.629 267.708 494.18 277.498C494.773 281.243 496.88 284.428 501.85 288.898Z" fill="#DD505B"/>
<path fill-rule="evenodd" clip-rule="evenodd" d="M450.988 300.004C453.816 295.818 454.973 290.479 454.032 284.537C453.565 281.593 452.669 279.094 451.376 277.064L451.675 259.417L497.003 252.237L496.826 265.026C494.943 267.658 493.914 270.896 493.931 274.495C493.936 275.471 494.017 276.474 494.18 277.498C494.429 279.073 494.946 280.549 495.832 282.064L492.645 282.568L492.381 297.194L497.021 296.459L496.972 300.289L490.938 302.675C491 302.916 491.064 303.155 491.13 303.39C491.477 304.626 491.883 305.776 492.349 306.837C493.488 309.432 494.979 311.504 496.81 313.049L496.642 326.245L450.421 333.566L450.572 324.632L455.828 323.8L450.776 312.578L450.988 300.004ZM472.656 297.406L483.607 295.672L483.807 284.584L472.856 286.318L473.043 276.763L487.894 274.411L488.059 262.564L460.348 266.952L459.397 323.234L487.937 318.714L488.089 306.783L472.408 309.267L472.656 297.406Z" fill="#DD505B"/>
<path fill-rule="evenodd" clip-rule="evenodd" d="M409.265 325.609L409.019 340.123L468.58 330.69L464.836 322.373L459.397 323.234L459.608 310.76L457.488 306.05C458.333 304.923 459.087 303.738 459.747 302.504L460.214 274.89C458.538 271.395 456.098 268.335 452.761 266.022C447.045 262.059 440.085 261.252 433.167 262.348L410.273 265.974L410.122 274.908L412.821 274.48L412.08 314.91C412.02 318.976 411.019 322.61 409.265 325.609ZM447.036 304.271C452.624 299.814 455.332 292.751 454.031 284.537C452.389 274.167 445.413 269.318 434.544 271.04L418.946 273.51L417.995 329.792L430.855 327.755L431.165 309.846L435.811 309.11L443.051 325.823L455.828 323.8L447.036 304.271ZM431.558 283.334L435.209 282.756C436.656 282.527 437.855 282.767 438.785 283.447C439.431 283.92 439.947 284.605 440.326 285.493C440.589 286.11 440.786 286.825 440.915 287.635C441.287 289.988 441.013 292.064 440.198 293.699C439.202 295.697 437.398 297.037 434.98 297.42L431.33 297.998L431.558 283.334ZM432.176 288.787C432.177 288.788 432.181 288.801 432.188 288.829C432.179 288.802 432.176 288.787 432.176 288.787Z" fill="#DD505B"/>
<path fill-rule="evenodd" clip-rule="evenodd" d="M367.859 293.593L367.46 316.283C367.427 318.419 367.477 320.446 367.792 322.435C368.905 329.463 372.576 335.427 378.318 339.193C383.975 342.904 390.905 344.013 397.889 342.907C407.261 341.422 414.34 335.689 418.029 327.804L418.946 273.51L421.648 273.082L421.811 264.147L368.228 272.633L368.07 281.568L373.179 280.759L372.958 292.786L367.859 293.593ZM389.756 278.133L389.119 315.995C389.081 317.362 389.103 318.039 389.195 318.62C389.628 321.357 391.647 322.824 394.467 322.377C397.371 321.917 399.156 319.763 399.238 316.519L399.878 276.53L412.821 274.48L412.08 314.91C411.928 325.225 405.722 332.756 396.512 334.215C386.059 335.871 377.995 330.599 376.484 321.058C376.287 319.814 376.229 318.377 376.259 316.416L376.896 280.17L389.756 278.133Z" fill="#DD505B"/>
<path fill-rule="evenodd" clip-rule="evenodd" d="M340.007 342.144L339.86 351.077L370.368 346.245L371.098 301.99L376.528 301.13L376.896 280.17L382.006 279.361L382.171 270.425L330.583 278.596L330.219 298.386L333.028 308.02L340.59 306.822L340.166 332.506L342.845 341.694L340.007 342.144ZM349.561 296.491L348.832 340.746L361.691 338.709L362.421 294.454L372.958 292.786L373.179 280.759L339.246 286.133L339.025 298.16L349.561 296.491Z" fill="#DD505B"/>
<path fill-rule="evenodd" clip-rule="evenodd" d="M293.296 349.542L290.498 358.895L354.09 348.823L351.607 340.306L348.832 340.746L348.987 331.32L339.307 298.115L339.025 298.16L339.042 297.209L333.482 278.136L313.722 281.266L297.035 337.043L301.335 336.362L301.183 348.293L293.296 349.542ZM329.144 338.421L330.151 343.705L342.845 341.694L327.203 288.04L320.566 289.092L302.938 348.015L316.379 345.886L317.612 340.248L329.144 338.421ZM323.787 312.65L319.921 329.591L327.222 328.435L323.787 312.65Z" fill="#DD505B"/>
<path fill-rule="evenodd" clip-rule="evenodd" d="M264.234 329.583C267.061 325.397 268.218 320.058 267.277 314.116C266.811 311.172 265.915 308.673 264.622 306.643L264.92 288.996L310.249 281.816L309.836 311.523L305.891 312.148L305.627 326.773L309.476 326.163L302.938 348.015L310.002 346.896L309.888 355.824L263.667 363.145L263.818 354.211L269.073 353.379L264.022 342.157L264.234 329.583ZM285.902 326.985L296.853 325.251L297.053 314.163L286.102 315.897L286.289 306.342L301.14 303.99L301.305 292.143L273.594 296.532L272.643 352.813L301.183 348.293L301.335 336.362L285.654 338.846L285.902 326.985Z" fill="#DD505B"/>
<path fill-rule="evenodd" clip-rule="evenodd" d="M222.465 357.853L222.265 369.702L281.826 360.268L278.082 351.952L272.643 352.813L272.854 340.338L270.734 335.628C271.579 334.501 272.333 333.317 272.993 332.083L273.46 304.469C271.784 300.973 269.344 297.914 266.007 295.601C260.291 291.638 253.331 290.831 246.413 291.927L223.519 295.553L223.28 309.669C225.553 312.363 227.081 316.299 227.863 321.464L223.054 323.02L222.693 344.396L227.643 345.312C226.672 350.759 224.982 354.891 222.465 357.853ZM260.282 333.849C265.87 329.392 268.578 322.33 267.277 314.116C265.635 303.745 258.658 298.897 247.79 300.618L232.192 303.089L231.241 359.37L244.101 357.334L244.411 339.425L249.057 338.689L256.297 355.402L269.074 353.378L260.282 333.849ZM244.804 312.913L248.455 312.335C249.902 312.105 251.101 312.345 252.031 313.025C252.677 313.498 253.193 314.184 253.572 315.071C253.835 315.689 254.032 316.404 254.161 317.214C254.533 319.567 254.259 321.642 253.444 323.278C252.448 325.276 250.644 326.616 248.226 326.999L244.576 327.577L244.804 312.913ZM245.422 318.366C245.423 318.365 245.427 318.379 245.434 318.407C245.425 318.381 245.422 318.367 245.422 318.366Z" fill="#DD505B"/>
<path fill-rule="evenodd" clip-rule="evenodd" d="M192.507 337.185C192.106 356.129 199.032 365.493 211.808 363.469C218.054 362.48 222.368 359.397 225.068 353.785C226.133 351.571 226.946 348.963 227.528 345.934C227.567 345.729 227.606 345.522 227.643 345.314C227.643 345.313 227.643 345.313 227.643 345.313L227.642 345.312L216.253 343.204C216.253 343.205 216.253 343.204 216.253 343.204C216.215 343.42 216.176 343.632 216.136 343.838C215.184 348.737 213.638 351.018 211.091 351.421C206.943 352.078 205.324 347.232 205.559 335.288C205.832 321.977 207.022 318.217 211.005 317.586C212.484 317.352 213.627 317.743 214.509 318.862C215.458 320.066 216.103 322.113 216.537 325.129L227.863 321.465C226.028 309.338 220.077 303.987 210.038 305.577C198.257 307.443 192.89 317.053 192.507 337.185ZM183.709 337.007C183.493 347.24 185.158 356.65 190.128 363.405C195.672 370.941 204.11 373.598 213.185 372.161C219.29 371.194 224.751 368.609 228.935 363.825C230.175 362.408 231.241 360.867 232.156 359.226L231.241 359.371L231.617 337.099L216.677 334.333L231.747 329.457L232.127 306.947C230.971 305.051 229.574 303.319 227.889 301.815C222.435 296.942 215.529 295.798 208.662 296.886C200.25 298.218 193.555 302.609 189.306 310.258C185.4 317.289 183.911 326.449 183.709 337.007ZM215.364 324.092C215.364 324.093 215.362 324.099 215.357 324.11C215.362 324.098 215.364 324.092 215.364 324.092ZM207.257 323.784C207.257 323.783 207.258 323.787 207.262 323.795C207.258 323.788 207.257 323.784 207.257 323.784ZM215.052 345.349C215.052 345.35 215.045 345.336 215.033 345.304C215.047 345.333 215.053 345.349 215.052 345.349Z" fill="#DD505B"/>
<path fill-rule="evenodd" clip-rule="evenodd" d="M609.233 200.018C612.06 195.832 613.217 190.493 612.276 184.551C611.81 181.607 610.914 179.108 609.621 177.078L609.919 159.431L655.248 152.251L654.835 181.958L650.89 182.583L650.626 197.208L655.265 196.473L654.887 226.259L608.666 233.58L608.817 224.646L614.072 223.814L609.02 212.592L609.233 200.018ZM630.9 197.42L641.852 195.686L642.052 184.598L631.1 186.332L631.288 176.777L646.139 174.425L646.304 162.578L618.593 166.967L617.642 223.248L646.182 218.728L646.333 206.797L630.653 209.281L630.9 197.42Z" fill="#DD505B"/>
<path fill-rule="evenodd" clip-rule="evenodd" d="M567.415 231.203L567.264 240.137L626.824 230.704L623.08 222.387L617.642 223.248L617.852 210.774L615.732 206.064C616.578 204.937 617.332 203.752 617.992 202.518L618.459 174.904C616.782 171.408 614.342 168.349 611.006 166.036C605.289 162.073 598.329 161.266 591.412 162.362L568.517 165.988L567.793 208.838L574.009 230.159L567.415 231.203ZM605.281 204.285C610.868 199.828 613.577 192.765 612.276 184.551C610.634 174.181 603.657 169.332 592.789 171.054L577.191 173.524L576.24 229.806L589.099 227.769L589.41 209.86L594.056 209.124L601.295 225.837L614.072 223.814L605.281 204.285ZM589.803 183.348L593.454 182.77C594.901 182.541 596.1 182.781 597.029 183.461C597.676 183.933 598.192 184.619 598.571 185.507C598.834 186.124 599.031 186.839 599.159 187.649C599.532 190.002 599.258 192.078 598.443 193.713C597.447 195.711 595.643 197.051 593.225 197.434L589.574 198.012L589.803 183.348ZM590.421 188.801C590.421 188.8 590.426 188.814 590.433 188.843C590.424 188.817 590.421 188.802 590.421 188.801Z" fill="#DD505B"/>
<path fill-rule="evenodd" clip-rule="evenodd" d="M524.46 238.007L521.662 247.36L585.253 237.288L582.77 228.771L576.24 229.806L576.614 207.654L564.646 166.601L544.885 169.731L532.081 212.53L531.67 236.865L524.46 238.007ZM560.308 226.886L561.315 232.17L574.009 230.159L558.367 176.506L551.729 177.557L534.102 236.48L547.543 234.351L548.776 228.713L560.308 226.886ZM554.95 201.115L551.085 218.056L558.386 216.9L554.95 201.115Z" fill="#DD505B"/>
<path fill-rule="evenodd" clip-rule="evenodd" d="M482.442 200.522L481.543 253.714L540.344 244.401L540.495 235.467L534.102 236.48L540.86 213.891L541.597 170.252L520.145 173.649L511.187 191.506L502.821 176.393L482.796 179.565L482.645 188.498L487.753 187.689L487.532 199.716L482.442 200.522ZM511.569 210.367L498.108 186.049L491.47 187.101L490.519 243.382L503.379 241.346L503.792 219.253L509.552 229.312L514.032 228.602L519.181 218.687L518.81 238.902L531.67 236.865L532.621 180.583L525.984 181.634L511.569 210.367Z" fill="#DD505B"/>
<path fill-rule="evenodd" clip-rule="evenodd" d="M449.746 214.611L455.164 213.752L454.434 258.007L484.942 253.175L485.672 208.92L491.116 208.058L491.47 187.101L496.58 186.291L496.745 177.356L445.157 185.526L444.993 194.462L450.1 193.653L449.746 214.611ZM476.995 201.385L487.532 199.716L487.753 187.689L453.82 193.064L453.599 205.091L464.135 203.422L463.406 247.677L476.265 245.64L476.995 201.385Z" fill="#DD505B"/>
<path fill-rule="evenodd" clip-rule="evenodd" d="M404.447 254.215L404.249 265.956L457.823 257.471L458.722 204.279L453.599 205.091L453.82 193.064L458.925 192.256L459.076 183.322L405.502 191.807L405.245 207.041C407.006 209.491 408.202 212.793 408.829 216.944L405.056 218.189L404.936 225.3L409.112 224.639L408.791 247.312C407.859 249.958 406.369 252.291 404.447 254.215ZM427.036 197.306L426.701 218.281L436.906 216.665L437.241 195.69L450.1 193.653L449.149 249.935L436.289 251.972L436.684 228.691L426.48 230.308L426.085 253.588L413.225 255.625L414.176 199.343L427.036 197.306Z" fill="#DD505B"/>
<path fill-rule="evenodd" clip-rule="evenodd" d="M368.032 255.679C368.826 257.284 369.756 258.79 370.837 260.179C376.68 267.688 385.386 269.964 394.544 268.514C402.94 267.184 410.305 262.498 414.641 255.4L413.225 255.625L414.087 204.633C412.687 202.011 410.849 199.656 408.464 197.723C402.865 193.185 395.919 192.304 389.108 193.383C380.673 194.719 373.949 199.101 369.683 206.775C369.385 207.311 369.101 207.859 368.83 208.419L368.403 233.691L368.403 233.696L368.032 255.679ZM408.638 215.804C406.668 205.072 400.587 200.475 390.485 202.075C378.621 203.954 373.254 213.564 372.884 233.778C372.508 252.888 379.561 261.977 393.167 259.822C400.551 258.653 406.444 253.977 408.791 247.312L409.112 224.639L391.606 227.411L391.459 238.831L396.271 238.069L396.086 245.497C395.477 246.335 394.646 246.979 393.614 247.399C393.107 247.605 392.553 247.758 391.952 247.853C391.399 247.94 390.889 247.96 390.42 247.905C387.74 247.594 386.386 244.881 385.996 238.76C385.87 236.78 385.845 234.443 385.909 231.715C385.944 230.123 385.991 228.668 386.055 227.34C386.225 223.824 386.51 221.191 386.975 219.235C387.794 215.788 389.17 214.445 391.451 214.083C393.353 213.782 394.738 214.221 395.726 215.534C396.144 216.09 396.491 216.803 396.776 217.683C397.05 218.532 397.266 219.536 397.433 220.705L408.829 216.944C408.77 216.557 408.707 216.177 408.638 215.804Z" fill="#DD505B"/>
<path fill-rule="evenodd" clip-rule="evenodd" d="M346.227 266.236L346.076 275.17L376.585 270.338L376.87 253.474C374.069 249.044 372.713 242.441 372.884 233.779C373.073 223.417 374.576 215.841 377.594 210.665L377.838 196.189L347.329 201.021L347.178 209.955L349.877 209.527L348.926 265.809L346.227 266.236ZM355.052 264.839L367.911 262.802L368.863 206.52L356.003 208.557L355.052 264.839Z" fill="#DD505B"/>
<path fill-rule="evenodd" clip-rule="evenodd" d="M336.934 211.577L336.567 238.255L320.59 214.165L313.953 215.217L313.001 271.498L325.944 269.448L326.324 242.854L342.205 266.873L348.926 265.809L349.877 209.527L336.934 211.577ZM334.716 271.501L334.637 276.981L304.026 281.83L305.279 207.681L324.798 204.589L328.16 209.658L328.237 204.045L358.853 199.195L358.702 208.129L356.003 208.557L355.052 264.838L357.751 264.411L357.6 273.344L337.988 276.451L334.716 271.501Z" fill="#DD505B"/>
<path fill-rule="evenodd" clip-rule="evenodd" d="M253.538 280.917L253.387 289.85L299.608 282.53L299.987 252.744L295.347 253.478L295.611 238.853L299.557 238.228L299.969 208.522L254.641 215.701L254.49 224.635L257.189 224.207L256.237 280.489L253.538 280.917ZM276.01 233.048L290.86 230.696L291.025 218.848L263.314 223.237L262.363 279.519L290.903 274.999L291.055 263.068L275.374 265.552L275.622 253.691L286.573 251.956L286.773 240.868L275.822 242.603L276.01 233.048Z" fill="#DD505B"/>
<path fill-rule="evenodd" clip-rule="evenodd" d="M212.236 243.319L211.337 296.51L264.911 288.025L265.062 279.092L262.363 279.519L263.314 223.237L266.014 222.81L266.165 213.876L212.591 222.361L212.44 231.295L217.547 230.486L217.326 242.513L212.236 243.319ZM234.124 227.861L233.789 248.835L243.994 247.219L244.329 226.244L257.189 224.207L256.237 280.489L243.378 282.526L243.773 259.246L233.568 260.862L233.173 284.142L220.313 286.179L221.264 229.897L234.124 227.861Z" fill="#DD505B"/>
<path fill-rule="evenodd" clip-rule="evenodd" d="M193.199 290.474L206.059 288.437L206.789 244.182L217.326 242.513L217.547 230.486L183.614 235.861L183.393 247.887L193.929 246.218L193.199 290.474ZM184.958 256.549L184.228 300.804L214.736 295.972L215.466 251.717L220.91 250.855L221.264 229.897L226.374 229.088L226.539 220.152L174.951 228.323L174.401 258.221L184.958 256.549Z" fill="#DD505B"/>
<path fill-rule="evenodd" clip-rule="evenodd" d="M120.42 302.001L120.269 310.934L145.887 306.877C154.855 305.456 162.528 301.533 167.76 294.128C172.765 287.044 174.745 277.869 174.95 267.466C175.157 257.25 172.917 247.79 166.868 241.173C160.479 234.184 151.424 232.049 141.928 233.553L121.523 236.785L121.372 245.719L124.071 245.291L123.119 301.573L120.42 302.001ZM129.245 300.603L144.511 298.185C158.864 295.912 165.777 286.397 166.152 267.287C166.519 249.199 157.99 239.919 143.305 242.245L130.196 244.321L129.245 300.603ZM151.318 280.214C152.339 277.522 152.923 273.786 153.021 268.687C153.108 263.717 152.65 260.13 151.653 257.723C150.943 256.007 149.958 254.89 148.703 254.301C147.611 253.788 146.313 253.675 144.813 253.913L142.905 254.215L142.422 286.609L144.33 286.307C147.466 285.81 149.846 284.098 151.318 280.214Z" fill="#DD505B"/>
<path fill-rule="evenodd" clip-rule="evenodd" d="M78.3702 308.66L78.2192 317.594L108.831 312.745L108.909 307.265L112.182 312.215L131.793 309.109L131.944 300.175L129.245 300.602L130.196 244.321L132.895 243.893L133.046 234.96L102.431 239.809L102.353 245.422L98.9919 240.353L79.4725 243.445L78.7482 286.295L84.9641 307.616L78.3702 308.66ZM110.761 274.019L94.7836 249.93L88.1464 250.981L87.1951 307.263L100.138 305.213L100.518 278.618L116.399 302.637L123.119 301.573L124.071 245.291L111.128 247.341L110.761 274.019Z" fill="#DD505B"/>
<path fill-rule="evenodd" clip-rule="evenodd" d="M71.2634 304.343L72.2703 309.626L84.964 307.616L69.3222 253.962L62.6849 255.014L45.0575 313.937L58.4979 311.808L59.7311 306.169L71.2634 304.343ZM32.6173 324.817L55.8407 247.188L75.6011 244.058L87.5695 285.111L87.1951 307.263L93.7258 306.228L96.2087 314.745L32.6173 324.817ZM65.9059 278.572L62.0405 295.513L69.3415 294.357L65.9059 278.572Z" fill="#DD505B"/>
<path fill-rule="evenodd" clip-rule="evenodd" d="M586.437 97.1371L602.035 94.6666C612.903 92.9452 619.88 97.7936 621.522 108.164C622.823 116.378 620.115 123.441 614.527 127.898L623.319 147.427L610.542 149.45L603.302 132.737L598.656 133.473L598.346 151.382L585.486 153.419L586.437 97.1371ZM576.51 163.75L576.661 154.817L579.997 154.288L580.149 142.358L576.863 142.878L577.412 110.388L579.954 109.985L580.119 98.1378L577.612 98.5348L577.764 89.6012L600.658 85.975C607.576 84.8794 614.536 85.6859 620.252 89.6488C626.035 93.6581 629.125 99.9098 630.214 106.788C631.561 115.291 629.703 123.382 624.979 129.677L636.071 154.317L576.51 163.75ZM598.821 121.625L602.471 121.047C604.889 120.664 606.693 119.324 607.689 117.326C608.504 115.691 608.778 113.615 608.406 111.262C608.277 110.452 608.08 109.737 607.817 109.12C607.438 108.232 606.922 107.547 606.276 107.074C605.346 106.394 604.147 106.154 602.7 106.383L599.049 106.961L598.821 121.625ZM599.667 112.414C599.668 112.414 599.672 112.427 599.679 112.456C599.67 112.429 599.667 112.415 599.667 112.414Z" fill="#DD505B"/>
<path fill-rule="evenodd" clip-rule="evenodd" d="M542.632 160.206L542.481 169.14L588.702 161.819L588.816 152.891L585.486 153.419L585.839 132.547L584.441 132.768L584.705 118.143L586.086 117.924L586.437 97.1371L588.939 96.7408L589.063 87.8114L543.734 94.9908L543.583 103.924L546.282 103.497L545.331 159.779L542.632 160.206ZM565.103 112.338L579.954 109.985L580.119 98.1378L552.408 102.527L551.457 158.808L579.997 154.288L580.149 142.358L564.468 144.841L564.716 132.98L575.667 131.246L575.867 120.158L564.916 121.893L565.103 112.338Z" fill="#DD505B"/>
<path fill-rule="evenodd" clip-rule="evenodd" d="M500.431 175.8L501.684 101.651L555.258 93.1657L555.107 102.099L552.408 102.527L551.457 158.809L554.156 158.381L554.005 167.315L500.431 175.8ZM532.471 161.816L532.866 138.535L522.662 140.151L522.267 163.432L509.407 165.469L510.358 109.187L523.218 107.15L522.883 128.125L533.088 126.508L533.423 105.534L546.282 103.497L545.331 159.779L532.471 161.816Z" fill="#DD505B"/>
<path fill-rule="evenodd" clip-rule="evenodd" d="M441.772 185.091L441.972 173.242C444.488 170.28 446.178 166.148 447.15 160.701L442.199 159.785L442.561 138.409L447.37 136.853C446.588 131.688 445.059 127.752 442.786 125.058L443.025 110.942L496.599 102.456L495.346 176.605L441.772 185.091ZM473.812 171.106L474.207 147.826L464.002 149.442L463.607 172.723L450.748 174.759L451.699 118.478L464.559 116.441L464.224 137.415L474.428 135.799L474.763 114.825L487.623 112.788L486.672 169.07L473.812 171.106Z" fill="#DD505B"/>
<path fill-rule="evenodd" clip-rule="evenodd" d="M434.015 134.251C433.134 133.131 431.99 132.74 430.511 132.974C426.529 133.605 425.339 137.366 425.065 150.676C424.831 162.62 426.449 167.467 430.597 166.81C433.144 166.406 434.69 164.126 435.642 159.229C435.682 159.021 435.721 158.81 435.76 158.593L447.15 160.701C447.112 160.91 447.074 161.118 447.034 161.323C446.453 164.352 445.639 166.96 444.574 169.174C441.875 174.785 437.561 177.868 431.315 178.858C418.538 180.881 411.612 171.517 412.014 152.573C412.397 132.442 417.764 122.832 429.545 120.966C439.584 119.376 445.534 124.727 447.37 136.853L436.044 140.518C435.61 137.501 434.964 135.455 434.015 134.251ZM403.215 152.396C403 162.628 404.665 172.039 409.634 178.793C415.179 186.329 423.616 188.987 432.692 187.549C438.796 186.582 444.258 183.997 448.442 179.214C449.682 177.796 450.748 176.256 451.663 174.614L450.748 174.759L451.124 152.487L436.183 149.722L451.253 144.846L451.634 122.336C450.478 120.439 449.08 118.707 447.396 117.203C441.942 112.331 435.035 111.186 428.168 112.274C419.909 113.582 413.305 117.839 409.046 125.233L410.388 125.021L410.166 137.047L404.579 137.932C403.724 142.358 403.315 147.208 403.215 152.396ZM434.559 160.738C434.558 160.738 434.552 160.724 434.54 160.693C434.554 160.722 434.559 160.738 434.559 160.738Z" fill="#DD505B"/>
<path fill-rule="evenodd" clip-rule="evenodd" d="M377.375 176.768L380.054 185.956L377.216 186.406L377.069 195.339L407.577 190.507L408.307 146.251L412.385 145.606C412.678 142.453 413.137 139.628 413.77 137.114C414.948 132.434 416.729 128.834 419.167 126.208L419.379 114.687L367.792 122.857L367.428 142.648L370.236 152.281L377.799 151.084L377.375 176.768ZM386.77 140.753L386.04 185.008L398.9 182.971L399.63 138.716L410.166 137.047L410.388 125.021L376.455 130.395L376.233 142.422L386.77 140.753Z" fill="#DD505B"/>
<path fill-rule="evenodd" clip-rule="evenodd" d="M327.707 203.157L330.419 194.091C332.187 193.26 333.73 192.154 335.063 190.756C336.636 189.103 337.915 187.041 338.922 184.54C339.058 184.201 339.189 183.854 339.316 183.499C339.949 181.719 340.458 179.735 340.85 177.537L335.659 176.576L350.93 125.528L370.691 122.398L376.251 141.47L376.233 142.422L376.515 142.377L386.196 175.582L386.04 185.008L388.815 184.568L391.298 193.085L327.707 203.157ZM340.147 192.277L353.587 190.148L354.821 184.51L366.353 182.683L367.36 187.967L380.054 185.956L364.412 132.302L357.774 133.354L340.147 192.277ZM360.995 156.912L357.13 173.853L364.431 172.697L360.995 156.912Z" fill="#DD505B"/>
<path fill-rule="evenodd" clip-rule="evenodd" d="M327.716 151.087C326.834 149.968 325.69 149.577 324.211 149.811C320.229 150.442 319.039 154.202 318.766 167.513C318.531 179.456 320.149 184.303 324.297 183.646C326.845 183.243 328.39 180.962 329.342 176.065C329.382 175.858 329.421 175.646 329.46 175.429L340.85 177.537C340.812 177.747 340.774 177.954 340.734 178.16C340.153 181.188 339.339 183.796 338.274 186.01C335.575 191.622 331.261 194.705 325.015 195.694C312.238 197.718 305.312 188.354 305.714 169.41C306.097 149.278 311.464 139.668 323.245 137.802C333.284 136.212 339.234 141.563 341.07 153.689L329.744 157.354C329.31 154.338 328.664 152.291 327.716 151.087ZM296.915 169.232C296.7 179.465 298.365 188.875 303.334 195.63C308.879 203.166 317.317 205.823 326.392 204.386C332.496 203.419 337.958 200.834 342.142 196.05C343.382 194.633 344.448 193.092 345.363 191.451L340.147 192.277L346.899 169.708L329.884 166.558L349.766 160.125L350.548 157.509L349.771 152.372C348.704 145.327 346.232 138.627 341.096 134.039C335.642 129.167 328.735 128.023 321.868 129.111C313.457 130.443 306.762 134.834 302.513 142.483C298.606 149.514 297.117 158.673 296.915 169.232ZM328.259 177.574C328.259 177.575 328.252 177.561 328.24 177.529C328.253 177.558 328.259 177.574 328.259 177.574Z" fill="#DD505B"/>
<path fill-rule="evenodd" clip-rule="evenodd" d="M247.944 182.629L253.13 180.579C251.087 178.453 249.382 176.272 248.103 173.898L248.529 150.656L248.293 150.694C248.841 149.664 249.468 148.67 250.172 147.719C254.193 142.286 260.277 138.866 267.225 137.765C273.5 136.771 279.855 137.426 285.315 141.069C290.694 144.657 293.862 150.255 295.68 156.403L297.844 163.721L286.044 169.126C290.573 173.609 293.563 177.996 294.478 183.776C295.59 190.798 293.987 197.63 289.851 203.039C285.742 208.412 279.585 211.799 272.578 212.909C265.855 213.974 259.109 213.214 253.404 209.397C250.02 207.133 247.47 204.106 245.601 200.619C246.89 198.015 247.648 194.996 247.773 191.677C247.781 191.481 247.786 191.284 247.789 191.086L247.944 182.629ZM277.402 173.085C276.704 172.456 275.952 171.798 275.142 171.105L271.398 167.871C270.889 167.434 270.437 167.025 270.037 166.639C269.863 166.471 269.698 166.307 269.543 166.146C268.12 164.677 267.476 163.512 267.273 162.231C266.971 160.323 268.297 158.497 270.371 158.168C272.243 157.872 273.493 158.243 274.551 159.676C274.815 160.035 275.068 160.46 275.315 160.957C275.539 161.409 275.759 161.92 275.979 162.495C275.983 162.506 275.987 162.517 275.992 162.528C275.994 162.534 275.996 162.539 275.998 162.545C276.15 162.945 276.303 163.375 276.457 163.838L287.241 158.898C286.436 156.176 285.394 153.896 284.105 152.052C283.852 151.69 283.59 151.345 283.318 151.016C279.93 146.925 275.064 145.433 268.602 146.457C258.729 148.02 252.907 155.831 254.457 165.621C255.051 169.367 257.157 172.552 262.127 177.022C262.882 177.701 263.703 178.409 264.595 179.154L268.326 182.305C269.229 183.074 269.957 183.715 270.545 184.274C270.709 184.43 270.863 184.58 271.006 184.725C272.359 186.089 272.807 186.969 273.002 188.198C273.33 190.273 271.671 192.151 269.265 192.532C266.815 192.92 265.164 192.339 263.947 190.462C263.82 190.267 263.699 190.058 263.581 189.834C263.384 189.459 263.198 189.042 263.023 188.584C263.019 188.573 263.015 188.562 263.011 188.551C262.77 187.916 262.548 187.201 262.341 186.4L251.216 190.798C251.829 193.2 252.657 195.289 253.693 197.064C254.058 197.688 254.448 198.273 254.863 198.819C258.459 203.545 263.964 205.363 271.201 204.217C281.323 202.614 287.311 194.777 285.786 185.153C285.178 181.312 283.065 178.182 277.402 173.085ZM271.375 185.747C271.375 185.748 271.374 185.745 271.371 185.739C271.373 185.744 271.375 185.747 271.375 185.747Z" fill="#DD505B"/>
<path fill-rule="evenodd" clip-rule="evenodd" d="M203.168 192.448L203.936 148.81L257.52 140.323L257.29 152.895C254.762 156.275 253.678 160.698 254.457 165.621C254.777 167.641 255.537 169.498 256.949 171.481L256.635 188.656L251.216 190.798C251.245 190.912 251.275 191.026 251.305 191.138C251.306 191.142 251.307 191.146 251.308 191.151C252.227 194.589 253.599 197.371 255.403 199.49C252.54 209.647 244.669 217.329 233.598 219.083C226.613 220.189 219.684 219.081 214.026 215.37C208.285 211.603 204.614 205.64 203.5 198.611C203.185 196.622 203.136 194.595 203.168 192.459L203.168 192.448ZM247.789 191.086L248.529 150.657L235.586 152.706L234.946 192.695C234.865 195.94 233.08 198.093 230.176 198.553C227.355 199 225.337 197.534 224.903 194.796C224.811 194.215 224.789 193.538 224.828 192.171L225.465 154.31L212.605 156.346L211.967 192.592C211.938 194.553 211.995 195.99 212.192 197.234C213.703 206.775 221.767 212.047 232.221 210.391C241.43 208.933 247.636 201.401 247.789 191.086Z" fill="#DD505B"/>
<path fill-rule="evenodd" clip-rule="evenodd" d="M148.383 222.649L148.232 231.583L178.738 226.751L179.05 208.725C186.256 206.995 192.442 203.194 196.683 197.538C201.502 191.113 203.265 183.014 201.935 174.62C200.846 167.743 197.757 161.491 191.973 157.482C186.257 153.519 179.297 152.712 172.38 153.808L149.485 157.434L148.584 210.711L153.45 209.94L153.298 221.871L148.383 222.649ZM170.377 201.306L174.775 200.609C187.8 198.546 195.241 188.608 193.244 175.997C191.601 165.626 184.625 160.778 173.756 162.499L158.159 164.97L157.207 221.252L170.067 219.215L170.377 201.306ZM177.997 174.907C177.067 174.227 175.868 173.986 174.421 174.216L170.771 174.794L170.542 189.458L174.192 188.88C176.611 188.497 178.414 187.157 179.41 185.159C180.225 183.524 180.499 181.448 180.127 179.095C179.999 178.285 179.802 177.57 179.538 176.953C179.159 176.065 178.643 175.379 177.997 174.907ZM171.389 180.247C171.389 180.247 171.393 180.26 171.4 180.289C171.392 180.262 171.388 180.248 171.389 180.247Z" fill="#DD505B"/>
<path fill-rule="evenodd" clip-rule="evenodd" d="M117.877 215.574L121.163 215.054L121.012 226.984L117.675 227.513L117.524 236.446L162.003 229.402L162.117 220.474L157.207 221.252L157.56 200.379L148.499 201.815L149.299 157.463L118.778 162.297L118.627 171.231L121.133 170.834L120.969 182.682L118.426 183.084L117.877 215.574ZM139.511 212.148L140.311 167.797L127.452 169.833L126.5 226.115L153.298 221.871L153.45 209.94L139.511 212.148Z" fill="#DD505B"/>
<path fill-rule="evenodd" clip-rule="evenodd" d="M83.6464 232.902L83.4954 241.836L129.717 234.515L129.83 225.588L126.5 226.115L126.853 205.243L125.456 205.464L125.719 190.839L127.1 190.62L127.452 169.833L129.953 169.437L130.078 160.508L84.7487 167.687L84.5977 176.621L87.2968 176.193L86.3455 232.475L83.6464 232.902ZM106.118 185.034L120.969 182.682L121.133 170.834L93.4226 175.223L92.4713 231.505L121.012 226.984L121.163 215.054L105.483 217.537L105.73 205.677L116.682 203.942L116.882 192.854L105.93 194.589L106.118 185.034Z" fill="#DD505B"/>
<path fill-rule="evenodd" clip-rule="evenodd" d="M41.4454 248.496L42.6987 174.347L96.2727 165.862L96.1217 174.795L93.4226 175.223L92.4713 231.505L95.1703 231.077L95.0194 240.011L41.4454 248.496ZM73.4858 234.512L73.8808 211.231L63.676 212.847L63.281 236.128L50.4213 238.165L51.3726 181.883L64.2323 179.846L63.8973 200.821L74.1021 199.204L74.4371 178.23L87.2968 176.193L86.3455 232.475L73.4858 234.512Z" fill="#DD505B"/>
</svg>
