<svg width="742" height="462" viewBox="0 0 742 462" fill="none" xmlns="http://www.w3.org/2000/svg">
<path d="M741.377 188.584L734.83 173.034L732.784 159.734C725.827 146.025 714.983 133.953 700.865 125.564C667.718 105.717 626.387 111.037 599.379 135.999C593.445 127.61 576.667 105.513 562.14 97.3281C559.889 95.6913 557.843 94.0544 555.592 92.4175C537.587 80.141 517.535 72.5704 497.279 69.5013L498.097 68.4782C498.711 67.6598 498.711 66.6368 498.097 66.023C495.642 62.34 477.227 36.15 461.472 27.3519C459.426 25.715 457.38 24.2827 455.334 22.8504C395.383 -18.0714 313.335 -2.5211 272.413 57.4294C266.889 65.6138 263.819 74.8212 260.136 83.824C259.932 84.6424 258.295 80.9595 257.886 81.5733C257.272 83.0056 253.18 97.5328 251.748 105.103C248.269 104.49 241.517 104.08 241.517 104.08C241.517 104.08 239.062 102.443 236.197 101.83C206.529 97.1236 176.861 101.216 150.466 112.265L125.913 132.316L102.997 142.956C81.9219 162.599 65.9624 188.175 57.9827 218.048C53.2767 235.644 51.8445 253.445 53.0721 270.632C36.4988 277.384 21.9715 289.252 12.1503 305.62C-7.49218 338.358 -2.5816 378.87 21.5623 406.083L25.0407 407.107L37.3172 419.997C38.5449 420.815 39.9771 421.634 41.2047 422.452C77.0113 443.936 122.639 435.956 149.238 405.47C156.195 408.334 163.357 410.994 170.722 412.836C201.005 420.815 231.491 419.792 259.318 410.994C267.503 421.429 277.324 430.841 288.782 438.616C325.612 463.783 370.83 467.466 409.706 452.734C413.184 452.939 417.89 450.893 421.983 448.847C429.758 444.755 437.124 439.844 444.08 434.32C446.536 432.478 446.331 430.227 450.219 426.544C454.106 422.861 455.948 423.68 458.403 421.225C470.679 408.13 480.296 393.398 486.639 377.234C492.982 383.986 500.143 390.124 508.123 395.444C544.953 420.611 590.171 424.294 629.047 409.562C632.525 409.766 637.231 407.72 641.324 405.674C649.099 401.582 656.465 396.671 663.421 391.147C665.877 389.305 665.672 387.055 669.56 383.372C673.447 379.689 675.289 380.507 677.744 378.052C697.182 357.386 709.868 332.219 713.96 305.211C714.164 304.188 713.551 303.37 712.732 302.756C714.369 289.661 713.96 276.566 711.504 263.675C718.461 257.742 724.804 250.58 729.715 242.396C730.533 241.168 732.17 236.667 732.17 236.667C732.17 236.667 733.398 235.644 734.011 234.212C740.968 219.48 743.219 203.725 741.377 188.584Z" fill="#E74250"/>
<path d="M593.01 306.1L593.961 249.818L609.559 247.348C620.427 245.626 627.404 250.475 629.046 260.845C631.044 273.456 623.603 283.395 610.577 285.458L606.18 286.154L605.87 304.063L593.01 306.1ZM606.344 274.307L609.995 273.728C614.392 273.032 616.757 269.17 615.929 263.944C615.351 260.293 613.376 258.565 610.224 259.064L606.573 259.642L606.344 274.307Z" fill="#FFF685"/>
<path d="M562.303 310.963L563.254 254.682L576.114 252.645L575.314 296.996L589.252 294.789L589.101 306.719L562.303 310.963Z" fill="#FFF685"/>
<path d="M528.274 316.353L529.225 260.071L556.936 255.682L556.771 267.53L541.92 269.882L541.733 279.437L552.684 277.703L552.484 288.79L541.533 290.525L541.285 302.386L556.966 299.902L556.814 311.833L528.274 316.353Z" fill="#FFF685"/>
<path d="M486.224 323.013L487.175 266.732L500.035 264.695L499.7 285.669L509.905 284.053L510.24 263.079L523.099 261.042L522.148 317.323L509.288 319.36L509.683 296.08L499.479 297.696L499.084 320.977L486.224 323.013Z" fill="#FFF685"/>
<path d="M464.249 286.947C465.55 295.16 462.841 302.223 457.254 306.68L466.045 326.209L453.268 328.233L446.029 311.52L445.78 311.559L441.382 312.255L441.072 330.165L428.213 332.201L429.164 275.92L444.761 273.449C455.63 271.728 462.606 276.576 464.249 286.947ZM441.776 285.744L441.547 300.408L445.198 299.83C449.595 299.133 451.96 295.272 451.132 290.045C450.554 286.394 448.579 284.666 445.426 285.165L441.776 285.744Z" fill="#FFF685"/>
<path d="M406.73 336.624C396.276 338.28 388.212 333.009 386.701 323.468C386.504 322.223 386.446 320.786 386.476 318.826L387.114 282.58L399.973 280.543L399.337 318.405C399.298 319.772 399.32 320.448 399.412 321.029C399.846 323.767 401.864 325.233 404.685 324.787C407.589 324.327 409.374 322.173 409.455 318.928L410.095 278.94L423.038 276.89L422.297 317.319C422.145 327.634 415.939 335.166 406.73 336.624Z" fill="#FFF685"/>
<path d="M364.137 343.37C351.361 345.394 344.434 336.03 344.836 317.086C345.206 296.871 350.586 287.345 362.616 285.439C375.642 283.376 382.336 292.351 382.031 311.365C381.674 331.663 376.167 341.465 364.137 343.37ZM363.42 331.322C367.485 330.678 368.832 326.298 368.992 313.345C369.117 301.249 367.565 296.817 363.334 297.487C359.351 298.118 358.161 301.878 357.888 315.189C357.653 327.133 359.271 331.979 363.42 331.322Z" fill="#FFF685"/>
<path d="M345.967 289.097L332.247 327.585L331.907 347.454L319.048 349.491L319.357 329.966L306.807 295.299L320.248 293.17L325.733 311.692L331.863 291.33L345.967 289.097Z" fill="#FFF685"/>
<path d="M254.665 359.689L255.616 303.407L268.725 301.331C283.41 299.005 291.939 308.285 291.572 326.373C291.196 345.483 284.284 354.997 269.931 357.271L254.665 359.689ZM267.842 345.695L269.75 345.393C275.06 344.552 278.202 340.227 278.441 327.772C278.645 316.174 275.874 312.105 270.233 312.998L268.324 313.301L267.842 345.695Z" fill="#FFF685"/>
<path d="M220.636 365.078L221.587 308.797L249.298 304.408L249.133 316.255L234.282 318.607L234.095 328.162L245.046 326.428L244.846 337.516L233.895 339.25L233.647 351.111L249.328 348.627L249.176 360.558L220.636 365.078Z" fill="#FFF685"/>
<path d="M186.607 370.468L187.558 314.186L215.269 309.797L215.104 321.645L200.253 323.997L200.066 333.552L211.017 331.817L210.817 342.905L199.866 344.64L199.618 356.501L215.299 354.017L215.147 365.948L186.607 370.468Z" fill="#FFF685"/>
<path d="M168.49 317.206L181.433 315.156L180.481 371.438L173.761 372.503L157.88 348.483L157.5 375.078L144.557 377.128L145.508 320.846L152.146 319.795L168.123 343.884L168.49 317.206Z" fill="#FFF685"/>
<path d="M607.401 228.898L608.352 172.617L621.212 170.58L620.261 226.862L607.401 228.898Z" fill="white"/>
<path d="M549.795 238.022L550.746 181.74L563.855 179.664C578.54 177.338 587.069 186.618 586.702 204.706C586.327 223.816 579.414 233.331 565.061 235.604L549.795 238.022ZM562.972 224.028L564.88 223.726C570.19 222.885 573.332 218.56 573.571 206.106C573.775 194.507 571.004 190.438 565.363 191.332L563.455 191.634L562.972 224.028Z" fill="white"/>
<path d="M531.678 184.761L544.621 182.711L543.669 238.992L536.949 240.057L521.068 216.037L520.688 242.632L507.745 244.682L508.696 188.401L515.334 187.349L531.311 211.438L531.678 184.761Z" fill="white"/>
<path d="M492.82 247.046L491.813 241.762L480.281 243.589L479.048 249.227L465.607 251.356L483.235 192.433L489.872 191.382L505.514 245.035L492.82 247.046ZM489.891 231.776L486.456 215.991L482.59 232.933L489.891 231.776Z" fill="white"/>
<path d="M436.605 256.97C426.151 258.626 419.311 254.096 416.62 243.551L427.745 239.153C429.057 244.218 430.936 245.877 434.669 245.285C437.075 244.904 438.734 243.026 438.405 240.951C438.116 239.126 437.269 238.07 433.73 235.058L429.999 231.907C423.236 226.26 420.545 222.689 419.861 218.374C418.311 208.584 424.132 200.774 434.005 199.21C443.629 197.686 449.715 201.74 452.645 211.651L441.861 216.591C440.243 211.744 438.845 210.435 435.775 210.921C433.701 211.25 432.374 213.076 432.677 214.984C432.953 216.726 434.045 218.254 436.802 220.624L440.546 223.858C447.925 230.174 450.507 233.592 451.19 237.906C452.715 247.53 446.727 255.367 436.605 256.97Z" fill="white"/>
<path d="M378.111 265.214L379.062 208.932L392.171 206.856C406.856 204.53 415.384 213.81 415.018 231.899C414.642 251.009 407.73 260.523 393.377 262.796L378.111 265.214ZM391.288 251.221L393.196 250.918C398.506 250.077 401.648 245.753 401.887 233.298C402.091 221.699 399.32 217.631 393.679 218.524L391.77 218.826L391.288 251.221Z" fill="white"/>
<path d="M359.994 211.953L372.936 209.903L371.985 266.185L365.265 267.249L349.384 243.23L349.003 269.824L336.061 271.874L337.012 215.593L343.649 214.541L359.626 238.631L359.994 211.953Z" fill="white"/>
<path d="M302.032 277.264L302.983 220.982L330.694 216.593L330.529 228.441L315.678 230.793L315.491 240.348L326.442 238.614L326.242 249.701L315.291 251.436L315.043 263.297L330.724 260.813L330.572 272.744L302.032 277.264Z" fill="white"/>
<path d="M283.073 280.267L284.024 223.985L296.884 221.948L295.933 278.23L283.073 280.267Z" fill="white"/>
<path d="M277.707 241.57C279.008 249.783 276.3 256.846 270.712 261.303L279.503 280.832L266.727 282.856L259.487 266.142L259.238 266.182L254.841 266.878L254.531 284.787L241.671 286.824L242.622 230.542L258.22 228.072C269.088 226.351 276.065 231.199 277.707 241.57ZM255.234 240.366L255.005 255.031L258.656 254.452C263.053 253.756 265.418 249.895 264.59 244.668C264.012 241.017 262.037 239.289 258.885 239.788L255.234 240.366Z" fill="white"/>
<path d="M209.83 291.867L210.781 235.586L237.911 231.289L237.746 243.136L223.476 245.396L223.224 257.768L234.756 255.942L234.522 267.885L222.99 269.712L222.689 289.831L209.83 291.867Z" fill="white"/>
<path d="M194.427 238.176L180.707 276.664L180.367 296.534L167.507 298.571L167.817 279.046L155.267 244.378L168.707 242.249L174.192 260.771L180.323 240.41L194.427 238.176Z" fill="white"/>
<path d="M146.53 245.762L153.167 244.711L152.216 300.992L139.356 303.029L139.726 282.814L134.578 292.73L130.098 293.439L124.337 283.381L123.924 305.473L111.065 307.51L112.016 251.228L118.653 250.177L132.115 274.495L146.53 245.762Z" fill="white"/>
<path d="M547.884 164.423C543.57 165.106 539.752 162.479 539.056 158.082C538.346 153.602 540.973 149.784 545.453 149.074C549.85 148.378 553.598 151.101 554.295 155.498C555.005 159.978 552.281 163.727 547.884 164.423Z" fill="white"/>
<path d="M520.447 168.769C507.67 170.792 500.744 161.428 501.146 142.484C501.516 122.27 506.896 112.743 518.926 110.837C531.952 108.774 538.646 117.75 538.341 136.763C537.984 157.061 532.477 166.863 520.447 168.769ZM519.73 156.721C523.795 156.077 525.142 151.696 525.302 138.744C525.427 126.647 523.875 122.215 519.644 122.885C515.661 123.516 514.471 127.277 514.198 140.587C513.963 152.531 515.581 157.378 519.73 156.721Z" fill="white"/>
<path d="M469.148 175.873L470.1 119.591L497.81 115.202L497.645 127.05L482.795 129.402L482.607 138.957L493.558 137.222L493.359 148.31L482.407 150.045L482.159 161.906L497.84 159.422L497.688 171.353L469.148 175.873Z" fill="white"/>
<path d="M442.035 180.167L442.764 135.912L432.228 137.581L432.449 125.554L466.382 120.18L466.161 132.207L455.624 133.875L454.894 178.13L442.035 180.167Z" fill="white"/>
<path d="M423.354 183.126L422.347 177.843L410.815 179.669L409.582 185.307L396.141 187.436L413.769 128.513L420.406 127.462L436.048 181.116L423.354 183.126ZM420.425 167.856L416.99 152.071L413.124 169.013L420.425 167.856Z" fill="white"/>
<path d="M388.024 132.591L394.661 131.54L393.71 187.821L380.85 189.858L381.22 169.643L376.072 179.559L371.592 180.268L365.831 170.21L365.418 192.302L352.558 194.339L353.51 138.057L360.147 137.006L373.609 161.323L388.024 132.591Z" fill="white"/>
<path d="M324.098 142.716L330.735 141.664L329.784 197.946L316.924 199.983L317.294 179.768L312.146 189.683L307.666 190.393L301.905 180.334L301.492 202.427L288.633 204.464L289.584 148.182L296.221 147.131L309.683 171.448L324.098 142.716Z" fill="white"/>
<path d="M270.614 175.255L271.044 151.119L284.816 148.937L280.155 173.744L270.614 175.255Z" fill="white"/>
<path d="M250.553 210.495L251.504 154.213L264.364 152.176L263.412 208.458L250.553 210.495Z" fill="white"/>
<path d="M214.984 216.129L215.936 159.847L228.795 157.81L227.844 214.092L214.984 216.129Z" fill="white"/>
<path d="M172.934 222.789L173.886 166.507L186.745 164.47L186.41 185.445L196.615 183.829L196.95 162.854L209.81 160.817L208.858 217.099L195.999 219.136L196.394 195.855L186.189 197.472L185.794 220.752L172.934 222.789Z" fill="white"/>
<path fill-rule="evenodd" clip-rule="evenodd" d="M584.185 307.498L584.034 316.431L614.54 311.6L614.853 293.574C622.059 291.843 628.244 288.042 632.486 282.387C637.304 275.961 639.067 267.863 637.738 259.469C636.649 252.591 633.559 246.339 627.776 242.33C622.06 238.367 615.1 237.561 608.182 238.656L585.287 242.282L584.387 295.559L589.252 294.789L589.101 306.719L584.185 307.498ZM606.18 286.154L610.577 285.458C623.603 283.395 631.044 273.456 629.046 260.845C627.404 250.475 620.427 245.626 609.559 247.348L593.961 249.818L593.01 306.1L605.87 304.063L606.18 286.154ZM609.995 273.728L606.345 274.307L606.573 259.642L610.224 259.064C611.671 258.835 612.87 259.075 613.8 259.755C614.446 260.228 614.962 260.913 615.341 261.801C615.604 262.418 615.801 263.134 615.929 263.944C616.302 266.296 616.028 268.372 615.213 270.007C614.217 272.005 612.413 273.345 609.995 273.728ZM607.191 265.096C607.192 265.095 607.196 265.108 607.203 265.137C607.194 265.111 607.191 265.097 607.191 265.096Z" fill="#DD505B"/>
<path fill-rule="evenodd" clip-rule="evenodd" d="M553.478 312.361L553.327 321.295L597.806 314.25L597.919 305.322L593.01 306.1L593.363 285.228L584.302 286.663L585.102 242.312L554.58 247.146L554.429 256.079L556.936 255.682L556.771 267.53L554.229 267.933L553.68 300.423L556.966 299.902L556.814 311.833L553.478 312.361ZM575.314 296.996L576.114 252.645L563.254 254.682L562.303 310.963L589.101 306.719L589.252 294.789L575.314 296.996Z" fill="#DD505B"/>
<path fill-rule="evenodd" clip-rule="evenodd" d="M519.449 317.751L519.298 326.684L565.519 319.364L565.633 310.436L562.303 310.963L562.656 290.091L561.258 290.313L561.522 275.687L562.903 275.469L563.254 254.682L565.756 254.285L565.88 245.356L520.551 252.535L520.4 261.469L523.099 261.042L522.148 317.323L519.449 317.751ZM541.92 269.882L556.771 267.53L556.936 255.682L529.225 260.071L528.274 316.353L556.814 311.833L556.966 299.902L541.285 302.386L541.533 290.525L552.484 288.79L552.684 277.703L541.733 279.437L541.92 269.882Z" fill="#DD505B"/>
<path fill-rule="evenodd" clip-rule="evenodd" d="M486.224 323.013L499.084 320.977L499.479 297.696L509.683 296.08L509.288 319.36L522.148 317.323L523.099 261.042L510.24 263.078L509.905 284.053L499.7 285.669L500.035 264.695L487.175 266.732L486.224 323.013ZM478.501 259.196L477.248 333.345L530.822 324.859L530.973 315.926L528.274 316.353L529.225 260.071L531.924 259.644L532.075 250.71L478.501 259.196Z" fill="#DD505B"/>
<path fill-rule="evenodd" clip-rule="evenodd" d="M419.482 328.019L419.237 342.533L478.797 333.099L467.705 308.459C472.429 302.165 474.287 294.073 472.941 285.57C471.851 278.692 468.762 272.441 462.979 268.431C457.262 264.468 450.302 263.662 443.385 264.757L420.49 268.384L420.339 277.317L423.038 276.89L422.298 317.319C422.238 321.386 421.237 325.019 419.482 328.019ZM457.254 306.68C462.841 302.223 465.55 295.16 464.249 286.947C462.606 276.576 455.63 271.728 444.762 273.449L429.164 275.92L428.213 332.201L441.072 330.164L441.383 312.255L446.029 311.52L453.268 328.233L466.045 326.209L457.254 306.68ZM441.776 285.744L445.427 285.165C446.874 284.936 448.073 285.176 449.002 285.856C449.648 286.329 450.165 287.014 450.543 287.902C450.807 288.52 451.004 289.235 451.132 290.045C451.505 292.397 451.231 294.473 450.415 296.109C449.419 298.107 447.616 299.447 445.198 299.83L441.547 300.408L441.776 285.744ZM442.394 291.197C442.395 291.197 442.399 291.21 442.406 291.238C442.397 291.211 442.393 291.197 442.394 291.197Z" fill="#DD505B"/>
<path fill-rule="evenodd" clip-rule="evenodd" d="M379.353 329.999C381.131 334.774 384.259 338.798 388.535 341.603C394.193 345.314 401.122 346.422 408.107 345.316C417.478 343.832 424.557 338.099 428.246 330.213L429.164 275.92L431.865 275.492L432.029 266.556L378.445 275.043L378.152 291.721C380.856 296.122 382.17 302.702 382.031 311.365C381.985 313.998 381.852 316.455 381.629 318.74C381.629 318.744 381.628 318.748 381.628 318.752C381.431 320.766 381.165 322.646 380.828 324.398C380.434 326.437 379.944 328.302 379.353 329.999ZM399.974 280.543L399.337 318.405C399.298 319.772 399.32 320.448 399.412 321.029C399.846 323.767 401.864 325.233 404.685 324.787C407.589 324.327 409.374 322.173 409.455 318.928L410.095 278.94L423.038 276.89L422.298 317.32C422.145 327.634 415.939 335.166 406.73 336.625C396.276 338.28 388.212 333.009 386.701 323.468C386.504 322.223 386.447 320.787 386.476 318.826L387.114 282.58L399.974 280.543Z" fill="#DD505B"/>
<path fill-rule="evenodd" clip-rule="evenodd" d="M345.967 289.097L341.877 289.744C346.204 282.276 352.914 278.066 361.239 276.747C370.23 275.323 378.734 277.695 384.369 285.227C385.376 286.573 386.245 288.027 386.991 289.574L386.606 311.439L386.606 311.446L386.476 318.826C386.446 320.786 386.504 322.223 386.701 323.468C387.049 325.662 387.743 327.631 388.733 329.341C387.863 332.71 386.688 335.799 385.14 338.563C380.823 346.276 374.036 350.712 365.514 352.062C356.439 353.499 348.001 350.842 342.456 343.306C337.494 336.562 335.827 327.169 336.037 316.954L345.967 289.097ZM344.836 317.086C344.434 336.03 351.36 345.394 364.137 343.37C376.167 341.465 381.674 331.663 382.031 311.365C382.336 292.351 375.642 283.376 362.616 285.439C350.586 287.344 345.206 296.871 344.836 317.086ZM368.992 313.345C368.832 326.298 367.485 330.678 363.42 331.322C359.271 331.979 357.653 327.133 357.888 315.189C358.161 301.878 359.351 298.118 363.334 297.487C367.565 296.817 369.117 301.249 368.992 313.345ZM367.693 303.993C367.693 303.994 367.69 304 367.686 304.011C367.691 303.998 367.693 303.993 367.693 303.993ZM359.482 303.516C359.481 303.515 359.486 303.525 359.494 303.547C359.486 303.528 359.482 303.518 359.482 303.516ZM367.362 325.206C367.376 325.234 367.382 325.25 367.381 325.251C367.381 325.251 367.374 325.237 367.362 325.206Z" fill="#DD505B"/>
<path fill-rule="evenodd" clip-rule="evenodd" d="M345.967 289.096L331.863 291.33L325.733 311.692L320.248 293.17L306.808 295.299L319.357 329.966L319.048 349.491L331.907 347.454L332.247 327.585L345.967 289.096ZM341.021 329.179L340.58 354.991L310.083 359.821L310.533 331.443L294.906 288.274L359.235 278.085L355.794 287.737C354.24 288.628 352.862 289.752 351.655 291.124C347.209 296.176 345.065 304.588 344.836 317.086C344.826 317.572 344.82 318.051 344.819 318.525L341.021 329.179Z" fill="#DD505B"/>
<path fill-rule="evenodd" clip-rule="evenodd" d="M245.84 361.086L245.689 370.02L271.307 365.962C280.275 364.542 287.948 360.619 293.18 353.214C298.185 346.13 300.165 336.955 300.37 326.551C300.577 316.336 298.337 306.876 292.288 300.259C285.899 293.27 276.844 291.135 267.348 292.639L246.942 295.871L246.791 304.805L249.298 304.408L249.133 316.255L246.591 316.658L246.042 349.148L249.328 348.627L249.176 360.558L245.84 361.086ZM254.665 359.689L269.931 357.271C284.284 354.997 291.197 345.483 291.572 326.373C291.939 308.285 283.41 299.005 268.725 301.331L255.616 303.407L254.665 359.689ZM276.738 339.3C277.759 336.608 278.343 332.871 278.441 327.772C278.528 322.803 278.07 319.216 277.073 316.809C276.363 315.092 275.378 313.976 274.123 313.387C273.031 312.874 271.733 312.761 270.233 312.998L268.325 313.301L267.842 345.695L269.75 345.393C272.886 344.896 275.266 343.184 276.738 339.3Z" fill="#DD505B"/>
<path fill-rule="evenodd" clip-rule="evenodd" d="M211.811 366.476L211.66 375.41L257.881 368.089L257.995 359.161L254.665 359.689L255.018 338.816L253.62 339.038L253.884 324.412L255.265 324.194L255.616 303.407L258.118 303.011L258.242 294.081L212.913 301.261L212.762 310.194L215.269 309.797L215.104 321.645L212.562 322.047L212.013 354.537L215.299 354.017L215.147 365.948L211.811 366.476ZM234.282 318.607L249.133 316.255L249.298 304.408L221.587 308.796L220.636 365.078L249.176 360.558L249.328 348.627L233.647 351.111L233.895 339.25L244.846 337.516L245.046 326.428L234.095 328.162L234.282 318.607Z" fill="#DD505B"/>
<path fill-rule="evenodd" clip-rule="evenodd" d="M177.782 371.866L177.631 380.799L223.852 373.478L223.966 364.551L220.636 365.078L220.989 344.206L219.591 344.427L219.855 329.802L221.236 329.583L221.587 308.796L224.089 308.4L224.213 299.471L178.884 306.65L178.733 315.584L181.433 315.156L180.481 371.438L177.782 371.866ZM200.253 323.997L215.104 321.645L215.269 309.797L187.558 314.186L186.607 370.468L215.147 365.948L215.299 354.017L199.618 356.501L199.866 344.64L210.817 342.905L211.017 331.817L200.066 333.552L200.253 323.997Z" fill="#DD505B"/>
<path fill-rule="evenodd" clip-rule="evenodd" d="M168.49 317.206L168.123 343.884L152.146 319.795L145.508 320.846L144.557 377.128L157.5 375.078L157.88 348.483L173.761 372.503L180.481 371.438L181.433 315.156L168.49 317.206ZM166.271 377.13L166.193 382.611L135.581 387.459L136.834 313.31L156.354 310.219L159.715 315.287L159.793 309.674L190.408 304.825L190.257 313.759L187.558 314.186L186.607 370.468L189.306 370.04L189.155 378.974L169.544 382.08L166.271 377.13Z" fill="#DD505B"/>
<path fill-rule="evenodd" clip-rule="evenodd" d="M607.401 228.898L620.261 226.862L621.212 170.58L608.352 172.617L607.401 228.898ZM598.425 239.23L599.679 165.081L630.188 160.248L628.935 234.397L598.425 239.23Z" fill="#DD505B"/>
<path fill-rule="evenodd" clip-rule="evenodd" d="M540.97 239.42L540.819 248.353L566.437 244.296C575.405 242.876 583.078 238.953 588.31 231.547C593.315 224.463 595.295 215.288 595.5 204.885C595.707 194.669 593.466 185.209 587.418 178.593C581.029 171.603 571.974 169.469 562.478 170.972L542.072 174.204L541.921 183.138L544.62 182.711L543.669 238.992L540.97 239.42ZM549.795 238.022L565.061 235.604C579.414 233.331 586.326 223.816 586.702 204.706C587.069 186.618 578.54 177.338 563.855 179.664L550.746 181.74L549.795 238.022ZM571.868 217.634C572.889 214.941 573.473 211.205 573.571 206.106C573.658 201.136 573.2 197.549 572.203 195.142C571.492 193.426 570.508 192.31 569.253 191.72C568.161 191.208 566.863 191.094 565.363 191.332L563.454 191.634L562.972 224.028L564.88 223.726C568.016 223.23 570.396 221.518 571.868 217.634Z" fill="#DD505B"/>
<path fill-rule="evenodd" clip-rule="evenodd" d="M498.92 246.08L498.769 255.014L529.381 250.165L529.459 244.685L532.732 249.634L552.343 246.528L552.494 237.595L549.795 238.022L550.746 181.74L553.445 181.313L553.596 172.379L522.981 177.228L522.903 182.841L519.542 177.773L500.022 180.865L499.298 223.714L505.514 245.036L498.92 246.08ZM531.311 211.438L515.334 187.349L508.696 188.4L507.745 244.682L520.688 242.632L521.068 216.037L536.949 240.057L543.669 238.992L544.621 182.711L531.678 184.761L531.311 211.438Z" fill="#DD505B"/>
<path fill-rule="evenodd" clip-rule="evenodd" d="M491.813 241.763L492.82 247.046L505.514 245.036L489.872 191.382L483.235 192.433L465.607 251.356L479.048 249.227L480.281 243.589L491.813 241.763ZM453.167 262.236L476.391 184.608L496.151 181.478L508.119 222.531L507.745 244.682L514.276 243.648L516.759 252.164L453.167 262.236ZM486.456 215.991L482.59 232.933L489.891 231.776L486.456 215.991Z" fill="#DD505B"/>
<path fill-rule="evenodd" clip-rule="evenodd" d="M410.4 252.178C412.311 256.168 415.043 259.631 418.808 262.15C424.513 265.967 431.259 266.727 437.982 265.662C444.989 264.552 451.146 261.165 455.255 255.792C459.391 250.383 460.994 243.551 459.882 236.529C458.967 230.749 455.976 226.362 451.448 221.879L463.248 216.474L461.084 209.156C459.266 203.008 456.098 197.41 450.719 193.821C445.259 190.179 438.904 189.524 432.629 190.518C425.681 191.618 419.597 195.039 415.576 200.472C412.702 204.356 411.123 208.943 410.855 213.793C411.929 215.405 412.806 217.273 413.473 219.386C414.36 222.193 414.878 225.432 415.001 229.075C416.019 230.543 417.205 231.949 418.534 233.332L414.908 234.765C414.835 236.03 414.73 237.249 414.592 238.422C414.344 240.541 413.99 242.512 413.529 244.34C412.775 247.328 411.735 249.934 410.4 252.178ZM427.531 229.774C428.286 230.453 429.107 231.162 429.999 231.907L433.73 235.058C434.633 235.827 435.361 236.468 435.949 237.027C436.113 237.183 436.267 237.333 436.41 237.478C437.763 238.842 438.211 239.722 438.405 240.951C438.734 243.025 437.075 244.904 434.669 245.285C432.219 245.673 430.567 245.092 429.351 243.215C429.224 243.02 429.103 242.811 428.985 242.587C428.788 242.212 428.602 241.795 428.427 241.336C428.423 241.326 428.419 241.315 428.415 241.304C428.174 240.669 427.952 239.953 427.745 239.153L416.62 243.551C417.233 245.952 418.061 248.042 419.097 249.817C419.462 250.441 419.852 251.026 420.267 251.572C423.863 256.298 429.368 258.116 436.605 256.97C446.727 255.367 452.715 247.53 451.19 237.906C450.582 234.065 448.469 230.934 442.806 225.837C442.108 225.209 441.356 224.551 440.546 223.858L436.802 220.624C436.293 220.187 435.841 219.778 435.441 219.391C435.266 219.223 435.102 219.059 434.947 218.899C433.524 217.43 432.88 216.265 432.677 214.984C432.374 213.076 433.701 211.249 435.775 210.921C437.647 210.625 438.897 210.996 439.955 212.429C440.219 212.788 440.472 213.213 440.719 213.71C440.943 214.161 441.163 214.673 441.383 215.248C441.387 215.259 441.391 215.27 441.396 215.281C441.398 215.286 441.4 215.292 441.402 215.298C441.554 215.698 441.707 216.128 441.861 216.591L452.645 211.651C451.84 208.929 450.798 206.649 449.509 204.805C449.256 204.443 448.994 204.097 448.722 203.769C445.334 199.678 440.468 198.186 434.005 199.21C424.133 200.773 418.311 208.584 419.861 218.374C420.454 222.119 422.561 225.305 427.531 229.774Z" fill="#DD505B"/>
<path fill-rule="evenodd" clip-rule="evenodd" d="M369.286 266.612L369.135 275.546L394.753 271.488C403.721 270.068 411.393 266.145 416.626 258.739C418.147 256.587 419.388 254.241 420.386 251.726C418.729 249.603 417.468 246.876 416.62 243.551L423.134 240.976C423.539 238.132 423.755 235.159 423.816 232.077C423.859 229.96 423.796 227.876 423.617 225.843C421.375 223.224 420.266 220.929 419.861 218.374C419.501 216.102 419.539 213.937 419.931 211.931C418.808 209.692 417.419 207.628 415.734 205.785C409.344 198.795 400.29 196.661 390.794 198.165L370.388 201.397L370.237 210.33L372.936 209.903L371.985 266.184L369.286 266.612ZM378.111 265.214L393.377 262.796C407.73 260.523 414.642 251.009 415.017 231.899C415.384 213.81 406.856 204.53 392.171 206.856L379.062 208.932L378.111 265.214ZM400.184 244.826C401.205 242.133 401.789 238.397 401.887 233.298C401.974 228.329 401.516 224.741 400.519 222.334C399.808 220.618 398.824 219.502 397.569 218.913C396.477 218.4 395.179 218.286 393.679 218.524L391.77 218.826L391.288 251.221L393.196 250.918C396.332 250.422 398.712 248.71 400.184 244.826Z" fill="#DD505B"/>
<path fill-rule="evenodd" clip-rule="evenodd" d="M327.236 273.272L327.085 282.206L357.697 277.357L357.775 271.877L361.048 276.827L380.659 273.72L380.81 264.787L378.111 265.214L379.062 208.933L381.761 208.505L381.912 199.571L351.296 204.421L351.219 210.034L347.858 204.965L328.338 208.057L328.187 216.99L330.694 216.593L330.529 228.441L327.987 228.844L327.438 261.334L330.724 260.813L330.572 272.744L327.236 273.272ZM359.626 238.631L343.649 214.541L337.012 215.593L336.061 271.874L349.003 269.824L349.384 243.23L365.265 267.249L371.985 266.185L372.936 209.903L359.994 211.953L359.626 238.631Z" fill="#DD505B"/>
<path fill-rule="evenodd" clip-rule="evenodd" d="M293.207 278.662L293.056 287.595L339.277 280.275L339.391 271.347L336.061 271.874L336.414 251.002L335.016 251.224L335.28 236.598L336.661 236.38L337.012 215.593L339.514 215.196L339.638 206.267L294.309 213.446L294.158 222.38L296.884 221.948L295.933 278.23L293.207 278.662ZM315.678 230.793L330.529 228.441L330.694 216.593L302.983 220.982L302.032 277.264L330.572 272.744L330.724 260.813L315.043 263.297L315.291 251.436L326.242 249.701L326.442 238.614L315.491 240.348L315.678 230.793Z" fill="#DD505B"/>
<path fill-rule="evenodd" clip-rule="evenodd" d="M274.664 257.037C277.491 252.85 278.648 247.511 277.707 241.57C277.241 238.626 276.345 236.127 275.052 234.097L275.35 216.449L305.86 211.617L305.709 220.55L302.983 220.982L302.032 277.264L304.757 276.832L304.606 285.766L274.097 290.598L274.248 281.664L279.503 280.832L274.452 269.61L274.664 257.037ZM283.073 280.267L295.933 278.23L296.884 221.948L284.024 223.985L283.073 280.267Z" fill="#DD505B"/>
<path fill-rule="evenodd" clip-rule="evenodd" d="M233.186 268.097L232.695 297.155L292.255 287.722L288.512 279.405L283.073 280.267L283.284 267.792L281.163 263.082C282.009 261.955 282.763 260.77 283.423 259.536L283.89 231.922C282.213 228.427 279.774 225.367 276.437 223.054C270.72 219.091 263.761 218.285 256.843 219.38L233.948 223.006L233.797 231.94L237.911 231.289L237.746 243.136L233.597 243.793L233.388 256.158L234.756 255.942L234.522 267.885L233.186 268.097ZM270.712 261.303C276.3 256.846 279.008 249.783 277.707 241.57C276.065 231.199 269.088 226.351 258.22 228.072L242.622 230.542L241.671 286.824L254.531 284.787L254.841 266.878L259.487 266.142L266.727 282.856L279.503 280.832L270.712 261.303ZM255.234 240.366L258.885 239.788C260.332 239.559 261.531 239.799 262.46 240.479C263.107 240.952 263.623 241.637 264.002 242.525C264.265 243.142 264.462 243.858 264.59 244.668C264.963 247.02 264.689 249.096 263.874 250.731C262.878 252.729 261.074 254.069 258.656 254.452L255.005 255.031L255.234 240.366ZM255.852 245.82C255.853 245.819 255.857 245.832 255.864 245.861C255.855 245.835 255.852 245.82 255.852 245.82Z" fill="#DD505B"/>
<path fill-rule="evenodd" clip-rule="evenodd" d="M209.83 291.867L222.689 289.831L222.99 269.712L234.522 267.885L234.756 255.942L223.224 257.768L223.476 245.396L237.746 243.136L237.911 231.289L210.781 235.586L209.83 291.867ZM241.86 275.633L231.678 277.245L231.378 297.364L200.854 302.199L202.107 228.05L246.855 220.962L246.731 229.892L242.622 230.542L241.86 275.633Z" fill="#DD505B"/>
<path fill-rule="evenodd" clip-rule="evenodd" d="M153.167 244.711L146.53 245.762L146.46 245.902L143.365 237.354L207.694 227.165L189.481 278.258L189.039 304.07L158.542 308.9L158.992 280.522L152.849 263.55L153.167 244.711ZM167.817 279.046L167.507 298.571L180.367 296.534L180.707 276.664L194.427 238.176L180.323 240.41L174.192 260.771L168.707 242.249L155.267 244.378L167.817 279.046Z" fill="#DD505B"/>
<path fill-rule="evenodd" clip-rule="evenodd" d="M153.167 244.711L146.53 245.762L132.115 274.495L118.653 250.177L112.016 251.228L111.065 307.51L123.924 305.473L124.337 283.381L130.098 293.439L134.578 292.73L139.726 282.814L139.356 303.029L152.216 300.992L153.167 244.711ZM102.089 317.841L103.342 243.692L123.366 240.521L131.732 255.633L140.69 237.777L162.143 234.379L161.992 243.313L155.267 244.378L161.675 262.079L160.89 308.528L102.089 317.841Z" fill="#DD505B"/>
<path fill-rule="evenodd" clip-rule="evenodd" d="M547.14 136.905L547.139 136.918C547.064 141.182 546.777 145.221 546.204 148.988C545.956 149.006 545.706 149.034 545.453 149.074C540.973 149.784 538.346 153.602 539.056 158.082C539.392 160.203 540.454 161.912 541.948 163.037C541.786 163.349 541.621 163.657 541.45 163.961C537.133 171.674 530.345 176.11 521.824 177.46C512.749 178.898 504.311 176.24 498.766 168.704C498.408 168.217 498.066 167.715 497.741 167.2L497.84 159.422L494.456 159.958C493.347 156.418 492.717 152.539 492.462 148.452L493.358 148.31L493.558 137.222L492.542 137.383C492.756 133.962 493.139 130.715 493.736 127.669L497.645 127.05L497.801 115.827C497.865 115.711 497.929 115.596 497.994 115.48C502.313 107.801 509.099 103.484 517.549 102.146C526.539 100.722 535.044 103.093 540.679 110.625C545.693 117.327 547.303 126.719 547.14 136.905ZM501.146 142.484C500.744 161.428 507.67 170.792 520.447 168.769C532.477 166.863 537.984 157.061 538.341 136.763C538.646 117.749 531.952 108.774 518.926 110.837C506.896 112.743 501.516 122.27 501.146 142.484ZM525.302 138.743C525.427 126.647 523.875 122.215 519.644 122.885C515.661 123.516 514.471 127.277 514.198 140.587C513.963 152.531 515.581 157.377 519.73 156.72C523.795 156.077 525.142 151.696 525.302 138.743ZM515.792 128.914C515.792 128.914 515.796 128.924 515.804 128.945C515.795 128.925 515.791 128.915 515.792 128.914ZM523.672 150.604C523.686 150.632 523.692 150.648 523.691 150.649C523.691 150.649 523.684 150.635 523.672 150.604Z" fill="#DD505B"/>
<path fill-rule="evenodd" clip-rule="evenodd" d="M460.172 186.204L461.071 133.013L466.161 132.207L466.382 120.18L461.275 120.989L461.426 112.055L506.754 104.876L506.567 118.331C504.973 120.682 503.749 123.596 502.869 127.122C502.744 127.624 502.625 128.138 502.514 128.664C502.084 130.701 501.756 132.925 501.528 135.345C501.466 136.003 501.411 136.676 501.363 137.363C501.251 138.988 501.179 140.694 501.146 142.484C501.101 144.593 501.147 146.584 501.282 148.453C501.319 148.96 501.362 149.458 501.411 149.947C501.564 151.453 501.779 152.875 502.054 154.21C502.455 156.157 502.984 157.921 503.639 159.496C504.435 161.412 505.417 163.049 506.577 164.398L506.394 178.884L460.172 186.204ZM482.407 150.045L493.359 148.31L493.558 137.222L482.607 138.957L482.795 129.402L497.645 127.05L497.81 115.202L470.1 119.591L469.148 175.873L497.688 171.353L497.84 159.422L482.159 161.906L482.407 150.045Z" fill="#DD505B"/>
<path fill-rule="evenodd" clip-rule="evenodd" d="M433.369 171.927L436.048 181.116L433.21 181.565L433.063 190.498L463.571 185.666L464.301 141.411L469.745 140.549L470.099 119.591L475.209 118.782L475.374 109.846L423.786 118.017L423.422 137.807L426.231 147.441L433.793 146.243L433.369 171.927ZM442.764 135.912L442.035 180.167L454.894 178.131L455.624 133.876L466.161 132.207L466.382 120.18L432.449 125.554L432.228 137.581L442.764 135.912Z" fill="#DD505B"/>
<path fill-rule="evenodd" clip-rule="evenodd" d="M383.701 198.316L386.499 188.963L393.71 187.821L394.121 163.487L406.925 120.687L426.685 117.558L432.245 136.63L432.228 137.581L432.51 137.536L442.19 170.741L442.035 180.167L444.81 179.728L447.293 188.244L383.701 198.316ZM436.048 181.115L423.354 183.126L422.347 177.842L410.815 179.669L409.582 185.307L396.141 187.436L413.769 128.513L420.406 127.462L436.048 181.115ZM416.99 152.071L413.124 169.012L420.425 167.856L416.99 152.071Z" fill="#DD505B"/>
<path fill-rule="evenodd" clip-rule="evenodd" d="M382.184 124.606L403.637 121.208L402.899 164.847L396.142 187.436L402.535 186.424L402.384 195.357L343.583 204.67L344.836 130.521L364.86 127.35L373.226 142.462L382.184 124.606ZM373.609 161.323L360.147 137.006L353.51 138.057L352.559 194.339L365.418 192.302L365.831 170.21L371.592 180.268L376.072 179.559L381.22 169.643L380.85 189.858L393.71 187.821L394.661 131.54L388.024 132.591L373.609 161.323Z" fill="#DD505B"/>
<path fill-rule="evenodd" clip-rule="evenodd" d="M318.258 134.731L339.711 131.333L338.458 205.482L279.657 214.795L280.37 172.601L284.816 148.937L280.759 149.58L280.91 140.646L300.934 137.475L309.3 152.587L318.258 134.731ZM309.683 171.448L296.221 147.131L289.584 148.182L288.633 204.464L301.492 202.427L301.905 180.334L307.666 190.393L312.146 189.683L317.294 179.768L316.924 199.983L329.784 197.946L330.735 141.664L324.098 142.716L309.683 171.448Z" fill="#DD505B"/>
<path fill-rule="evenodd" clip-rule="evenodd" d="M263.805 185.243L287.659 181.465L289.156 173.494L289.584 148.182L294.045 147.475L295.77 138.293L262.376 143.582L262.217 152.516L264.364 152.176L263.805 185.243ZM270.614 175.255L280.155 173.744L284.816 148.937L271.044 151.118L270.614 175.255Z" fill="#DD505B"/>
<path fill-rule="evenodd" clip-rule="evenodd" d="M241.577 220.826L242.83 146.677L273.34 141.845L273.189 150.779L271.044 151.118L270.614 175.255L272.781 174.912L272.086 215.994L241.577 220.826ZM250.553 210.495L263.412 208.458L264.364 152.176L251.504 154.213L250.553 210.495Z" fill="#DD505B"/>
<path fill-rule="evenodd" clip-rule="evenodd" d="M206.159 217.526L206.008 226.46L236.518 221.628L237.771 147.479L207.262 152.311L207.111 161.245L209.81 160.817L208.859 217.099L206.159 217.526ZM214.984 216.129L227.844 214.092L228.795 157.81L215.936 159.847L214.984 216.129Z" fill="#DD505B"/>
<path fill-rule="evenodd" clip-rule="evenodd" d="M163.958 233.12L165.212 158.971L218.786 150.486L218.635 159.419L215.936 159.847L214.984 216.129L217.683 215.701L217.532 224.635L163.958 233.12ZM195.999 219.136L196.394 195.855L186.189 197.471L185.794 220.752L172.934 222.789L173.886 166.507L186.745 164.47L186.41 185.445L196.615 183.829L196.95 162.854L209.81 160.817L208.859 217.099L195.999 219.136Z" fill="#DD505B"/>
</svg>
