<svg width="742" height="462" viewBox="0 0 742 462" fill="none" xmlns="http://www.w3.org/2000/svg">
<path d="M741.377 188.971L734.83 173.42L732.784 160.121C725.827 146.412 714.983 134.34 700.865 125.951C667.718 106.104 626.387 111.424 599.379 136.386C593.445 127.997 576.667 105.899 562.14 97.7149C559.889 96.078 557.843 94.4411 555.592 92.8043C537.587 80.5277 517.535 72.9571 497.279 69.888L498.097 68.865C498.711 68.0465 498.711 67.0235 498.097 66.4097C495.642 62.7267 477.227 36.5368 461.472 27.7386C459.426 26.1017 457.38 24.6694 455.334 23.2372C395.383 -17.6847 313.335 -2.13438 272.413 57.8161C266.889 66.0005 263.819 75.2079 260.136 84.2107C259.932 85.0291 258.295 81.3462 257.886 81.96C257.272 83.3923 253.18 97.9196 251.748 105.49C248.269 104.876 241.517 104.467 241.517 104.467C241.517 104.467 239.062 102.83 236.197 102.216C206.529 97.5103 176.861 101.603 150.466 112.651L125.913 132.703L102.997 143.343C81.9219 162.985 65.9624 188.561 57.9827 218.434C53.2767 236.031 51.8445 253.832 53.0721 271.019C36.4988 277.771 21.9715 289.638 12.1503 306.007C-7.49218 338.745 -2.5816 379.257 21.5623 406.47L25.0407 407.493L37.3172 420.384C38.5449 421.202 39.9771 422.02 41.2047 422.839C77.0113 444.323 122.639 436.343 149.238 405.856C156.195 408.721 163.357 411.381 170.722 413.222C201.005 421.202 231.491 420.179 259.318 411.381C267.503 421.816 277.324 431.228 288.782 439.003C325.612 464.17 370.83 467.853 409.706 453.121C413.184 453.326 417.89 451.28 421.983 449.233C429.758 445.141 437.124 440.231 444.08 434.706C446.536 432.865 446.331 430.614 450.219 426.931C454.106 423.248 455.948 424.067 458.403 421.611C470.679 408.516 480.296 393.784 486.639 377.62C492.982 384.372 500.143 390.511 508.123 395.83C544.953 420.997 590.171 424.68 629.047 409.948C632.525 410.153 637.231 408.107 641.324 406.061C649.099 401.969 656.465 397.058 663.421 391.534C665.877 389.692 665.672 387.441 669.56 383.758C673.447 380.076 675.289 380.894 677.744 378.439C697.182 357.773 709.868 332.606 713.96 305.598C714.164 304.575 713.551 303.756 712.732 303.142C714.369 290.047 713.96 276.953 711.504 264.062C718.461 258.128 724.804 250.967 729.715 242.783C730.533 241.555 732.17 237.054 732.17 237.054C732.17 237.054 733.398 236.031 734.011 234.598C740.968 219.867 743.219 204.112 741.377 188.971Z" fill="#E74250"/>
<path d="M626.252 289.774L624.453 254.255L638.972 251.955L636.125 288.211L626.252 289.774ZM632.62 310.113C628.223 310.809 624.475 308.086 623.765 303.606C623.069 299.209 625.792 295.46 630.189 294.764C634.586 294.068 638.334 296.791 639.031 301.188C639.74 305.668 637.017 309.416 632.62 310.113Z" fill="#FFF685"/>
<path d="M579.876 317.446L580.827 261.164L593.687 259.128L593.352 280.102L603.556 278.486L603.891 257.511L616.751 255.475L615.8 311.756L602.94 313.793L603.335 290.513L593.13 292.129L592.735 315.409L579.876 317.446Z" fill="#FFF685"/>
<path d="M560.443 321.544C547.666 323.568 540.74 314.204 541.142 295.26C541.525 275.128 546.892 265.519 558.673 263.653C568.712 262.063 574.662 267.414 576.498 279.54L565.172 283.205C564.335 277.384 562.709 275.175 559.639 275.661C555.657 276.292 554.467 280.053 554.193 293.363C553.959 305.307 555.577 310.153 559.725 309.496C562.38 309.076 563.947 306.617 564.888 301.28L576.278 303.388C574.296 314.503 569.32 320.138 560.443 321.544Z" fill="#FFF685"/>
<path d="M515.168 327.695L515.898 283.44L505.361 285.109L505.583 273.082L539.516 267.707L539.294 279.734L528.758 281.403L528.028 325.658L515.168 327.695Z" fill="#FFF685"/>
<path d="M488.078 331.985L489.03 275.703L501.889 273.667L500.938 329.948L488.078 331.985Z" fill="#FFF685"/>
<path d="M472.252 278.361L486.274 276.14L469.725 334.892L463.088 335.944L456.534 311.212L449.149 338.151L442.512 339.202L427.949 285.378L441.14 283.289L446.532 308.204L453.502 281.331L459.891 280.319L465.973 305.295L472.252 278.361Z" fill="#FFF685"/>
<path d="M411.009 304.645C412.31 312.859 409.601 319.921 404.014 324.378L412.805 343.907L400.028 345.931L392.789 329.218L392.54 329.257L388.143 329.954L387.832 347.863L374.973 349.9L375.924 293.618L391.522 291.147C402.39 289.426 409.366 294.274 411.009 304.645ZM388.536 303.442L388.307 318.106L391.958 317.528C396.355 316.831 398.72 312.97 397.892 307.743C397.314 304.093 395.339 302.364 392.187 302.864L388.536 303.442Z" fill="#FFF685"/>
<path d="M340.944 355.289L341.895 299.007L369.606 294.619L369.441 306.466L354.59 308.818L354.403 318.373L365.354 316.639L365.154 327.727L354.203 329.461L353.955 341.322L369.635 338.838L369.484 350.769L340.944 355.289Z" fill="#FFF685"/>
<path d="M325.477 301.608L339.498 299.387L321.954 358.297L315.316 359.348L299.591 305.708L312.7 303.631L318.624 327.612L325.477 301.608Z" fill="#FFF685"/>
<path d="M268.511 366.761L269.462 310.48L297.173 306.091L297.008 317.938L282.157 320.29L281.969 329.845L292.921 328.111L292.721 339.199L281.769 340.933L281.522 352.794L297.202 350.31L297.051 362.241L268.511 366.761Z" fill="#FFF685"/>
<path d="M250.393 313.5L263.336 311.45L262.385 367.732L255.665 368.796L239.784 344.777L239.403 371.372L226.461 373.422L227.412 317.14L234.049 316.089L250.026 340.178L250.393 313.5Z" fill="#FFF685"/>
<path d="M175.822 381.442L176.774 325.16L204.484 320.771L204.32 332.619L189.469 334.971L189.281 344.526L200.233 342.791L200.033 353.879L189.081 355.614L188.833 367.474L204.514 364.991L204.363 376.921L175.822 381.442Z" fill="#FFF685"/>
<path d="M133.772 388.102L134.724 331.82L147.583 329.783L147.248 350.758L157.453 349.142L157.788 328.167L170.648 326.13L169.696 382.412L156.837 384.449L157.232 361.168L147.027 362.785L146.632 386.065L133.772 388.102Z" fill="#FFF685"/>
<path d="M106.659 392.396L107.388 348.141L96.8518 349.81L97.0732 337.783L131.006 332.409L130.785 344.436L120.248 346.104L119.518 390.359L106.659 392.396Z" fill="#FFF685"/>
<path d="M652.782 174.845L659.42 173.794L658.468 230.076L645.609 232.112L645.979 211.898L640.831 221.813L636.35 222.523L630.59 212.464L630.177 234.557L617.317 236.593L618.269 180.312L624.906 179.26L638.368 203.578L652.782 174.845Z" fill="white"/>
<path d="M595.292 241.102C582.515 243.126 575.589 233.762 575.991 214.818C576.361 194.603 581.741 185.076 593.771 183.171C606.796 181.108 613.491 190.083 613.186 209.097C612.828 229.395 607.322 239.197 595.292 241.102ZM594.574 229.054C598.64 228.41 599.987 224.03 600.147 211.077C600.272 198.981 598.72 194.549 594.488 195.219C590.506 195.85 589.316 199.61 589.043 212.921C588.808 224.865 590.426 229.711 594.574 229.054Z" fill="white"/>
<path d="M572.656 204.12C573.957 212.334 571.249 219.396 565.661 223.853L574.452 243.383L561.676 245.406L554.436 228.693L554.187 228.732L549.79 229.429L549.48 247.338L536.62 249.375L537.571 193.093L553.169 190.622C564.037 188.901 571.014 193.749 572.656 204.12ZM550.183 202.917L549.955 217.581L553.605 217.003C558.002 216.307 560.367 212.445 559.539 207.218C558.961 203.568 556.987 201.839 553.834 202.339L550.183 202.917Z" fill="white"/>
<path d="M504.779 254.418L505.73 198.136L532.86 193.839L532.695 205.687L518.425 207.947L518.173 220.319L529.706 218.492L529.471 230.436L517.939 232.262L517.638 252.381L504.779 254.418Z" fill="white"/>
<path d="M485.393 201.357L472.529 231.29L485.271 257.508L471.997 259.61L459.797 234.667L459.303 261.621L446.443 263.657L447.395 207.376L460.254 205.339L459.855 229.13L470.459 203.723L485.393 201.357Z" fill="white"/>
<path d="M427.011 267.756C414.234 269.779 407.308 260.416 407.709 241.471C408.093 221.34 413.459 211.73 425.241 209.864C435.279 208.274 441.23 213.625 443.065 225.751L431.739 229.416C430.902 223.595 429.277 221.386 426.207 221.872C422.225 222.503 421.034 226.264 420.761 239.574C420.527 251.518 422.145 256.365 426.293 255.708C428.948 255.287 430.515 252.828 431.455 247.491L442.845 249.599C440.864 260.714 435.888 266.35 427.011 267.756Z" fill="white"/>
<path d="M395.383 271.744L394.376 266.461L382.844 268.287L381.611 273.926L368.17 276.055L385.798 217.132L392.435 216.08L408.077 269.734L395.383 271.744ZM392.454 256.475L389.019 240.69L385.153 257.631L392.454 256.475Z" fill="white"/>
<path d="M349.165 279.065L349.895 234.81L339.359 236.478L339.58 224.452L373.513 219.077L373.292 231.104L362.755 232.773L362.025 277.028L349.165 279.065Z" fill="white"/>
<path d="M313.921 284.647L314.651 240.392L304.114 242.06L304.336 230.034L338.269 224.659L338.047 236.686L327.511 238.355L326.781 282.61L313.921 284.647Z" fill="white"/>
<path d="M295.241 287.605L294.234 282.322L282.702 284.148L281.468 289.787L268.028 291.915L285.655 232.992L292.293 231.941L307.935 285.595L295.241 287.605ZM292.312 272.335L288.876 256.551L285.011 273.492L292.312 272.335Z" fill="white"/>
<path d="M252.703 254.796C254.004 263.009 251.296 270.072 245.708 274.529L254.499 294.058L241.723 296.082L234.483 279.369L234.234 279.408L229.837 280.104L229.527 298.013L216.667 300.05L217.618 243.768L233.216 241.298C244.084 239.577 251.061 244.425 252.703 254.796ZM230.23 253.592L230.001 268.257L233.652 267.679C238.049 266.982 240.414 263.121 239.586 257.894C239.008 254.243 237.033 252.515 233.881 253.014L230.23 253.592Z" fill="white"/>
<path d="M182.638 305.44L183.589 249.158L211.3 244.769L211.135 256.617L196.284 258.969L196.097 268.524L207.048 266.789L206.848 277.877L195.897 279.612L195.649 291.472L211.33 288.989L211.178 300.919L182.638 305.44Z" fill="white"/>
<path d="M141.641 311.933L142.592 255.651L155.701 253.575C170.386 251.249 178.915 260.529 178.548 278.618C178.173 297.728 171.26 307.242 156.907 309.515L141.641 311.933ZM154.818 297.94L156.726 297.637C162.036 296.796 165.178 292.472 165.417 280.017C165.621 268.418 162.85 264.35 157.209 265.243L155.301 265.545L154.818 297.94Z" fill="white"/>
<path d="M123.524 258.671L136.467 256.622L135.515 312.903L128.795 313.968L112.914 289.948L112.534 316.543L99.5911 318.593L100.542 262.311L107.18 261.26L123.157 285.349L123.524 258.671Z" fill="white"/>
<path d="M78.1083 323.016C67.6546 324.672 59.5907 319.401 58.0795 309.859C57.8824 308.615 57.825 307.178 57.8546 305.218L58.4923 268.972L71.352 266.935L70.7151 304.797C70.6764 306.163 70.6986 306.84 70.7906 307.421C71.2242 310.159 73.2424 311.625 76.0633 311.178C78.9671 310.719 80.7521 308.565 80.8336 305.32L81.4739 265.332L94.4165 263.282L93.676 303.711C93.5237 314.026 87.3175 321.558 78.1083 323.016Z" fill="white"/>
<path d="M571.507 169.947C561.053 171.603 554.212 167.073 551.521 156.529L562.646 152.13C563.959 157.195 565.837 158.854 569.571 158.262C571.977 157.881 573.635 156.003 573.307 153.929C573.018 152.103 572.17 151.047 568.631 148.035L564.901 144.884C558.138 139.237 555.446 135.666 554.763 131.352C553.212 121.562 559.034 113.751 568.907 112.187C578.531 110.663 584.616 114.717 587.547 124.628L576.763 129.568C575.145 124.721 573.747 123.412 570.677 123.898C568.603 124.227 567.276 126.053 567.578 127.961C567.854 129.703 568.947 131.231 571.703 133.601L575.447 136.835C582.826 143.151 585.409 146.569 586.092 150.883C587.616 160.507 581.628 168.344 571.507 169.947Z" fill="white"/>
<path d="M535.05 174.701L536.001 118.419L548.861 116.382L547.91 172.664L535.05 174.701Z" fill="white"/>
<path d="M477.444 183.825L478.395 127.543L491.504 125.467C506.189 123.141 514.717 132.421 514.351 150.509C513.975 169.619 507.063 179.134 492.71 181.407L477.444 183.825ZM490.621 169.831L492.529 169.529C497.839 168.688 500.981 164.363 501.22 151.909C501.424 140.31 498.653 136.241 493.012 137.135L491.103 137.437L490.621 169.831Z" fill="white"/>
<path d="M446.737 188.688L447.688 132.407L460.548 130.37L459.748 174.721L473.686 172.513L473.535 184.444L446.737 188.688Z" fill="white"/>
<path d="M441.371 149.991C442.672 158.205 439.964 165.268 434.376 169.724L443.167 189.254L430.391 191.277L423.151 174.564L422.902 174.603L418.505 175.3L418.195 193.209L405.335 195.246L406.286 138.964L421.884 136.494C432.752 134.772 439.729 139.621 441.371 149.991ZM418.898 148.788L418.669 163.452L422.32 162.874C426.717 162.178 429.082 158.316 428.254 153.089C427.676 149.439 425.701 147.71 422.549 148.21L418.898 148.788Z" fill="white"/>
<path d="M383.31 199.755C370.533 201.778 363.607 192.415 364.008 173.471C364.379 153.256 369.758 143.729 381.788 141.823C394.814 139.76 401.509 148.736 401.203 167.749C400.846 188.047 395.34 197.849 383.31 199.755ZM382.592 187.707C386.657 187.063 388.005 182.682 388.164 169.73C388.29 157.633 386.737 153.201 382.506 153.872C378.524 154.502 377.333 158.263 377.06 171.573C376.826 183.517 378.444 188.364 382.592 187.707Z" fill="white"/>
<path d="M349.89 147.896L363.911 145.676L347.362 204.428L340.725 205.479L334.171 180.748L326.786 207.687L320.149 208.738L305.586 154.913L318.777 152.824L324.169 177.739L331.139 150.866L337.528 149.854L343.61 174.83L349.89 147.896Z" fill="white"/>
<path d="M282.16 158.624L288.798 157.572L287.846 213.854L274.987 215.891L275.357 195.676L270.209 205.591L265.728 206.301L259.968 196.242L259.555 218.335L246.695 220.372L247.646 164.09L254.284 163.039L267.746 187.356L282.16 158.624Z" fill="white"/>
<path d="M231.77 222.736L230.763 217.452L219.231 219.279L217.998 224.917L204.558 227.046L222.185 168.123L228.822 167.072L244.464 220.725L231.77 222.736ZM228.842 207.466L225.406 191.681L221.541 208.622L228.842 207.466Z" fill="white"/>
<path d="M174.262 231.844L175.213 175.562L202.924 171.173L202.759 183.021L187.908 185.373L187.721 194.928L198.672 193.194L198.472 204.281L187.521 206.016L187.273 217.877L202.954 215.393L202.802 227.324L174.262 231.844Z" fill="white"/>
<path d="M168.897 193.147C170.197 201.361 167.489 208.423 161.901 212.88L170.693 232.409L157.916 234.433L150.676 217.72L150.427 217.759L146.03 218.456L145.72 236.365L132.86 238.401L133.812 182.12L149.409 179.649C160.278 177.928 167.254 182.776 168.897 193.147ZM146.424 191.944L146.195 206.608L149.845 206.03C154.242 205.333 156.608 201.472 155.78 196.245C155.202 192.595 153.227 190.866 150.074 191.366L146.424 191.944Z" fill="white"/>
<path d="M91.8634 244.895L92.8147 188.613L105.923 186.537C120.608 184.211 129.137 193.491 128.77 211.579C128.395 230.689 121.482 240.203 107.129 242.477L91.8634 244.895ZM105.041 230.901L106.949 230.599C112.259 229.758 115.401 225.433 115.639 212.978C115.843 201.38 113.073 197.311 107.431 198.204L105.523 198.507L105.041 230.901Z" fill="white"/>
<path fill-rule="evenodd" clip-rule="evenodd" d="M615.862 308.104C618.482 315.527 625.829 320.098 633.997 318.804C643.256 317.338 649.182 309.029 647.722 299.811C647.275 296.986 646.186 294.463 644.626 292.365L648.619 241.517L615.265 246.8L615.712 255.639L616.751 255.474L616.489 270.98L617.61 293.108C617 294.016 616.482 294.986 616.066 296.007L615.862 308.104ZM626.252 289.774L624.453 254.254L638.972 251.955L636.125 288.211L626.252 289.774ZM624.368 298.982C623.732 300.339 623.499 301.925 623.765 303.606C624.475 308.086 628.223 310.809 632.62 310.113C637.017 309.416 639.74 305.668 639.031 301.188C638.765 299.507 638.053 298.071 637.029 296.977C635.375 295.209 632.906 294.334 630.189 294.764C629.081 294.939 628.079 295.309 627.212 295.833C625.952 296.595 624.976 297.684 624.368 298.982Z" fill="#DD505B"/>
<path fill-rule="evenodd" clip-rule="evenodd" d="M571.1 315.928L570.9 327.777L624.474 319.292L624.692 306.369C624.245 305.552 623.926 304.624 623.765 303.606C623.442 301.565 623.855 299.663 624.831 298.142L625.293 270.832L624.453 254.254L625.576 254.077L625.727 245.143L572.153 253.628L571.914 267.745C574.187 270.439 575.716 274.374 576.498 279.54L571.689 281.096L571.327 302.471L576.278 303.388C575.306 308.835 573.616 312.966 571.1 315.928ZM593.686 259.127L593.352 280.102L603.556 278.486L603.891 257.511L616.751 255.474L615.8 311.756L602.94 313.793L603.335 290.512L593.13 292.129L592.735 315.409L579.876 317.446L580.827 261.164L593.686 259.127Z" fill="#DD505B"/>
<path fill-rule="evenodd" clip-rule="evenodd" d="M533.707 280.619C532.852 285.045 532.443 289.895 532.343 295.082C532.128 305.315 533.792 314.725 538.762 321.48C544.307 329.016 552.744 331.673 561.82 330.236C567.924 329.269 573.386 326.684 577.57 321.9C578.81 320.483 579.875 318.943 580.79 317.301L579.876 317.446L580.252 295.174L565.311 292.409L580.381 287.532L580.762 265.022C579.606 263.126 578.208 261.394 576.524 259.89C571.07 255.017 564.163 253.873 557.296 254.961C549.037 256.269 542.433 260.526 538.174 267.92L539.516 267.707L539.294 279.734L533.707 280.619ZM563.999 282.168C563.998 282.169 563.996 282.175 563.991 282.185C563.996 282.172 563.999 282.166 563.999 282.168ZM554.193 293.363C554.467 280.052 555.657 276.292 559.639 275.661C561.118 275.427 562.262 275.818 563.143 276.937C564.092 278.141 564.738 280.188 565.171 283.205L576.498 279.54C574.662 267.414 568.712 262.063 558.673 263.653C546.892 265.518 541.525 275.128 541.141 295.26C540.74 314.204 547.666 323.568 560.443 321.544C566.689 320.555 571.003 317.472 573.702 311.861C574.767 309.647 575.58 307.041 576.162 304.014C576.201 303.807 576.24 303.599 576.278 303.388L564.887 301.28C564.849 301.496 564.81 301.708 564.77 301.916C563.818 306.813 562.272 309.093 559.725 309.496C555.577 310.153 553.959 305.307 554.193 293.363ZM563.687 303.425C563.686 303.425 563.679 303.41 563.668 303.379C563.682 303.409 563.688 303.425 563.687 303.425Z" fill="#DD505B"/>
<path fill-rule="evenodd" clip-rule="evenodd" d="M501.535 294.624L506.926 293.77L506.196 338.025L536.704 333.193L537.434 288.938L541.513 288.292C541.806 285.14 542.264 282.314 542.897 279.8C544.076 275.121 545.857 271.52 548.295 268.895L548.507 257.373L496.92 265.544L496.755 274.48L501.889 273.667L501.535 294.624ZM528.758 281.403L539.294 279.734L539.516 267.707L505.582 273.082L505.361 285.108L515.898 283.44L515.168 327.695L528.028 325.658L528.758 281.403Z" fill="#DD505B"/>
<path fill-rule="evenodd" clip-rule="evenodd" d="M479.835 299L479.102 342.317L509.612 337.484L510.511 284.293L505.361 285.108L505.583 273.082L510.714 272.269L510.865 263.335L480.356 268.168L480.205 277.101L486.274 276.14L479.835 299ZM488.078 331.985L500.938 329.948L501.889 273.667L489.03 275.703L488.078 331.985Z" fill="#DD505B"/>
<path fill-rule="evenodd" clip-rule="evenodd" d="M472.252 278.361L465.972 305.295L459.89 280.319L453.502 281.33L446.532 308.204L441.14 283.288L427.949 285.378L442.512 339.202L449.149 338.151L456.534 311.212L463.087 335.943L469.725 334.892L486.274 276.14L472.252 278.361ZM456.39 345.024L456.135 345.954L436.082 349.13L416.895 278.219L498.47 265.299L495.843 274.624L489.03 275.703L488.614 300.288L476.667 342.702L456.616 345.878L456.39 345.024Z" fill="#DD505B"/>
<path fill-rule="evenodd" clip-rule="evenodd" d="M366.148 351.297L365.997 360.231L425.557 350.797L414.465 326.157C419.189 319.863 421.047 311.771 419.701 303.268C418.611 296.39 415.522 290.139 409.739 286.129C404.022 282.166 397.062 281.36 390.145 282.455L367.25 286.082L367.099 295.015L369.605 294.618L369.441 306.466L366.899 306.869L366.349 339.358L369.635 338.838L369.484 350.769L366.148 351.297ZM404.014 324.378C409.601 319.921 412.31 312.858 411.009 304.645C409.366 294.274 402.39 289.426 391.521 291.147L375.924 293.618L374.973 349.899L387.832 347.862L388.142 329.953L392.789 329.218L400.028 345.931L412.805 343.907L404.014 324.378ZM388.536 303.442L392.186 302.863C393.634 302.634 394.832 302.874 395.762 303.554C396.408 304.027 396.924 304.712 397.303 305.6C397.567 306.218 397.764 306.933 397.892 307.743C398.265 310.095 397.99 312.171 397.175 313.807C396.179 315.805 394.376 317.145 391.958 317.528L388.307 318.106L388.536 303.442ZM389.154 308.895C389.154 308.894 389.159 308.907 389.165 308.936C389.157 308.91 389.153 308.896 389.154 308.895Z" fill="#DD505B"/>
<path fill-rule="evenodd" clip-rule="evenodd" d="M332.702 322.208L331.968 365.621L378.189 358.3L378.302 349.372L374.973 349.9L375.325 329.027L373.928 329.249L374.192 314.623L375.573 314.405L375.924 293.618L378.426 293.222L378.55 284.292L333.221 291.472L333.07 300.405L339.498 299.387L332.702 322.208ZM354.59 308.818L369.441 306.466L369.606 294.618L341.895 299.007L340.944 355.289L369.484 350.769L369.635 338.838L353.955 341.322L354.202 329.461L365.154 327.726L365.354 316.639L354.402 318.373L354.59 308.818Z" fill="#DD505B"/>
<path fill-rule="evenodd" clip-rule="evenodd" d="M294.14 318.392L309.049 369.25L328.805 366.121L341.48 323.563L341.895 299.007L349.134 297.861L351.919 288.51L288.332 298.581L290.828 307.095L297.172 306.091L297.008 317.938L294.14 318.392ZM312.7 303.631L299.591 305.707L315.316 359.348L321.953 358.297L339.498 299.387L325.477 301.608L318.624 327.612L312.7 303.631Z" fill="#DD505B"/>
<path fill-rule="evenodd" clip-rule="evenodd" d="M259.686 368.159L259.535 377.093L305.756 369.772L306.134 339.986L301.495 340.721L301.759 326.096L305.399 325.519L299.591 305.708L305.993 304.694L306.117 295.764L260.788 302.944L260.637 311.877L263.336 311.45L262.385 367.732L259.686 368.159ZM282.157 320.29L297.008 317.938L297.172 306.091L269.462 310.48L268.511 366.761L297.051 362.241L297.202 350.31L281.522 352.794L281.769 340.933L292.721 339.199L292.921 328.111L281.969 329.845L282.157 320.29Z" fill="#DD505B"/>
<path fill-rule="evenodd" clip-rule="evenodd" d="M250.393 313.5L250.026 340.178L234.049 316.089L227.412 317.14L226.46 373.421L239.403 371.372L239.783 344.777L255.664 368.796L262.385 367.732L263.336 311.45L250.393 313.5ZM248.175 373.424L248.096 378.904L217.485 383.753L218.738 309.604L238.257 306.512L241.619 311.581L241.696 305.968L272.312 301.119L272.161 310.052L269.462 310.48L268.511 366.761L271.21 366.334L271.059 375.268L251.447 378.374L248.175 373.424Z" fill="#DD505B"/>
<path fill-rule="evenodd" clip-rule="evenodd" d="M166.997 382.839L166.846 391.773L213.067 384.452L213.446 354.666L208.806 355.401L209.07 340.776L213.016 340.151L213.428 310.445L168.1 317.624L167.949 326.558L170.648 326.13L169.696 382.412L166.997 382.839ZM189.469 334.971L204.319 332.619L204.484 320.771L176.773 325.16L175.822 381.442L204.362 376.921L204.514 364.991L188.833 367.474L189.081 355.614L200.032 353.879L200.232 342.791L189.281 344.526L189.469 334.971Z" fill="#DD505B"/>
<path fill-rule="evenodd" clip-rule="evenodd" d="M125.695 345.242L124.796 398.433L178.37 389.948L178.521 381.014L175.822 381.442L176.773 325.16L179.472 324.733L179.623 315.799L126.05 324.284L125.899 333.218L131.006 332.409L130.785 344.436L125.695 345.242ZM147.583 329.783L147.248 350.758L157.453 349.142L157.788 328.167L170.648 326.13L169.696 382.412L156.837 384.449L157.232 361.168L147.027 362.785L146.632 386.065L133.772 388.102L134.723 331.82L147.583 329.783Z" fill="#DD505B"/>
<path fill-rule="evenodd" clip-rule="evenodd" d="M106.658 392.396L119.518 390.359L120.248 346.104L130.785 344.435L131.006 332.409L97.0731 337.783L96.8518 349.81L107.388 348.141L106.658 392.396ZM98.4168 358.472L97.6868 402.727L128.195 397.895L128.925 353.64L134.369 352.777L134.723 331.82L139.833 331.011L139.998 322.075L88.4103 330.246L87.8601 360.144L98.4168 358.472Z" fill="#DD505B"/>
<path fill-rule="evenodd" clip-rule="evenodd" d="M608.593 232.038L608.341 246.925L667.142 237.612L668.395 163.463L646.943 166.86L637.985 184.717L629.619 169.604L609.595 172.776L609.312 189.464C612.012 193.864 613.324 200.44 613.185 209.097C613.006 219.273 611.533 226.811 608.593 232.038ZM638.368 203.578L624.906 179.26L618.268 180.312L617.317 236.593L630.177 234.557L630.59 212.464L636.35 222.523L640.831 221.813L645.979 211.898L645.608 232.112L658.468 230.076L659.419 173.794L652.782 174.845L638.368 203.578Z" fill="#DD505B"/>
<path fill-rule="evenodd" clip-rule="evenodd" d="M571.968 214.733C572.996 211.546 573.264 207.959 572.656 204.12C572.136 200.836 571.081 198.106 569.537 195.963C570.368 193.006 571.451 190.28 572.838 187.814C577.158 180.135 583.944 175.818 592.394 174.48C601.384 173.056 609.889 175.427 615.524 182.959C616.532 184.308 617.403 185.765 618.15 187.316L617.781 209.171L617.78 209.178L617.357 234.225C617.024 234.934 616.671 235.624 616.295 236.295C611.978 244.008 605.19 248.444 596.668 249.794C587.593 251.232 579.155 248.574 573.611 241.038C573.408 240.762 573.21 240.482 573.018 240.197L568.99 231.248C568.196 228.434 567.688 225.421 567.417 222.271C569.493 220.159 571.037 217.614 571.965 214.745C571.966 214.741 571.967 214.737 571.968 214.733ZM575.99 214.818C575.589 233.762 582.515 243.126 595.292 241.102C607.322 239.197 612.828 229.395 613.185 209.097C613.491 190.083 606.796 181.108 593.771 183.171C581.741 185.077 576.361 194.603 575.99 214.818ZM600.147 211.077C599.987 224.03 598.64 228.411 594.574 229.054C590.426 229.711 588.808 224.865 589.042 212.921C589.315 199.611 590.506 195.85 594.488 195.219C598.719 194.549 600.272 198.981 600.147 211.077ZM598.536 222.983C598.535 222.984 598.529 222.969 598.517 222.937C598.53 222.966 598.536 222.982 598.536 222.983Z" fill="#DD505B"/>
<path fill-rule="evenodd" clip-rule="evenodd" d="M528.135 230.647L527.644 259.706L587.204 250.273L580.701 235.825C579.23 233.827 578.091 231.302 577.3 228.27L576.112 225.632C576.281 225.408 576.445 225.182 576.606 224.953C576.12 221.962 575.911 218.579 575.99 214.818C576.068 210.564 576.368 206.783 576.905 203.447C577.419 200.253 578.151 197.467 579.113 195.063C577.432 191.322 574.909 188.047 571.386 185.605C565.669 181.642 558.71 180.835 551.792 181.931L528.897 185.557L528.746 194.491L532.86 193.839L532.695 205.687L528.546 206.344L528.337 218.709L529.705 218.492L529.471 230.436L528.135 230.647ZM565.661 223.853C571.249 219.396 573.957 212.334 572.656 204.12C571.014 193.749 564.037 188.901 553.169 190.622L537.571 193.093L536.62 249.375L549.48 247.338L549.79 229.429L554.436 228.693L561.676 245.406L574.452 243.383L565.661 223.853ZM550.183 202.917L553.834 202.339C555.281 202.109 556.48 202.35 557.409 203.03C558.056 203.502 558.572 204.188 558.951 205.076C559.214 205.693 559.411 206.408 559.539 207.218C559.912 209.571 559.638 211.647 558.823 213.282C557.827 215.28 556.023 216.62 553.605 217.003L549.954 217.581L550.183 202.917ZM550.801 208.37C550.802 208.37 550.806 208.383 550.813 208.412C550.804 208.385 550.801 208.371 550.801 208.37Z" fill="#DD505B"/>
<path fill-rule="evenodd" clip-rule="evenodd" d="M504.779 254.418L517.638 252.381L517.939 232.262L529.471 230.436L529.705 218.492L518.173 220.319L518.425 207.947L532.695 205.687L532.86 193.839L505.73 198.136L504.779 254.418ZM536.809 238.183L526.627 239.796L526.327 259.915L495.803 264.749L497.056 190.6L541.804 183.513L541.68 192.442L537.571 193.093L536.809 238.183Z" fill="#DD505B"/>
<path fill-rule="evenodd" clip-rule="evenodd" d="M437.668 262.14L437.467 273.988L498.377 264.341L482.204 231.065L499.779 190.169L438.721 199.839L438.482 213.956C440.755 216.65 442.283 220.586 443.065 225.751L438.256 227.307L437.895 248.683L442.845 249.599C441.874 255.046 440.184 259.177 437.668 262.14ZM447.395 207.375L446.443 263.657L459.303 261.62L459.797 234.667L471.997 259.61L485.271 257.507L472.529 231.29L485.393 201.357L470.459 203.722L459.855 229.13L460.254 205.339L447.395 207.375Z" fill="#DD505B"/>
<path fill-rule="evenodd" clip-rule="evenodd" d="M407.147 269.881C412.633 275.735 420.254 277.735 428.387 276.447C434.492 275.48 439.953 272.895 444.138 268.112C445.377 266.694 446.443 265.154 447.358 263.512L446.443 263.657L446.82 241.385L431.879 238.62L446.949 233.744L447.329 211.234C446.174 209.337 444.776 207.605 443.092 206.101C437.637 201.229 430.731 200.084 423.864 201.172C415.452 202.504 408.757 206.896 404.508 214.544C400.941 220.966 399.39 229.161 398.993 238.577L399.788 241.304L399.793 241.321L408.077 269.734L407.147 269.881ZM407.709 241.471C407.308 260.415 414.234 269.779 427.011 267.756C433.256 266.766 437.571 263.683 440.27 258.072C441.335 255.858 442.148 253.25 442.73 250.221C442.769 250.016 442.808 249.808 442.845 249.599L431.455 247.491C431.417 247.707 431.378 247.919 431.338 248.127C430.386 253.024 428.84 255.304 426.293 255.708C422.145 256.365 420.527 251.518 420.761 239.574C421.034 226.264 422.225 222.503 426.207 221.872C427.686 221.638 428.829 222.029 429.711 223.148C430.66 224.353 431.305 226.399 431.739 229.416L443.065 225.751C441.23 213.625 435.279 208.274 425.24 209.864C413.459 211.73 408.093 221.34 407.709 241.471ZM430.255 249.636C430.254 249.636 430.248 249.622 430.236 249.591C430.249 249.62 430.255 249.635 430.255 249.636ZM430.559 228.396C430.564 228.384 430.566 228.378 430.566 228.379C430.566 228.379 430.564 228.385 430.559 228.396Z" fill="#DD505B"/>
<path fill-rule="evenodd" clip-rule="evenodd" d="M358.528 277.582L355.73 286.934L419.321 276.863L416.154 265.998C410.402 262.39 407.443 254.039 407.709 241.471C407.735 240.111 407.784 238.799 407.856 237.534L398.714 206.176L378.953 209.306L373.348 228.043L373.292 231.104L372.39 231.247L362.219 265.243L362.025 277.028L358.528 277.582ZM394.376 266.461L395.383 271.744L408.077 269.734L392.435 216.08L385.798 217.131L368.17 276.054L381.611 273.926L382.844 268.287L394.376 266.461ZM389.019 240.69L385.153 257.631L392.454 256.475L389.019 240.69Z" fill="#DD505B"/>
<path fill-rule="evenodd" clip-rule="evenodd" d="M330.531 237.876L330.367 246.812L340.924 245.14L340.194 289.395L370.702 284.563L370.849 275.63L368.17 276.054L370.998 266.602L371.432 240.308L379.234 239.072L382.124 229.411L382.505 208.743L330.917 216.914L330.753 225.85L338.269 224.659L338.047 236.686L330.531 237.876ZM349.895 234.81L349.165 279.065L362.025 277.028L362.755 232.773L373.292 231.104L373.513 219.077L339.58 224.452L339.358 236.478L349.895 234.81Z" fill="#DD505B"/>
<path fill-rule="evenodd" clip-rule="evenodd" d="M305.097 286.044L304.949 294.977L335.457 290.145L336.187 245.89L346.71 244.224L346.874 235.288L339.358 236.478L339.58 224.452L347.096 223.261L347.26 214.325L295.673 222.496L295.309 242.286L298.117 251.92L305.679 250.722L305.256 276.406L307.934 285.595L305.097 286.044ZM314.651 240.392L313.921 284.647L326.781 282.61L327.511 238.355L338.047 236.686L338.269 224.659L304.336 230.034L304.114 242.06L314.651 240.392Z" fill="#DD505B"/>
<path fill-rule="evenodd" clip-rule="evenodd" d="M294.234 282.322L295.241 287.605L307.934 285.595L292.293 231.941L285.655 232.992L268.028 291.915L281.468 289.787L282.701 284.148L294.234 282.322ZM255.588 302.795L278.811 225.167L298.571 222.037L304.132 241.109L304.114 242.06L304.396 242.016L314.076 275.221L313.921 284.647L316.696 284.207L319.179 292.723L255.588 302.795ZM288.876 256.55L285.011 273.492L292.312 272.335L288.876 256.55Z" fill="#DD505B"/>
<path fill-rule="evenodd" clip-rule="evenodd" d="M207.842 301.448L207.691 310.381L267.251 300.948L256.159 276.308C260.883 270.013 262.741 261.922 261.395 253.419C260.305 246.541 257.216 240.289 251.433 236.28C245.716 232.317 238.756 231.511 231.839 232.606L208.944 236.233L208.793 245.166L211.3 244.769L211.135 256.617L208.593 257.019L208.044 289.509L211.33 288.989L211.178 300.919L207.842 301.448ZM245.708 274.529C251.295 270.072 254.004 263.009 252.703 254.796C251.06 244.425 244.084 239.577 233.216 241.298L217.618 243.768L216.667 300.05L229.526 298.013L229.837 280.104L234.483 279.368L241.722 296.082L254.499 294.058L245.708 274.529ZM230.23 253.592L233.881 253.014C235.328 252.785 236.527 253.025 237.456 253.705C238.103 254.178 238.619 254.863 238.998 255.751C239.261 256.369 239.458 257.084 239.586 257.894C239.959 260.246 239.685 262.322 238.869 263.957C237.874 265.955 236.07 267.296 233.652 267.679L230.001 268.257L230.23 253.592ZM230.848 259.046C230.849 259.045 230.853 259.059 230.86 259.087C230.851 259.06 230.848 259.046 230.848 259.046Z" fill="#DD505B"/>
<path fill-rule="evenodd" clip-rule="evenodd" d="M173.948 298.869L173.662 315.771L219.883 308.45L219.997 299.523L216.667 300.05L217.02 279.178L215.622 279.399L215.886 264.774L217.267 264.555L217.618 243.768L220.12 243.372L220.244 234.443L174.915 241.622L174.591 260.827C177.316 265.101 178.7 271.098 178.548 278.617C178.378 287.256 176.873 293.934 173.948 298.869ZM196.284 258.969L211.135 256.617L211.3 244.769L183.589 249.158L182.638 305.44L211.178 300.919L211.33 288.989L195.649 291.472L195.897 279.612L206.848 277.877L207.048 266.789L196.097 268.524L196.284 258.969Z" fill="#DD505B"/>
<path fill-rule="evenodd" clip-rule="evenodd" d="M132.816 313.331L132.665 322.264L158.283 318.207C167.251 316.786 174.924 312.863 180.156 305.458C181.116 304.1 181.964 302.665 182.71 301.159L183.09 278.709L183.09 278.706L183.43 258.586C182.312 256.372 180.933 254.329 179.264 252.503C172.875 245.514 163.82 243.379 154.324 244.883L133.919 248.115L133.768 257.049L136.467 256.621L135.515 312.903L132.816 313.331ZM141.641 311.933L156.907 309.515C171.26 307.242 178.173 297.727 178.548 278.617C178.915 260.529 170.386 251.249 155.701 253.575L142.592 255.651L141.641 311.933ZM163.714 291.544C164.735 288.852 165.319 285.116 165.417 280.017C165.504 275.047 165.046 271.46 164.049 269.053C163.339 267.337 162.354 266.22 161.099 265.631C160.007 265.119 158.709 265.005 157.209 265.243L155.301 265.545L154.818 297.939L156.726 297.637C159.862 297.14 162.242 295.429 163.714 291.544Z" fill="#DD505B"/>
<path fill-rule="evenodd" clip-rule="evenodd" d="M90.8604 314.411L90.6151 328.924L121.227 324.076L121.305 318.595L124.578 323.545L144.189 320.439L144.34 311.506L141.641 311.933L142.592 255.651L145.291 255.224L145.442 246.29L114.827 251.139L114.749 256.752L111.388 251.684L91.8684 254.775L91.7174 263.709L94.4164 263.282L93.6759 303.711C93.6158 307.777 92.615 311.411 90.8604 314.411ZM123.157 285.349L107.18 261.26L100.542 262.311L99.5909 318.593L112.534 316.543L112.914 289.948L128.795 313.968L135.515 312.903L136.466 256.622L123.524 258.671L123.157 285.349Z" fill="#DD505B"/>
<path fill-rule="evenodd" clip-rule="evenodd" d="M58.0795 309.859C59.5906 319.4 67.6545 324.672 78.1082 323.016C87.3174 321.558 93.5236 314.026 93.6759 303.711L94.4165 263.282L81.4738 265.331L80.8335 305.32C80.7521 308.565 78.967 310.718 76.0632 311.178C73.2424 311.625 71.2241 310.159 70.7905 307.421C70.6985 306.84 70.6763 306.163 70.715 304.796L71.352 266.935L58.4922 268.971L57.8545 305.217C57.8249 307.178 57.8823 308.615 58.0795 309.859ZM49.8235 261.435L49.0557 305.073L49.0555 305.084C49.0233 307.22 49.0728 309.247 49.3878 311.236C50.501 318.265 54.172 324.228 59.9136 327.995C65.5709 331.706 72.5006 332.814 79.4848 331.708C88.8566 330.223 95.9356 324.491 99.6246 316.605L100.542 262.311L103.244 261.883L103.407 252.948L49.8235 261.435Z" fill="#DD505B"/>
<path fill-rule="evenodd" clip-rule="evenodd" d="M548.321 148.331L547.961 169.608C549.53 171.732 551.431 173.602 553.709 175.127C559.414 178.944 566.16 179.704 572.883 178.639C579.891 177.529 586.047 174.142 590.157 168.769C594.293 163.36 595.895 156.528 594.783 149.506C593.868 143.726 590.878 139.339 586.349 134.856L598.149 129.451L595.985 122.133C594.168 115.985 590.999 110.387 585.62 106.798C580.16 103.156 573.805 102.501 567.53 103.495C560.582 104.595 554.499 108.016 550.478 113.449C549.773 114.4 549.147 115.394 548.598 116.424L548.861 116.382L548.466 139.734C549.738 142.067 551.423 144.215 553.436 146.309L548.321 148.331ZM562.432 142.751C563.187 143.43 564.009 144.139 564.9 144.884L568.631 148.035C569.534 148.804 570.262 149.445 570.85 150.004C571.015 150.16 571.168 150.31 571.311 150.455C572.664 151.819 573.112 152.699 573.307 153.928C573.635 156.002 571.977 157.881 569.571 158.262C567.12 158.65 565.469 158.069 564.252 156.192C564.126 155.997 564.004 155.788 563.887 155.564C563.689 155.189 563.504 154.772 563.328 154.314C563.324 154.303 563.32 154.292 563.316 154.281C563.075 153.646 562.854 152.93 562.646 152.13L551.521 156.528C552.134 158.93 552.962 161.019 553.999 162.794C554.363 163.418 554.753 164.003 555.168 164.549C558.764 169.275 564.27 171.093 571.506 169.947C581.628 168.344 587.616 160.507 586.092 150.883C585.483 147.042 583.37 143.911 577.707 138.814C577.009 138.186 576.257 137.528 575.447 136.835L571.703 133.601C571.194 133.164 570.743 132.755 570.342 132.368C570.168 132.2 570.003 132.037 569.848 131.876C568.425 130.407 567.781 129.242 567.578 127.961C567.276 126.053 568.602 124.227 570.677 123.898C572.548 123.602 573.799 123.973 574.856 125.406C575.121 125.765 575.373 126.19 575.62 126.687C575.844 127.138 576.064 127.65 576.285 128.225C576.289 128.236 576.293 128.247 576.297 128.258C576.299 128.263 576.301 128.269 576.303 128.275C576.456 128.675 576.608 129.105 576.762 129.568L587.546 124.628C586.742 121.906 585.699 119.626 584.41 117.782C584.157 117.42 583.895 117.074 583.623 116.746C580.236 112.655 575.369 111.163 568.907 112.187C559.034 113.75 553.212 121.561 554.763 131.351C555.356 135.097 557.463 138.282 562.432 142.751Z" fill="#DD505B"/>
<path fill-rule="evenodd" clip-rule="evenodd" d="M526.074 185.032L527.327 110.883L557.837 106.051L557.625 118.585C555.076 121.97 553.98 126.408 554.763 131.351C555.087 133.397 555.862 135.275 557.309 137.287L557.021 154.354L551.521 156.528C552.614 160.811 554.391 164.101 556.817 166.388L556.584 180.2L526.074 185.032ZM535.05 174.701L547.91 172.664L548.861 116.382L536.001 118.419L535.05 174.701Z" fill="#DD505B"/>
<path fill-rule="evenodd" clip-rule="evenodd" d="M468.619 185.223L468.468 194.156L494.086 190.099C503.054 188.678 510.726 184.755 515.959 177.35C520.964 170.266 522.944 161.091 523.149 150.688C523.356 140.472 521.115 131.012 515.067 124.395C508.678 117.406 499.623 115.271 490.127 116.775L469.721 120.007L468.821 173.284L473.686 172.513L473.535 184.444L468.619 185.223ZM478.395 127.543L477.444 183.825L492.71 181.407C507.063 179.134 513.975 169.619 514.351 150.509C514.717 132.421 506.189 123.141 491.504 125.467L478.395 127.543ZM499.517 163.436C500.538 160.744 501.122 157.008 501.22 151.908C501.307 146.939 500.849 143.352 499.852 140.945C499.141 139.229 498.157 138.112 496.902 137.523C495.81 137.01 494.512 136.897 493.012 137.135L491.103 137.437L490.621 169.831L492.529 169.529C495.665 169.032 498.045 167.32 499.517 163.436Z" fill="#DD505B"/>
<path fill-rule="evenodd" clip-rule="evenodd" d="M438.116 178.032L443.167 189.254L437.912 190.086L437.761 199.02L482.24 191.975L482.353 183.047L477.444 183.825L477.797 162.953L468.736 164.388L469.535 120.037L439.014 124.871L438.716 142.518C440.009 144.548 440.905 147.047 441.371 149.991C442.312 155.933 441.155 161.272 438.328 165.458L438.116 178.032ZM459.748 174.721L460.548 130.37L447.688 132.407L446.737 188.688L473.535 184.444L473.686 172.513L459.748 174.721Z" fill="#DD505B"/>
<path fill-rule="evenodd" clip-rule="evenodd" d="M406.286 138.964L421.884 136.494C432.752 134.772 439.729 139.62 441.371 149.991C442.672 158.205 439.964 165.267 434.376 169.724L443.167 189.254L430.391 191.277L423.151 174.564L418.505 175.3L418.195 193.209L405.335 195.246L406.286 138.964ZM396.359 205.577L396.611 190.69C399.551 185.463 401.024 177.925 401.203 167.75C401.342 159.093 400.03 152.517 397.33 148.116L397.612 131.428L420.507 127.802C427.425 126.706 434.384 127.513 440.101 131.476C443.437 133.789 445.877 136.848 447.554 140.344L447.087 167.958C446.427 169.192 445.673 170.377 444.827 171.503L446.948 176.213L446.737 188.688L452.176 187.827L455.919 196.144L396.359 205.577ZM418.669 163.452L422.32 162.874C424.738 162.491 426.542 161.151 427.538 159.153C428.353 157.518 428.627 155.442 428.254 153.089C428.126 152.279 427.929 151.564 427.666 150.947C427.287 150.059 426.771 149.373 426.124 148.901C425.195 148.221 423.996 147.981 422.549 148.21L418.898 148.788L418.669 163.452ZM419.516 154.241C419.517 154.241 419.521 154.254 419.528 154.283C419.519 154.256 419.516 154.242 419.516 154.241Z" fill="#DD505B"/>
<path fill-rule="evenodd" clip-rule="evenodd" d="M405.375 192.877L406.168 145.968C405.421 144.417 404.55 142.96 403.541 141.611C397.907 134.079 389.402 131.708 380.412 133.132C372.087 134.45 365.376 138.66 361.049 146.129L363.911 145.675L355.208 176.573C355.392 185.525 357.195 193.664 361.629 199.69C367.173 207.226 375.611 209.884 384.686 208.446C393.208 207.097 399.996 202.66 404.313 194.947C404.688 194.276 405.042 193.586 405.375 192.877ZM364.008 173.47C363.607 192.414 370.533 201.778 383.31 199.755C395.34 197.849 400.846 188.047 401.203 167.749C401.509 148.736 394.814 139.76 381.788 141.823C369.758 143.729 364.378 153.256 364.008 173.47ZM388.164 169.729C388.29 157.633 386.737 153.201 382.506 153.871C378.524 154.502 377.333 158.263 377.06 171.573C376.826 183.517 378.444 188.364 382.592 187.707C386.657 187.063 388.005 182.682 388.164 169.729ZM378.654 159.901C378.654 159.9 378.658 159.91 378.666 159.931C378.658 159.911 378.654 159.901 378.654 159.901ZM386.865 160.378C386.865 160.378 386.863 160.384 386.858 160.395C386.863 160.383 386.865 160.377 386.865 160.378ZM386.535 181.59C386.548 181.618 386.554 181.634 386.554 181.635C386.553 181.636 386.547 181.621 386.535 181.59Z" fill="#DD505B"/>
<path fill-rule="evenodd" clip-rule="evenodd" d="M376.107 134.834L373.15 145.33C372.284 145.996 371.483 146.752 370.746 147.601C366.355 152.663 364.236 161.049 364.008 173.471C363.977 174.923 363.99 176.32 364.044 177.659L354.304 212.238L334.253 215.414L334.027 214.559L333.772 215.49L313.719 218.666L294.532 147.754L376.107 134.834ZM343.61 174.83L337.528 149.854L331.139 150.866L324.169 177.739L318.777 152.824L305.586 154.913L320.149 208.738L326.786 207.687L334.171 180.748L340.724 205.479L347.362 204.428L363.911 145.676L349.889 147.896L343.61 174.83Z" fill="#DD505B"/>
<path fill-rule="evenodd" clip-rule="evenodd" d="M276.321 150.639L297.773 147.241L296.52 221.39L237.719 230.703L237.87 221.769L244.464 220.725L238.248 199.404L238.972 156.554L258.997 153.383L267.363 168.495L276.321 150.639ZM267.745 187.356L254.284 163.039L247.646 164.09L246.695 220.372L259.555 218.335L259.968 196.242L265.728 206.301L270.208 205.591L275.357 195.676L274.986 215.891L287.846 213.854L288.797 157.572L282.16 158.623L267.745 187.356Z" fill="#DD505B"/>
<path fill-rule="evenodd" clip-rule="evenodd" d="M192.117 237.926L194.915 228.573L202.802 227.324L202.954 215.393L198.654 216.074L215.341 160.297L235.101 157.167L247.069 198.22L246.695 220.372L253.226 219.337L255.709 227.854L192.117 237.926ZM244.464 220.725L231.77 222.736L230.763 217.452L219.231 219.279L217.998 224.917L204.557 227.046L222.185 168.123L228.822 167.071L244.464 220.725ZM225.406 191.681L221.54 208.622L228.842 207.466L225.406 191.681Z" fill="#DD505B"/>
<path fill-rule="evenodd" clip-rule="evenodd" d="M165.641 221.188L170.693 232.409L165.437 233.242L165.286 242.175L211.507 234.855L211.621 225.927L204.558 227.046L211.095 205.194L207.246 205.804L207.51 191.178L211.456 190.553L211.868 160.847L166.54 168.026L166.241 185.674C167.534 187.704 168.43 190.203 168.897 193.147C169.838 199.089 168.681 204.428 165.853 208.614L165.641 221.188ZM187.908 185.373L202.759 183.021L202.924 171.173L175.213 175.562L174.262 231.844L202.802 227.324L202.954 215.393L187.273 217.877L187.521 206.016L198.472 204.281L198.672 193.194L187.721 194.928L187.908 185.373Z" fill="#DD505B"/>
<path fill-rule="evenodd" clip-rule="evenodd" d="M133.811 182.12L149.409 179.649C160.278 177.928 167.254 182.776 168.896 193.147C170.197 201.361 167.489 208.423 161.901 212.88L170.693 232.409L157.916 234.433L150.676 217.72L146.03 218.456L145.72 236.365L132.86 238.401L133.811 182.12ZM123.884 248.733L124.17 231.83C127.095 226.896 128.6 220.218 128.77 211.579C128.923 204.06 127.538 198.063 124.813 193.789L125.138 174.584L148.032 170.958C154.95 169.862 161.91 170.669 167.626 174.632C170.963 176.945 173.403 180.004 175.079 183.5L174.612 211.114C173.952 212.348 173.198 213.532 172.353 214.659L174.473 219.369L174.262 231.844L179.701 230.983L183.445 239.299L123.884 248.733ZM146.195 206.608L149.845 206.03C152.263 205.647 154.067 204.307 155.063 202.309C155.878 200.673 156.152 198.598 155.78 196.245C155.651 195.435 155.454 194.72 155.191 194.102C154.812 193.215 154.296 192.529 153.65 192.056C152.72 191.376 151.521 191.136 150.074 191.366L146.424 191.944L146.195 206.608ZM147.041 197.397C147.042 197.396 147.046 197.41 147.053 197.438C147.044 197.412 147.041 197.398 147.041 197.397Z" fill="#DD505B"/>
<path fill-rule="evenodd" clip-rule="evenodd" d="M82.8875 255.226L84.1408 181.077L104.547 177.845C114.042 176.341 123.097 178.476 129.486 185.465C131.155 187.291 132.534 189.333 133.652 191.548L133.312 211.668L133.312 211.671L132.933 234.12C132.186 235.626 131.338 237.061 130.378 238.42C125.146 245.825 117.473 249.748 108.506 251.168L82.8875 255.226ZM128.77 211.579C129.137 193.491 120.608 184.211 105.923 186.537L92.8147 188.613L91.8634 244.895L107.129 242.477C121.482 240.203 128.395 230.689 128.77 211.579ZM113.937 224.506C114.957 221.814 115.542 218.077 115.639 212.978C115.727 208.009 115.268 204.422 114.272 202.015C113.561 200.298 112.577 199.182 111.322 198.593C110.229 198.08 108.932 197.967 107.431 198.204L105.523 198.507L105.041 230.901L106.949 230.599C110.085 230.102 112.465 228.39 113.937 224.506Z" fill="#DD505B"/>
</svg>
