<svg width="537" height="165" viewBox="0 0 537 165" fill="none" xmlns="http://www.w3.org/2000/svg">
<path d="M266.051 165V164.732C266.319 164.397 266.789 164.196 267.191 164.263C269.137 164.196 271.016 164.196 272.962 164.263C273.365 164.263 273.834 164.397 274.103 164.732V165H266.051Z" fill="white"/>
<path d="M274.103 164.732C271.419 164.665 268.735 164.665 266.051 164.732C262.36 164.531 258.67 164.397 254.979 164.129C245.183 163.392 235.453 161.918 225.925 159.707C192.979 152.068 164.059 136.724 138.83 114.411C136.481 112.334 134.267 110.19 131.985 108.046C131.449 107.577 130.979 106.907 130.71 106.237C130.308 105.299 130.509 104.294 131.18 103.557C131.851 102.82 132.925 102.552 133.864 102.954C134.468 103.222 135.072 103.49 135.609 103.825C159.698 118.7 186.001 129.555 213.579 135.987C222.839 138.131 232.165 139.806 241.559 141.012C255.046 142.687 268.668 143.29 282.222 142.821C289.536 142.62 296.783 141.95 304.029 141.012C320.939 138.868 337.646 135.049 353.817 129.689C362.339 126.874 370.66 123.658 378.779 119.906C379.986 119.236 381.463 119.035 382.805 119.37C385.019 119.906 386.361 122.184 385.824 124.395C385.757 124.663 385.623 124.998 385.489 125.266C384.952 126.271 384.214 127.142 383.274 127.812C375.558 133.843 367.237 139.136 358.447 143.559C341.874 151.934 324.159 157.898 305.908 161.315C295.374 163.191 284.772 164.33 274.103 164.732Z" fill="white"/>
<path d="M174.728 28.9133C176.406 27.9082 178.15 26.8361 179.962 25.898C184.659 23.4859 189.893 22.2798 195.194 22.5478C199.018 22.7488 202.507 23.8209 205.191 26.6351C207.741 29.2483 208.681 32.4645 208.949 35.9488C209.016 36.6858 209.016 37.4229 209.016 38.2269V72.9354C209.016 75.9506 208.613 76.3527 205.594 76.3527H197.408C196.871 76.3527 196.334 76.3527 195.797 76.2857C194.992 76.2187 194.321 75.5486 194.187 74.7446C194.053 74.0075 194.053 73.2705 194.053 72.5334V41.5102C194.12 40.2371 193.986 39.031 193.65 37.8249C193.113 35.7477 191.235 34.2736 189.087 34.1396C185.129 33.8716 181.17 34.6757 177.546 36.3508C177.009 36.4848 176.674 37.0208 176.741 37.5569V72.8014C176.741 73.4715 176.741 74.0745 176.607 74.7446C176.607 75.6826 175.869 76.3527 174.929 76.3527C173.923 76.4197 172.916 76.4197 171.843 76.4197H164.73C162.248 76.4197 161.711 75.8166 161.711 73.3375V41.6442C161.711 40.5051 161.644 39.299 161.375 38.1599C160.906 35.8818 158.96 34.2736 156.678 34.1396C152.652 33.8716 148.559 34.6757 144.936 36.4178C144.399 36.5518 144.063 37.1549 144.198 37.6909V73.4045C144.198 75.8836 143.661 76.4197 141.178 76.4197H132.187C129.838 76.4197 129.234 75.7496 129.234 73.4715V26.9701C129.234 26.4341 129.301 25.898 129.436 25.362C129.704 24.5579 130.509 24.0889 131.314 24.0889H139.702C140.91 24.0889 141.648 24.826 142.05 25.965C142.386 26.9031 142.587 27.7742 142.923 28.7792C143.594 28.7792 143.996 28.3102 144.466 28.0422C148.157 25.764 152.048 23.8209 156.41 23.0168C159.765 22.3468 163.12 22.3468 166.475 23.0168C169.628 23.6869 172.447 25.563 174.258 28.2432C174.393 28.4442 174.527 28.5782 174.661 28.7122C174.594 28.7792 174.661 28.7792 174.728 28.9133Z" fill="white"/>
<path d="M313.826 62.2816C314.229 60.9415 314.631 59.6684 315.034 58.3283C318.12 47.9426 321.207 37.6238 324.294 27.2381L324.696 26.032C325.032 24.8259 326.172 24.0888 327.38 24.0888H337.579C340.129 24.0888 340.666 24.8259 339.794 27.2381L335.768 37.8918C331.272 49.5507 326.776 61.2765 322.281 72.9354C322.146 73.3374 321.945 73.7394 321.811 74.1414C321.341 75.5485 319.932 76.4866 318.456 76.3526C315.504 76.2856 312.551 76.2856 309.599 76.3526C307.519 76.4196 306.311 75.4815 305.573 73.6054C303.895 69.1831 302.151 64.6938 300.473 60.2715C296.447 49.7517 292.354 39.2319 288.328 28.6452C287.925 27.8411 287.657 26.9031 287.456 26.032C287.254 24.6919 287.724 24.0218 289.066 24.0218C292.891 23.9548 296.716 24.0218 300.473 24.0218C302.084 24.0218 302.822 25.0939 303.224 26.501C303.962 29.0472 304.7 31.6604 305.506 34.2066C308.257 43.5202 310.941 52.9009 313.692 62.2146C313.625 62.2816 313.692 62.2816 313.826 62.2816Z" fill="white"/>
<path d="M75.5546 31.4595C76.0243 31.3255 76.4269 31.0575 76.6953 30.6554C77.9031 29.4493 79.1779 28.3103 80.5199 27.2382C84.0091 24.558 88.3706 23.2179 92.7321 23.5529C94.4767 23.6199 95.0806 24.156 95.2148 25.8311C95.349 28.1092 95.2819 30.4544 95.2819 32.7326C95.349 33.6706 95.2819 34.5417 95.1477 35.4798C94.8793 36.6859 94.4096 37.1549 93.2018 37.2889C92.2624 37.3559 91.3901 37.2889 90.4507 37.2219C85.955 36.8199 81.5935 37.6909 77.3663 39.098C76.4269 39.4331 76.4269 40.1031 76.4269 40.8402V73.0025C76.4269 73.6055 76.4269 74.1416 76.3598 74.7446C76.2927 75.6157 75.6217 76.2857 74.7494 76.2857C74.2797 76.3527 73.7429 76.3527 73.2732 76.3527H64.5502C64.0805 76.3527 63.5437 76.3527 63.074 76.2857C62.2017 76.2187 61.5307 75.4817 61.4636 74.6106C61.3965 74.0745 61.3965 73.5385 61.3965 73.0025V27.4392C61.3965 24.357 61.732 24.0219 64.8186 24.0219H71.2602C73.0048 24.0219 73.81 24.625 74.2797 26.3001C74.7494 27.9752 75.152 29.6504 75.5546 31.4595Z" fill="white"/>
<path d="M389.447 99.4025C393.876 99.5365 398.238 99.8045 402.532 100.944C403.74 101.279 404.88 101.681 406.021 102.217C407.564 102.82 408.571 104.294 408.772 105.902C409.041 107.778 409.108 109.721 408.974 111.664C408.101 123.122 404.545 134.178 398.64 144.028C396.493 147.579 393.876 150.795 390.857 153.609C390.253 154.212 389.515 154.681 388.709 154.949C387.434 155.284 386.629 154.614 386.562 153.341C386.629 152.671 386.763 152.001 387.032 151.331C389.38 145.033 391.662 138.801 393.473 132.302C394.547 128.751 395.285 125.132 395.755 121.447C395.889 120.107 395.956 118.767 395.822 117.427C395.755 115.149 394.279 113.205 392.064 112.535C389.984 111.865 387.837 111.463 385.623 111.329C379.45 111.061 373.276 111.329 367.17 112.133L359.051 113.138C358.179 113.205 357.374 113.138 356.904 112.334C356.434 111.53 356.636 110.726 357.105 109.922C357.642 109.185 358.313 108.515 359.118 108.046C364.084 104.495 369.653 102.351 375.558 100.944C380.121 100.006 384.75 99.5365 389.447 99.4025Z" fill="white"/>
<path d="M361.332 50.2207V74.3425C361.198 75.6826 360.594 76.2856 359.252 76.3526C355.629 76.4196 352.072 76.4196 348.449 76.3526C347.107 76.3526 346.503 75.6826 346.369 74.4095C346.302 74.0075 346.302 73.5384 346.302 73.1364V26.7691C346.369 24.6919 346.906 24.0889 348.986 24.0889H358.648C360.728 24.0889 361.332 24.6919 361.332 26.7691V50.2207Z" fill="white"/>
<path d="M101.723 50.0868V26.3C101.79 24.6919 102.394 24.0889 104.005 24.0219C107.494 23.9549 110.983 23.9549 114.472 24.0219C116.016 24.0219 116.485 24.4909 116.62 26.032C116.687 26.6351 116.687 27.1711 116.687 27.7741V72.3994C116.687 73.1364 116.62 73.8735 116.552 74.6105C116.485 75.4816 115.814 76.0846 114.942 76.1516C114.539 76.2186 114.204 76.2186 113.801 76.2186H104.474C104.139 76.2186 103.871 76.2186 103.535 76.1516C102.596 76.0846 101.79 75.3476 101.723 74.4095C101.656 73.8735 101.656 73.3374 101.656 72.8014C101.723 65.3638 101.723 57.7253 101.723 50.0868Z" fill="white"/>
<path d="M109.507 0.0341395C110.581 -0.0328653 111.655 0.168149 112.661 0.503173C116.284 1.70926 118.163 4.85849 117.828 8.94578C117.559 12.43 114.942 15.2442 111.453 15.7803C109.977 16.0483 108.434 16.0483 106.958 15.7803C103.133 15.0432 100.315 12.229 100.583 7.40467C100.986 2.64733 104.139 0.0341395 109.507 0.0341395Z" fill="white"/>
<path d="M353.885 0.0341502C355.227 -0.0998594 356.569 0.16816 357.844 0.704199C360.461 1.70927 362.272 4.12144 362.406 6.93565C362.943 13.0331 358.85 16.1153 353.415 15.9813C352.677 15.9813 351.939 15.8473 351.201 15.7133C347.041 14.7082 344.893 11.492 345.296 6.86864C345.631 3.18338 348.517 0.436179 352.476 0.101155C352.945 0.0341502 353.415 -0.0328546 353.885 0.0341502Z" fill="white"/>
<path d="M51.4656 44.5924C51.1972 41.1081 50.2578 37.6909 48.8487 34.5417C46.0976 28.7793 41.8703 24.558 35.4287 23.0838C28.0477 21.4757 21.4049 23.0838 15.3659 27.5732C14.9633 27.9752 14.4936 28.3102 13.9568 28.5782C13.8226 28.5112 13.6884 28.4442 13.6884 28.3772C13.4871 27.7072 13.3529 27.0371 13.1516 26.3671C12.6148 24.692 11.9438 24.0889 10.1321 24.0889C8.11908 24.0889 6.03899 24.1559 4.02599 24.0889C2.48269 24.0219 1.0736 24.2229 0 25.429C0 48.8807 0 72.3994 0.0670999 95.7841C0.939398 97.1912 2.28139 97.4592 3.82469 97.3922C6.24029 97.3252 8.65588 97.3922 11.0715 97.3922C15.2988 97.3922 15.2988 97.3922 15.2988 93.2379V74.1415C15.2988 73.6725 15.0975 73.1364 15.5672 72.7344C18.9222 75.3476 23.0152 76.9557 27.2425 77.3578C33.1473 77.9608 38.5153 76.4867 43.011 72.4664C46.2989 69.4512 48.7145 65.5649 49.9894 61.2766C51.8011 55.7822 51.9353 50.2208 51.4656 44.5924ZM35.4287 58.4624C34.959 60.5395 33.8854 62.4157 32.3421 63.8228C30.5975 65.2969 28.4503 66.1679 26.1689 66.1679C22.7468 66.369 19.3919 65.6319 16.3724 64.0238C15.6343 63.6888 15.1646 62.9517 15.2317 62.1477V50.0198C15.2317 45.9995 15.2988 41.9792 15.2317 37.9589C15.1646 37.0209 15.7014 36.2168 16.5737 35.8818C20.2642 34.1396 24.0888 33.3356 28.1148 34.1396C30.933 34.5417 33.3486 36.3508 34.4893 38.964C35.4958 41.1081 36.0997 43.4533 36.2339 45.7985C36.6365 50.0868 36.6365 54.3751 35.4287 58.4624Z" fill="white"/>
<path d="M536.933 46.0665V46.3345C536.665 46.0665 536.53 45.6645 536.665 45.3295V44.7934C536.665 44.7934 536.665 44.7264 536.732 44.7264H536.665V44.0564H536.799C536.799 43.9894 536.732 43.9894 536.732 43.9224C536.597 42.6493 536.329 41.3762 535.994 40.1701C533.511 31.3255 527.942 25.496 518.883 23.2179C514.656 22.2128 510.361 22.0788 506.067 22.7488C497.009 24.0889 490.5 28.9133 487.346 37.4899C484.26 45.6645 484.327 54.6431 487.413 62.8177C490.097 70.2553 495.465 74.9456 503.182 76.8887C507.275 77.8938 511.569 78.1618 515.796 77.5588C529.887 75.8837 535.725 65.2299 536.665 55.9832H536.597V55.0452C536.53 54.6431 536.463 54.3081 536.866 54.0401V54.1741C536.866 54.1071 536.933 53.9731 537 53.9061V46.2005C537 46.1335 536.933 46.1335 536.933 46.0665ZM520.829 58.7974C520.426 60.2045 519.822 61.4776 518.95 62.6837C517.474 64.7609 515.125 66.101 512.576 66.302C511.301 66.436 510.026 66.436 508.751 66.168C505.933 65.6319 503.584 63.7558 502.444 61.1426C501.437 59.0654 500.833 56.7873 500.632 54.5091C500.296 50.5558 500.229 46.6026 501.169 42.7163C501.504 41.1752 502.175 39.634 502.98 38.294C504.457 35.8818 507.006 34.3407 509.825 34.1397C511.099 34.0056 512.374 34.0056 513.649 34.2737C516.333 34.8097 518.548 36.5518 519.755 39.031C520.896 41.3762 521.567 43.9894 521.701 46.6025C521.768 47.8086 521.835 49.0147 521.768 50.2208C521.97 53.169 521.634 56.0502 520.829 58.7974Z" fill="white"/>
<path d="M419.307 0.503174H409.981C407.431 0.503174 406.961 0.972208 406.961 3.51839V25.228C406.961 25.697 407.162 26.166 406.827 26.6351C406.223 26.5681 405.887 26.166 405.418 25.898C398.439 21.8107 391.126 21.0737 383.745 24.4909C378.578 26.9031 375.357 31.2584 373.277 36.4178C371.264 41.3761 370.794 46.6025 370.928 51.8959C370.928 56.8542 372.069 61.7456 374.283 66.1679C376.833 71.0592 380.524 74.8115 385.892 76.4196C393.206 78.6978 400.05 77.5587 406.29 72.9354C406.76 72.6674 407.028 72.1983 407.632 72.0643C407.968 72.8014 408.236 73.6054 408.37 74.4095C408.639 75.4816 409.578 76.2186 410.719 76.2186H412.329C414.745 76.2186 417.093 76.2856 419.442 76.2186C421.32 76.2186 421.857 75.6156 421.924 73.6724V3.04936C421.857 0.972208 421.32 0.503174 419.307 0.503174ZM407.028 49.8187V62.0136C407.162 62.8177 406.693 63.5547 405.955 63.8897C402.734 65.6989 399.043 66.4359 395.42 65.8999C392.333 65.5649 389.649 63.6887 388.24 60.9415C387.167 58.7974 386.563 56.5192 386.361 54.174C385.825 49.9527 386.16 45.6644 387.167 41.5771C387.502 40.438 387.905 39.366 388.509 38.2939C389.918 35.6807 392.602 34.0056 395.554 33.8046C399.11 33.4695 402.667 34.1396 405.888 35.6137C406.693 35.8817 407.162 36.6858 407.095 37.5568C406.961 41.7111 407.028 45.7314 407.028 49.8187Z" fill="white"/>
<path d="M233.507 54.442C238.54 55.3801 243.706 55.4471 248.739 54.643C251.691 54.241 254.509 53.3699 257.126 51.9628C260.146 50.2207 262.36 47.8085 263.3 44.4583C265.648 36.0157 262.025 27.5061 253.235 24.3569C248.94 22.9498 244.377 22.4807 239.882 23.0838C229.28 24.2899 222.369 30.1193 219.215 40.237C217.001 47.1385 217.269 54.174 219.081 61.1425C221.429 70.0541 227.334 75.3475 236.258 77.2237C241.358 78.3627 246.525 78.1617 251.624 77.3577C254.308 76.8886 256.992 76.2186 259.542 75.2135C261.085 74.6105 261.89 73.6724 261.823 71.9303C261.756 70.3222 261.823 68.647 261.823 66.9719C261.823 64.9618 261.018 64.3587 259.072 64.8278C257.126 65.2968 255.248 65.6988 253.302 66.1009C249.141 66.9719 244.847 66.9719 240.687 66.2349C234.983 65.0958 231.293 60.2044 231.628 54.174C232.232 54.241 232.903 54.308 233.507 54.442ZM231.83 44.1903C232.031 42.5822 232.501 41.0411 233.105 39.5669C235.118 34.6756 239.345 33.0005 243.639 33.2685C244.847 33.3355 246.055 33.6035 247.196 34.0726C248.94 34.8096 250.081 36.4177 250.282 38.2939C250.483 39.4329 250.416 40.639 250.081 41.7781C249.276 44.1903 247.33 45.1954 244.981 45.6644C243.572 45.9994 242.096 46.1334 240.62 45.9994C238.003 45.9994 235.319 45.7984 232.702 45.3964C231.696 45.2624 231.696 45.2624 231.83 44.1903Z" fill="white"/>
<path d="M459.835 55.1121C463.727 54.844 467.619 54.107 471.108 52.2309C474.664 50.4887 477.147 47.2055 477.885 43.3192C478.355 40.907 478.355 38.3609 477.818 35.9487C476.409 29.9182 472.584 26.166 466.813 24.2228C463.593 23.2178 460.171 22.8157 456.816 22.9497C445.543 23.2178 436.954 28.9132 433.465 40.17C431.116 47.6075 431.452 55.1791 433.733 62.6166C436.082 70.2551 441.45 74.8785 449.099 76.9556C452.387 77.7597 455.809 78.0947 459.164 77.9607C464.062 77.8937 468.961 76.9556 473.591 75.2135C475.536 74.4765 476.006 73.8064 476.006 71.7293V66.9049C475.939 64.9618 475.134 64.2917 473.188 64.7607C471.712 65.1628 470.303 65.4978 468.826 65.8328C464.331 66.9049 459.634 67.1059 455.071 66.3019C450.508 65.4308 447.422 62.8176 446.214 58.2613C445.878 56.9212 445.61 55.5811 445.476 54.174C445.811 54.174 446.147 54.174 446.415 54.308C450.844 55.1121 455.339 55.4471 459.835 55.1121ZM445.811 44.3913C446.281 41.7781 446.885 39.2319 448.495 37.0878C450.978 33.8045 454.4 32.8665 458.292 33.2685C458.627 33.2685 458.896 33.4025 459.231 33.4025C463.928 34.1395 465.069 37.8918 464.197 41.5101C463.526 44.1903 461.311 45.1953 458.829 45.6644C457.487 45.9324 456.077 46.0664 454.668 45.9994C451.917 45.9324 449.233 45.7314 446.549 45.3294C445.945 45.2623 445.677 44.9943 445.811 44.3913Z" fill="white"/>
</svg>
