<svg width="666" height="395" viewBox="0 0 666 395" fill="none" xmlns="http://www.w3.org/2000/svg">
<path d="M33.649 242.493C44.0662 275.802 75.1754 299.977 111.935 299.977C112.249 299.977 112.535 299.977 112.849 299.977C119.584 353.123 164.964 394.252 219.99 394.252C258.434 394.252 292.168 374.158 311.319 343.903C326.445 354.921 345.054 361.428 365.203 361.428C399.88 361.428 430.047 342.162 445.602 313.763C452.937 318.729 461.784 321.641 471.317 321.641C473.257 321.641 475.141 321.469 477.025 321.241C494.406 338.652 518.465 349.441 545.008 349.441C598.065 349.469 641.075 306.456 641.075 253.397C641.075 215.892 619.584 183.44 588.247 167.599C597.779 160.464 603.944 149.132 603.944 136.317C603.944 114.711 586.42 97.2143 564.844 97.2143C560.192 97.2143 555.739 98.0706 551.572 99.5833C542.297 77.9199 520.806 62.764 495.776 62.764C483.646 62.764 472.401 66.3603 462.926 72.4683C448.77 60.8803 430.704 53.916 411.011 53.916C408.728 53.916 406.473 54.0302 404.218 54.23C382.014 21.4922 344.512 -2.59264e-05 301.986 -2.96441e-05C272.19 -3.2249e-05 244.877 10.5606 223.557 28.1139C214.938 19.637 203.094 14.3852 190.022 14.3852C163.594 14.3852 142.188 35.7917 142.188 62.2217C142.188 63.0209 142.274 63.763 142.303 64.5336C137.536 71.0412 134.711 79.033 134.711 87.7098C134.711 99.6403 140.048 110.315 148.439 117.536C144.643 124.814 142.445 133.035 142.245 141.74C132.856 138.001 122.638 135.917 111.907 135.917C92.0713 135.917 73.891 142.967 59.7064 154.669C55.3112 153.271 50.6591 152.5 45.8073 152.5C20.4919 152.5 -0.00010273 173.022 -0.000104941 198.31C-0.000106785 219.403 14.2415 237.099 33.6205 242.436L33.649 242.493Z" fill="#EF4156"/>
<path d="M618.32 221.827L619.452 154.825L634.761 152.4L633.809 205.199L650.402 202.571L650.222 216.774L618.32 221.827Z" fill="#FFF685"/>
<path d="M577.809 228.242L578.942 161.24L611.93 156.015L611.734 170.12L594.055 172.92L593.831 184.295L606.869 182.23L606.631 195.43L593.593 197.495L593.299 211.615L611.966 208.658L611.786 222.861L577.809 228.242Z" fill="#FFF685"/>
<path d="M559.396 164.337L576.088 161.693L555.202 231.824L547.3 233.075L528.58 169.217L544.186 166.746L551.238 195.294L559.396 164.337Z" fill="#FFF685"/>
<path d="M491.579 241.9L492.712 174.898L525.7 169.673L525.504 183.778L507.825 186.578L507.601 197.953L520.639 195.888L520.401 209.088L507.363 211.153L507.069 225.273L525.736 222.316L525.556 236.519L491.579 241.9Z" fill="#FFF685"/>
<path d="M455.023 247.69L456.156 180.688L471.465 178.263L470.513 231.062L487.106 228.434L486.925 242.637L455.023 247.69Z" fill="#FFF685"/>
<path d="M436.686 183.772L420.353 229.591L419.949 253.245L404.639 255.67L405.008 232.426L390.068 191.155L406.068 188.621L412.598 210.671L419.896 186.431L436.686 183.772Z" fill="#FFF685"/>
<path d="M361.497 262.503L362.366 209.819L349.822 211.805L350.086 197.488L390.482 191.09L390.219 205.407L377.675 207.394L376.806 260.078L361.497 262.503Z" fill="#FFF685"/>
<path d="M323.267 268.558L324.4 201.556L339.709 199.131L338.757 251.93L355.35 249.302L355.169 263.505L323.267 268.558Z" fill="#FFF685"/>
<path d="M297.692 273.824C285.247 275.795 275.647 269.519 273.848 258.161C273.614 256.679 273.545 254.969 273.581 252.635L274.34 209.485L289.649 207.06L288.891 252.134C288.845 253.761 288.871 254.567 288.981 255.258C289.497 258.517 291.9 260.263 295.258 259.731C298.715 259.184 300.84 256.62 300.937 252.757L301.699 205.152L317.107 202.711L316.225 250.842C316.044 263.121 308.656 272.087 297.692 273.824Z" fill="#FFF685"/>
<path d="M250.073 281.366C234.863 283.775 226.617 272.627 227.095 250.075C227.552 226.108 233.941 214.668 247.966 212.447C259.917 210.554 267.001 216.924 269.186 231.36L255.702 235.723C254.706 228.794 252.771 226.164 249.117 226.743C244.376 227.494 242.959 231.971 242.633 247.816C242.354 262.035 244.281 267.805 249.219 267.023C252.38 266.522 254.245 263.594 255.364 257.241L268.924 259.751C266.565 272.983 260.641 279.692 250.073 281.366Z" fill="#FFF685"/>
<path d="M205.883 287.15L207.015 220.148L222.324 217.723L221.192 284.725L205.883 287.15Z" fill="#FFF685"/>
<path d="M167.976 293.153L169.109 226.151L201.406 221.036L201.21 235.14L184.222 237.831L183.922 252.559L197.651 250.385L197.372 264.603L183.643 266.778L183.285 290.729L167.976 293.153Z" fill="#FFF685"/>
<path d="M130.07 299.158L131.202 232.156L163.5 227.04L163.304 241.144L146.315 243.835L146.016 258.563L159.745 256.389L159.465 270.608L145.737 272.782L145.379 296.733L130.07 299.158Z" fill="#FFF685"/>
<path d="M107.499 302.732L108.632 235.73L123.941 233.306L122.809 300.308L107.499 302.732Z" fill="#FFF685"/>
<path d="M58.6938 310.462L59.8263 243.46L75.4318 240.988C92.9139 238.219 103.067 249.267 102.63 270.801C102.184 293.551 93.9543 304.877 76.8673 307.584L58.6938 310.462ZM74.3809 293.803L76.6526 293.443C82.9738 292.442 86.7144 287.293 86.9985 272.466C87.2414 258.658 83.9431 253.815 77.2268 254.879L74.9551 255.238L74.3809 293.803Z" fill="#FFF685"/>
<path d="M577.115 90.1507C578.664 99.9288 575.439 108.337 568.788 113.643L579.253 136.892L564.043 139.301L555.424 119.404L555.128 119.451L549.893 120.28L549.524 141.6L534.215 144.025L535.347 77.023L553.916 74.082C566.855 72.0327 575.16 77.8046 577.115 90.1507ZM550.362 88.7182L550.089 106.176L554.435 105.487C559.67 104.658 562.485 100.061 561.5 93.8389C560.812 89.4931 558.461 87.4355 554.708 88.0299L550.362 88.7182Z" fill="white"/>
<path d="M508.64 149.291C496.195 151.262 486.595 144.987 484.796 133.628C484.562 132.147 484.493 130.436 484.529 128.102L485.288 84.9521L500.597 82.5274L499.839 127.601C499.793 129.228 499.819 130.034 499.929 130.725C500.445 133.985 502.848 135.73 506.206 135.198C509.663 134.651 511.788 132.087 511.885 128.224L512.647 80.6189L528.055 78.1785L527.173 126.309C526.992 138.589 519.604 147.555 508.64 149.291Z" fill="white"/>
<path d="M457.935 157.322C442.724 159.731 434.479 148.583 434.957 126.031C435.398 101.966 441.802 90.6242 456.124 88.3559C471.631 85.8999 479.6 96.5847 479.237 119.22C478.812 143.384 472.256 155.053 457.935 157.322ZM457.081 142.979C461.92 142.212 463.524 136.997 463.714 121.578C463.863 107.177 462.015 101.901 456.978 102.699C452.237 103.45 450.82 107.927 450.495 123.773C450.216 137.991 452.142 143.761 457.081 142.979Z" fill="white"/>
<path d="M436.304 92.7105L419.971 138.53L419.566 162.184L404.257 164.609L404.625 141.365L389.685 100.094L405.686 97.56L412.215 119.61L419.513 95.3699L436.304 92.7105Z" fill="white"/>
<path d="M335.906 175.434L337.038 108.432L370.027 103.207L369.831 117.312L352.151 120.112L351.928 131.487L364.966 129.422L364.728 142.622L351.69 144.686L351.395 158.806L370.063 155.85L369.882 170.053L335.906 175.434Z" fill="white"/>
<path d="M313.235 180.24C300.79 182.211 292.647 176.818 289.443 164.265L302.687 159.029C304.25 165.059 306.486 167.033 310.931 166.329C313.795 165.875 315.77 163.639 315.378 161.17C315.034 158.997 314.025 157.739 309.812 154.154L305.371 150.403C297.32 143.679 294.116 139.428 293.302 134.292C291.456 122.638 298.387 113.339 310.14 111.477C321.598 109.663 328.842 114.489 332.331 126.288L319.492 132.169C317.566 126.399 315.902 124.841 312.247 125.419C309.778 125.811 308.199 127.984 308.559 130.256C308.887 132.33 310.188 134.149 313.469 136.97L317.927 140.821C326.711 148.339 329.785 152.408 330.599 157.544C332.413 169.001 325.285 178.331 313.235 180.24Z" fill="white"/>
<path d="M266.184 187.692C250.974 190.101 242.729 178.954 243.206 156.402C243.647 132.336 250.052 120.995 264.373 118.727C279.88 116.271 287.85 126.955 287.486 149.591C287.061 173.755 280.506 185.424 266.184 187.692ZM265.33 173.349C270.17 172.583 271.774 167.368 271.964 151.948C272.113 137.548 270.265 132.272 265.228 133.069C260.487 133.82 259.07 138.297 258.744 154.143C258.465 168.362 260.392 174.132 265.33 173.349Z" fill="white"/>
<path d="M218.343 195.269C203.133 197.678 194.887 186.531 195.365 163.979C195.806 139.913 202.211 128.572 216.532 126.303C232.039 123.847 240.009 134.532 239.645 157.168C239.22 181.332 232.665 193.001 218.343 195.269ZM217.489 180.926C222.329 180.16 223.933 174.945 224.123 159.525C224.272 145.124 222.424 139.849 217.387 140.646C212.646 141.397 211.229 145.874 210.903 161.72C210.624 175.939 212.551 181.708 217.489 180.926Z" fill="white"/>
<path d="M146.663 205.408L147.796 138.406L163.105 135.981L162.706 160.951L174.855 159.027L175.253 134.057L190.562 131.632L189.43 198.634L174.121 201.059L174.591 173.344L162.442 175.268L161.972 202.983L146.663 205.408Z" fill="white"/>
<path d="M123.529 210.286C108.319 212.695 100.073 201.548 100.551 178.996C101.008 155.029 107.397 143.589 121.422 141.367C133.373 139.475 140.457 145.845 142.642 160.281L129.158 164.644C128.162 157.714 126.227 155.085 122.572 155.663C117.831 156.414 116.414 160.891 116.089 176.737C115.81 190.956 117.736 196.726 122.675 195.943C125.835 195.443 127.7 192.515 128.82 186.162L142.38 188.671C140.021 201.903 134.097 208.612 123.529 210.286Z" fill="white"/>
<path fill-rule="evenodd" clip-rule="evenodd" d="M608.692 223.351L608.528 233.097L659.718 224.989L660.146 191.307L643.614 193.926L644.566 141.127L609.99 146.603L609.825 156.349L611.93 156.015L611.734 170.12L609.586 170.46L608.933 209.138L611.966 208.658L611.785 222.861L608.692 223.351ZM633.809 205.198L634.761 152.399L619.452 154.824L618.32 221.826L650.222 216.773L650.402 202.57L633.809 205.198Z" fill="#EF4156"/>
<path fill-rule="evenodd" clip-rule="evenodd" d="M568.926 185.74L568.017 239.513L621.282 231.076L621.406 221.337L618.32 221.826L618.725 197.867L616.181 198.27L616.527 179.08L619.049 178.681L619.452 154.824L621.553 154.491L621.688 144.75L569.479 153.019L569.314 162.765L576.088 161.692L568.926 185.74ZM594.055 172.92L611.734 170.119L611.93 156.015L578.942 161.24L577.809 228.242L611.786 222.861L611.966 208.658L593.299 211.614L593.593 197.494L606.631 195.429L606.869 182.23L593.831 184.295L594.055 172.92Z" fill="#EF4156"/>
<path fill-rule="evenodd" clip-rule="evenodd" d="M522.963 184.179L540.463 243.877L562.676 240.358L578.502 187.218L578.941 161.24L586.601 160.027L589.639 149.826L551.709 155.833L551.538 156.48L551.391 155.884L516.297 161.442L519.02 170.731L525.7 169.672L525.504 183.777L522.963 184.179ZM551.238 195.293L544.186 166.745L528.58 169.216L547.3 233.074L555.202 231.823L576.088 161.692L559.396 164.336L551.238 195.293Z" fill="#EF4156"/>
<path fill-rule="evenodd" clip-rule="evenodd" d="M481.952 243.425L481.787 253.17L535.052 244.734L535.48 211.052L529.951 211.928L530.297 192.738L534.991 191.994L535.003 191.127L528.58 169.217L535.322 168.149L535.458 158.408L483.249 166.677L482.192 229.212L487.106 228.434L486.925 242.637L481.952 243.425ZM507.825 186.577L525.504 183.777L525.7 169.673L492.712 174.898L491.579 241.9L525.556 236.518L525.736 222.315L507.069 225.272L507.363 211.152L520.401 209.087L520.639 195.887L507.601 197.952L507.825 186.577Z" fill="#EF4156"/>
<path fill-rule="evenodd" clip-rule="evenodd" d="M455.023 247.689L486.925 242.637L487.106 228.433L470.513 231.062L471.465 178.263L456.156 180.687L455.023 247.689ZM480.318 219.789L481.27 166.99L446.693 172.466L445.231 258.96L496.422 250.852L496.546 241.113L491.579 241.899L491.984 217.941L480.318 219.789Z" fill="#EF4156"/>
<path fill-rule="evenodd" clip-rule="evenodd" d="M385.299 206.186L395.381 234.036L394.86 266.938L429.409 261.466L429.925 231.33L451.16 171.759L377.084 183.491L380.412 192.684L406.068 188.62L412.598 210.67L419.896 186.43L436.687 183.771L420.353 229.59L419.949 253.245L404.639 255.669L405.008 232.426L390.461 192.241L390.219 205.407L385.299 206.186Z" fill="#EF4156"/>
<path fill-rule="evenodd" clip-rule="evenodd" d="M351.87 264.028L351.709 273.773L386.272 268.299L387.141 215.614L398.283 213.849L390.461 192.241L390.219 205.407L377.675 207.394L376.806 260.078L361.497 262.503L362.366 209.818L349.822 211.805L350.086 197.487L400.112 189.564L400.291 179.816L340.635 189.265L340.013 223.078L352.579 221.088L352.105 249.816L355.35 249.302L355.169 263.505L351.87 264.028Z" fill="#EF4156"/>
<path fill-rule="evenodd" clip-rule="evenodd" d="M313.779 261.865L313.475 279.828L364.666 271.72L364.79 261.981L361.497 262.503L361.892 238.546L348.561 240.657L349.514 187.858L314.937 193.334L314.772 203.08L317.107 202.71L316.225 250.841C316.165 254.932 315.305 258.655 313.779 261.865ZM338.757 251.93L339.709 199.131L324.4 201.555L323.267 268.558L355.169 263.505L355.35 249.302L338.757 251.93Z" fill="#EF4156"/>
<path fill-rule="evenodd" clip-rule="evenodd" d="M266.783 267.695C268.919 272.308 272.215 276.198 276.513 279.017C283.034 283.295 291.055 284.594 299.194 283.305C310.783 281.469 319.358 274.025 323.346 263.886L324.4 201.555L326.736 201.185L326.915 191.437L264.883 201.262L264.581 218.417C266.821 221.561 268.357 225.879 269.186 231.36L264.326 232.932L263.982 252.477L263.982 252.489C263.948 254.73 263.991 256.837 264.255 258.886L268.924 259.75C268.394 262.722 267.685 265.365 266.783 267.695ZM316.225 250.841L317.107 202.71L301.699 205.151L300.937 252.756C300.84 256.619 298.715 259.183 295.258 259.73C291.9 260.262 289.497 258.517 288.981 255.257C288.871 254.566 288.845 253.76 288.891 252.133L289.649 207.059L274.34 209.484L273.581 252.634C273.545 254.968 273.614 256.679 273.849 258.16C275.648 269.519 285.247 275.794 297.692 273.823C308.656 272.087 316.044 263.12 316.225 250.841Z" fill="#EF4156"/>
<path fill-rule="evenodd" clip-rule="evenodd" d="M221.366 274.41C222.351 276.703 223.544 278.834 224.969 280.77C231.344 289.435 241.039 292.516 251.575 290.848C258.677 289.723 264.98 286.727 269.803 281.213C273.371 277.133 275.71 272.151 277.218 266.624C275.987 264.912 275.037 262.937 274.411 260.729C274.177 259.905 273.989 259.048 273.848 258.161C273.614 256.679 273.545 254.969 273.581 252.635L273.612 250.855L252.307 246.912L273.804 239.956L274.229 215.774C272.765 213.091 270.926 210.669 268.634 208.621C262.388 203.041 254.455 201.699 246.464 202.965C236.701 204.511 228.971 209.588 224.051 218.444C223.393 219.627 222.794 220.864 222.249 222.151L221.366 274.41ZM227.095 250.075C226.618 272.627 234.863 283.775 250.073 281.366C257.808 280.141 263.054 276.219 266.237 269.016C267.321 266.563 268.165 263.729 268.787 260.491C268.834 260.247 268.88 260 268.924 259.751C268.924 259.752 268.924 259.751 268.924 259.751L255.364 257.241C255.364 257.241 255.364 257.242 255.364 257.242C255.319 257.499 255.273 257.75 255.225 257.995C254.092 263.827 252.252 266.542 249.219 267.023C244.281 267.805 242.354 262.035 242.633 247.817C242.959 231.971 244.376 227.494 249.117 226.743C250.877 226.464 252.239 226.93 253.288 228.262C254.418 229.695 255.186 232.132 255.703 235.723L269.186 231.36C267.001 216.924 259.917 210.554 247.966 212.447C233.941 214.668 227.552 226.109 227.095 250.075ZM253.131 260.139C253.13 260.14 253.122 260.124 253.108 260.089C253.124 260.121 253.131 260.138 253.131 260.139Z" fill="#EF4156"/>
<path fill-rule="evenodd" clip-rule="evenodd" d="M196.66 264.716L196.091 298.42L230.654 292.946L231.002 272.34C228.24 267.048 226.894 259.573 227.095 250.074C227.309 238.852 228.824 230.375 231.814 224.306L232.116 206.452L197.553 211.926L197.388 221.672L201.406 221.036L201.21 235.14L197.149 235.783L196.901 250.503L197.651 250.384L197.372 264.603L196.66 264.716ZM205.883 287.149L221.192 284.725L222.324 217.723L207.015 220.147L205.883 287.149Z" fill="#EF4156"/>
<path fill-rule="evenodd" clip-rule="evenodd" d="M158.754 270.72L158.184 304.424L192.764 298.947L193.121 274.996L206.123 272.937L207.015 220.147L211.028 219.512L211.163 209.771L159.646 217.93L159.481 227.676L163.5 227.04L163.304 241.144L159.243 241.787L158.994 256.507L159.744 256.388L159.465 270.607L158.754 270.72ZM184.222 237.831L201.21 235.14L201.406 221.036L169.109 226.151L167.976 293.153L183.285 290.728L183.643 266.778L197.372 264.603L197.651 250.384L183.922 252.559L184.222 237.831Z" fill="#EF4156"/>
<path fill-rule="evenodd" clip-rule="evenodd" d="M120.443 300.682L120.278 310.428L154.857 304.951L155.215 281L168.216 278.941L169.109 226.152L173.122 225.516L173.257 215.775L121.74 223.934L121.575 233.68L123.941 233.305L122.809 300.307L120.443 300.682ZM146.315 243.835L163.304 241.144L163.5 227.04L131.202 232.155L130.07 299.157L145.379 296.733L145.737 272.782L159.466 270.607L159.745 256.389L146.016 258.563L146.315 243.835Z" fill="#EF4156"/>
<path fill-rule="evenodd" clip-rule="evenodd" d="M98.0582 293.263L97.7076 314.003L132.271 308.528L132.436 298.783L130.07 299.157L131.202 232.155L133.568 231.78L133.733 222.035L99.1696 227.509L98.7713 251.073C101.45 256.034 102.795 262.67 102.63 270.801C102.447 280.154 100.948 287.576 98.0582 293.263ZM107.499 302.732L122.809 300.307L123.941 233.305L108.632 235.73L107.499 302.732Z" fill="#EF4156"/>
<path fill-rule="evenodd" clip-rule="evenodd" d="M58.6938 310.462L76.8673 307.583C93.9543 304.877 102.184 293.55 102.63 270.8C103.067 249.267 92.9139 238.219 75.4318 240.988L59.8263 243.46L58.6938 310.462ZM107.622 295.484C106.568 297.89 105.312 300.15 103.829 302.248C97.766 310.829 88.8662 315.403 78.3691 317.065L48.9019 321.732L50.3639 235.239L73.93 231.506C85.0198 229.75 95.4757 232.252 102.836 240.304C105.153 242.838 106.993 245.742 108.409 248.93L107.622 295.484ZM76.6526 293.443L74.3809 293.803L74.9551 255.238L77.2268 254.878C79.0133 254.595 80.558 254.73 81.8585 255.341C82.9031 255.831 83.7902 256.628 84.5186 257.762C86.2925 260.524 87.1249 265.281 86.9985 272.466C86.8558 279.913 85.8412 284.918 84.0656 288.183C82.306 291.419 79.799 292.945 76.6526 293.443Z" fill="#EF4156"/>
<path fill-rule="evenodd" clip-rule="evenodd" d="M535.347 77.0227L553.916 74.0817C566.855 72.0325 575.16 77.8043 577.115 90.1504C578.664 99.9285 575.439 108.336 568.788 113.642L579.253 136.891L564.043 139.3L555.424 119.404L549.893 120.28L549.524 141.6L534.215 144.025L535.347 77.0227ZM524.423 155.295L524.727 137.333C526.252 134.122 527.113 130.399 527.173 126.308L528.055 78.1778L525.72 78.5475L525.885 68.8018L552.414 64.5999C560.501 63.319 568.538 64.2767 575.104 68.8282C581.742 73.4303 585.327 80.6291 586.597 88.6486C588.195 98.7391 585.92 108.293 580.216 115.643L593.165 144.408L524.423 155.295ZM550.089 106.175L554.435 105.487C556.693 105.13 558.501 104.071 559.748 102.483C561.392 100.389 562.06 97.3768 561.5 93.8386C561.231 92.1396 560.708 90.7903 559.946 89.8125C559.653 89.4373 559.326 89.1167 558.964 88.8522C557.858 88.0427 556.43 87.7568 554.708 88.0296L550.362 88.7179L550.089 106.175Z" fill="#EF4156"/>
<path fill-rule="evenodd" clip-rule="evenodd" d="M476.498 140.035C478.472 146.023 482.223 151.049 487.461 154.485C493.982 158.763 502.002 160.062 510.142 158.773C521.731 156.937 530.306 149.493 534.294 139.353L535.348 77.023L537.684 76.6529L537.863 66.905L475.831 76.7298L475.468 97.3527C478.112 102.542 479.387 109.859 479.237 119.22C479.182 122.355 479.023 125.279 478.758 128C478.758 128.005 478.757 128.01 478.757 128.014C478.523 130.411 478.206 132.65 477.804 134.735C477.44 136.627 477.005 138.392 476.498 140.035ZM511.885 128.224C511.788 132.087 509.663 134.651 506.206 135.198C502.848 135.73 500.445 133.984 499.929 130.725C499.819 130.034 499.793 129.228 499.839 127.601L500.597 82.5269L485.288 84.9517L484.529 128.102C484.493 130.436 484.562 132.146 484.797 133.628C486.596 144.986 496.195 151.262 508.64 149.291C519.604 147.554 526.992 138.588 527.173 126.309L528.055 78.1781L512.647 80.6185L511.885 128.224Z" fill="#EF4156"/>
<path fill-rule="evenodd" clip-rule="evenodd" d="M486.601 139.465C485.746 137.712 485.134 135.76 484.796 133.628C484.562 132.146 484.493 130.436 484.529 128.102L484.683 119.316L484.683 119.308L485.105 95.335C484.088 92.9051 482.836 90.657 481.319 88.6283C474.847 79.9771 465.078 77.2182 454.622 78.8742C445.183 80.3692 437.575 85.0434 432.558 93.3034L436.304 92.7102L425.431 123.211C425.399 124.079 425.375 124.956 425.359 125.842C425.104 137.946 427.083 148.915 432.83 156.726C439.205 165.391 448.9 168.472 459.437 166.804C469.332 165.236 477.173 160.106 482.174 151.171C484.116 147.701 485.561 143.78 486.601 139.465ZM434.957 126.031C434.479 148.584 442.724 159.731 457.935 157.322C472.256 155.054 478.811 143.384 479.237 119.22C479.6 96.5848 471.631 85.9 456.124 88.356C441.802 90.6243 435.398 101.966 434.957 126.031ZM463.714 121.578C463.863 107.177 462.015 101.901 456.978 102.699C452.237 103.45 450.82 107.927 450.495 123.773C450.216 137.991 452.142 143.761 457.081 142.979C461.92 142.212 463.524 136.997 463.714 121.578ZM453.199 109.535C453.199 109.534 453.204 109.546 453.215 109.572C453.204 109.549 453.198 109.536 453.199 109.535ZM461.364 110.097C461.364 110.097 461.362 110.103 461.357 110.113C461.361 110.102 461.364 110.097 461.364 110.097ZM460.992 136.095C460.991 136.096 460.984 136.08 460.97 136.046C460.985 136.077 460.992 136.095 460.992 136.095Z" fill="#EF4156"/>
<path fill-rule="evenodd" clip-rule="evenodd" d="M434.979 125.016C435.348 110.696 437.903 101 443.075 95.1236C444.195 93.8509 445.438 92.7574 446.808 91.8348L450.778 80.6979L376.701 92.4304L394.998 142.975L394.477 175.877L429.027 170.405L429.542 140.269L434.979 125.016ZM419.97 138.529L436.304 92.71L419.513 95.3693L412.215 119.609L405.685 97.5594L389.685 100.094L404.625 141.365L404.257 164.608L419.566 162.184L419.97 138.529Z" fill="#EF4156"/>
<path fill-rule="evenodd" clip-rule="evenodd" d="M326.114 186.705L326.338 173.422C329.948 169.308 331.58 163.737 330.599 157.544C330.159 154.764 329.056 152.297 326.744 149.426L327.095 128.687L332.331 126.288C331.116 122.179 329.446 118.916 327.301 116.485L327.576 100.211L379.785 91.9419L379.318 125.528L374.624 126.272L374.278 145.462L379.806 144.587L379.379 178.268L326.114 186.705ZM351.69 144.686L364.728 142.621L364.966 129.422L351.928 131.486L352.151 120.111L369.831 117.311L370.027 103.207L337.038 108.432L335.906 175.434L369.882 170.053L370.063 155.85L351.395 158.806L351.69 144.686Z" fill="#EF4156"/>
<path fill-rule="evenodd" clip-rule="evenodd" d="M287.288 154.794C287.218 155.947 287.132 157.068 287.028 158.156C286.792 160.649 286.466 162.972 286.049 165.131C285.34 168.8 284.366 171.995 283.115 174.739C285.316 179.124 288.39 182.904 292.535 185.678C299.093 190.065 306.882 190.965 314.737 189.721C322.886 188.431 330.003 184.501 334.742 178.304C335.479 177.341 336.146 176.338 336.743 175.301L335.906 175.434L336.396 146.423C334.602 143.601 332.241 140.943 329.377 138.2L336.591 134.896L336.955 113.36C335.014 110.4 332.583 107.814 329.552 105.791C323.287 101.612 315.963 100.835 308.639 101.995C300.568 103.273 293.54 107.238 288.905 113.501C285.879 117.589 284.093 122.362 283.569 127.436C284.753 129.681 285.673 132.337 286.324 135.397C286.95 138.342 287.328 141.661 287.452 145.347C289.001 147.814 290.965 150.131 293.275 152.427L287.288 154.794ZM303.166 148.516C303.857 149.123 304.591 149.751 305.371 150.402L309.813 154.154C310.57 154.798 311.224 155.367 311.789 155.88C314.367 158.221 315.096 159.387 315.379 161.169C315.77 163.639 313.795 165.875 310.931 166.329C308.014 166.791 306.048 166.099 304.599 163.864C304.143 163.159 303.738 162.302 303.37 161.278C303.127 160.602 302.901 159.853 302.687 159.028L289.443 164.265C290.173 167.123 291.158 169.61 292.393 171.724C292.668 172.195 292.955 172.647 293.255 173.081C297.515 179.25 304.256 181.662 313.235 180.239C325.285 178.331 332.413 169.001 330.599 157.544C329.85 152.814 327.183 148.988 319.903 142.54C319.279 141.987 318.621 141.414 317.927 140.82L313.469 136.97C312.601 136.223 311.871 135.547 311.261 134.917C310.767 134.407 310.351 133.927 310.005 133.466C309.164 132.347 308.73 131.336 308.559 130.256C308.199 127.984 309.778 125.81 312.247 125.419C314.476 125.066 315.964 125.508 317.223 127.215C317.48 127.563 317.727 127.963 317.969 128.42C318.298 129.042 318.618 129.768 318.938 130.609C318.941 130.616 318.944 130.623 318.946 130.63C319.127 131.106 319.309 131.618 319.493 132.169L332.331 126.288C331.373 123.048 330.131 120.333 328.597 118.138C328.473 117.959 328.346 117.784 328.218 117.613C324.168 112.208 318.196 110.201 310.14 111.477C298.387 113.339 291.456 122.637 293.302 134.292C294.037 138.931 296.722 142.847 303.166 148.516Z" fill="#EF4156"/>
<path fill-rule="evenodd" clip-rule="evenodd" d="M297.085 149.752L297.085 149.759C297.012 153.889 296.771 157.827 296.317 161.547L289.443 164.265C290.423 168.105 291.866 171.275 293.752 173.769C292.857 176.56 291.758 179.157 290.423 181.54C285.423 190.475 277.581 195.606 267.686 197.173C257.15 198.842 247.455 195.761 241.08 187.096C239.243 184.6 237.792 181.782 236.675 178.708C238.527 173.078 239.491 165.948 239.645 157.167C239.649 156.888 239.653 156.611 239.655 156.336C239.655 156.332 239.655 156.329 239.655 156.326C239.716 147.515 238.483 140.567 236.003 135.552C237.018 131.561 238.395 127.923 240.218 124.683C245.218 115.793 253.055 110.799 262.872 109.244C273.327 107.588 283.096 110.347 289.568 118.998C291.16 121.127 292.46 123.497 293.503 126.065C292.928 128.607 292.84 131.375 293.302 134.292C293.728 136.981 294.809 139.427 296.898 142.112C297.07 144.59 297.127 147.141 297.085 149.744L297.085 149.752ZM243.206 156.401C242.729 178.953 250.974 190.101 266.184 187.692C280.506 185.423 287.061 173.754 287.486 149.59C287.85 126.955 279.88 116.27 264.373 118.726C250.052 120.994 243.647 132.336 243.206 156.401ZM271.964 151.947C272.113 137.547 270.265 132.271 265.228 133.069C260.487 133.82 259.07 138.296 258.744 154.142C258.465 168.361 260.392 174.131 265.33 173.349C270.17 172.582 271.774 167.367 271.964 151.947ZM261.448 139.905C261.448 139.904 261.454 139.916 261.464 139.942C261.453 139.918 261.448 139.905 261.448 139.905ZM269.613 140.467C269.614 140.467 269.611 140.472 269.606 140.482C269.611 140.472 269.613 140.467 269.613 140.467ZM261.059 165.746C261.059 165.746 261.06 165.742 261.065 165.734C261.061 165.742 261.059 165.746 261.059 165.746ZM269.242 166.465C269.241 166.466 269.233 166.45 269.219 166.415C269.235 166.447 269.242 166.464 269.242 166.465Z" fill="#EF4156"/>
<path fill-rule="evenodd" clip-rule="evenodd" d="M246.835 178.116C244.339 173.02 243.089 166.014 243.193 157.23C243.193 157.228 243.193 157.226 243.193 157.224C243.196 156.951 243.201 156.677 243.206 156.401C243.367 147.617 244.323 140.528 246.168 134.957C245.048 131.879 243.588 129.062 241.727 126.575C235.255 117.924 225.486 115.165 215.03 116.821C205.213 118.376 197.377 123.37 192.376 132.26C191.684 133.492 191.055 134.781 190.486 136.125L189.606 188.242C190.596 190.563 191.799 192.717 193.239 194.673C199.613 203.338 209.309 206.419 219.845 204.751C229.74 203.183 237.581 198.053 242.582 189.118C244.418 185.838 245.81 182.154 246.835 178.116ZM195.365 163.978C194.887 186.53 203.133 197.678 218.343 195.269C232.665 193 239.22 181.331 239.645 157.167C240.009 134.532 232.039 123.847 216.532 126.303C202.211 128.571 195.806 139.913 195.365 163.978ZM224.123 159.525C224.272 145.124 222.424 139.848 217.387 140.646C212.646 141.397 211.228 145.874 210.903 161.72C210.624 175.938 212.55 181.708 217.489 180.926C222.329 180.159 223.933 174.944 224.123 159.525ZM213.607 147.482C213.607 147.481 213.613 147.493 213.623 147.519C213.612 147.495 213.607 147.482 213.607 147.482ZM221.4 174.042C221.4 174.043 221.392 174.027 221.378 173.993C221.394 174.024 221.401 174.041 221.4 174.042Z" fill="#EF4156"/>
<path fill-rule="evenodd" clip-rule="evenodd" d="M136.871 216.678L137.111 202.465C139.617 199.043 141.343 194.487 142.38 188.671L137.36 187.742L137.798 161.848L142.642 160.281C141.813 154.806 140.279 150.491 138.043 147.347L138.333 130.184L200.354 120.361L200.051 138.281C197.067 144.337 195.57 152.78 195.365 163.979C195.165 173.442 196.5 180.897 199.242 186.185L198.892 206.855L136.871 216.678ZM174.121 201.058L189.43 198.634L190.562 131.632L175.253 134.056L174.855 159.026L162.706 160.95L163.105 135.981L147.796 138.405L146.663 205.407L161.972 202.983L162.442 175.268L174.591 173.344L174.121 201.058Z" fill="#EF4156"/>
<path fill-rule="evenodd" clip-rule="evenodd" d="M126.744 157.182C125.694 155.85 124.333 155.384 122.572 155.663C117.831 156.414 116.414 160.891 116.089 176.737C115.81 190.955 117.736 196.725 122.675 195.943C125.707 195.463 127.547 192.748 128.68 186.917C128.728 186.67 128.775 186.419 128.82 186.161L142.38 188.671C142.335 188.92 142.29 189.167 142.243 189.412C141.621 192.65 140.776 195.483 139.692 197.937C136.51 205.139 131.264 209.061 123.529 210.286C108.319 212.695 100.073 201.548 100.551 178.995C101.008 155.029 107.397 143.588 121.422 141.367C133.373 139.474 140.457 145.844 142.642 160.28L129.158 164.643C128.642 161.052 127.873 158.616 126.744 157.182ZM90.9531 178.803C90.6979 190.908 92.6766 201.878 98.4243 209.69C104.799 218.355 114.495 221.437 125.031 219.768C132.132 218.643 138.435 215.648 143.259 210.133C144.548 208.659 145.677 207.067 146.664 205.375L147.096 179.781L125.763 175.832L147.281 168.869L147.689 144.701C146.224 142.016 144.384 139.591 142.089 137.541C135.843 131.961 127.911 130.62 119.92 131.885C110.157 133.432 102.427 138.508 97.5062 147.365C92.9596 155.549 91.1924 166.281 90.9531 178.803ZM126.586 189.059C126.586 189.06 126.578 189.044 126.564 189.01C126.58 189.041 126.587 189.059 126.586 189.059Z" fill="#EF4156"/>
</svg>
